M48
;Layer_Color=9474304
;FILE_FORMAT=4:4
METRIC,LZ
;TYPE=PLATED
T01F00S00C0.2540
T03F00S00C0.8000
T04F00S00C1.0008
T05F00S00C1.0998
T06F00S00C1.3005
T08F00S00C3.2000
%
T01
X0005464Y0008768
Y000953
Y0014356
Y0015245
X0008258Y0017531
X0009782Y0019944
X00120542Y0022865
X0007242Y0022611
X00166262Y0020706
X001664Y0019436
X0019942Y00235
Y0024897
X00237035Y00249039
Y00240149
Y00257929
Y00266607
X001029Y0011816
X0009528
X0034928Y0011562
X003569
X0036706Y0014229
X0037468
X003823
Y0018039
X0036706
X0042548
X0043183Y0021722
X0042802Y0024516
X0044453Y0025278
Y0026294
Y00281436
Y00294118
X0046993Y0028707
X0047501Y0026548
Y0025278
X0050295Y0028199
X0053978Y0025659
Y0024135
X0056391Y0022738
Y0021214
X0060074
Y0024262
Y0027183
X0056391Y002858
Y0025659
X006617Y002731
X0065789Y0029088
X0068202Y0027056
Y0026167
X0067694Y0020325
X0062614Y001461
Y0013975
Y001334
Y0012705
Y001207
X006109Y0013213
X0060328
Y0007625
X006109
X005347Y0007879
X00522
X00509349Y00078839
X004966Y0007879
X005093Y0010165
X0046739Y0011562
X0046104
Y0005974
X0046739
X003569Y0005847
X0034928
X0033023Y0006863
X0032261
X003924Y0021982
X0038738Y0024516
X0039754
X0033531Y0027818
Y0029215
X0030991Y00286436
X0048517Y0016515
X0050549
X0052327Y001588
X0068456Y0020325
X0069218
X006998
X0070234Y0024135
X0070996
X0071758
X0071123Y0025532
Y0026294
Y0027183
Y0027945
Y0028707
X0069472Y0029088
X006871
X00686871Y00266013
X0069218Y0026167
Y0027056
X0070234Y0024897
X0069472Y0024135
X006871
X0072393Y0031501
X0072774Y0035057
X0072012
X007125
X0070488
X0069726
X0068964
X0068202
X006744
X0066678
X0065916
X0060074Y00362
Y0039248
Y0042296
Y0045344
X0056391Y004382
Y0040772
Y0037724
Y00362
X00539797Y00354397
X00544929Y003239
X0056391Y0031628
X00600393Y0032983
X0060074Y0030104
X0048771Y0030358
X004712
Y0031882
X0047374Y00331436
X0048263Y0034422
X00445008Y00342472
X0044453Y0033279
Y0032263
Y0030739
X0044704Y0037846
X0041532Y0038105
X00395Y0038613
X0038738Y0038105
X0036706
X0035817
X0036325Y0035438
X0035055
X003823
X0039246
X0040008
X004077
X0041786
X0043691Y004128
X0038611
X003696
X0036914Y00449665
X0033912Y0044963
X0030864
X0035817Y0047376
X0038865
X0041913
X00436944Y00466174
X0046358Y00454847
X0040389Y0051059
X0037341
X0034293
X0037087Y0056901
X0030356Y0035692
Y003493
Y0034168
Y0033406
X00502418Y003239
X00268785Y0033378
X0027562Y003493
Y0037724
X00238824Y00363304
X00207485Y0039756
X00213676Y0041534
X0017783Y004763
T03
X0015878Y-0001646
X0009274Y0015753
X0018291Y0024008
X0033277Y0015372
X0049533Y00235
X0060628Y0022766
Y0025687
Y0028608
Y0019718
X0065662Y0021087
X0060709Y0003434
X008522Y0007498
X0085093Y0012578
Y0015118
Y0017658
Y0020198
Y0022738
Y0025278
X0060628Y0031656
Y0034704
Y0037752
Y00408
Y0043848
X0048563Y0045499
X0048136Y0036327
X0054486Y0033914
X0041913Y0051694
X0038865
X0035817
X0035436Y00456158
X0032388
X0027435Y0045852
T04
X00080446Y-00015977
X0010544
X00130459
Y00044043
X0010544
X00080446
X0079886Y0004958
X0082426
Y0007498
X0079886
Y0010038
X0082426
Y0012578
X0079886
Y0015118
X0082426
Y0017658
X0079886
Y0020198
X0082426
Y0022738
X0079886
Y0025278
X0082426
Y0027818
X0079886
Y0030358
X0082426
Y0032898
X0079886
Y0035438
X0082426
Y0037978
X0079886
Y0040518
X0082426
Y0043058
X0079886
Y0045598
X0082426
Y0048138
X0079886
Y0050678
X0082426
Y0053218
X0079886
T05
X0028959Y0048392
X0031499
X0026419
X0023879
X0022863Y0055123
X0025403
X0027943
Y0057663
X0025403
X0022863
X0020323
Y0055123
X0017783
Y0057663
X0015243
Y0055123
X0012703
Y0057663
T06
X0000684Y0021115
Y0024925
Y0028735
Y0032545
T08
X0Y0
X009005
Y006
X0
M30
