M48
;Layer_Color=9474304
;FILE_FORMAT=4:4
METRIC,LZ
;TYPE=PLATED
T02F00S00C0.5994
T07F00S00C1.3005
%
G90
G05
T02
G00X-00011969Y00063525
M15
G01X-00002952
M16
G00X00030017Y00063525
M15
G01X00035021
M16
G00X00030017Y0017592
M15
G01X00035021
M16
G00X-00011969Y0017592
M15
G01X-00002952
M16
T07
G00X00126538Y0027973
M15
G01X00133523
M16
G00X00729327Y00174065
M15
G01X00736312
M16
G00X00729327Y0012705
M15
G01X00736312
M16
G00X00729327Y0008006
M15
G01X00736312
M16
G00X00126538Y0032672
M15
G01X00133523
M16
G00X00126538Y00373735
M15
G01X00133523
M16
M17
M30
