G04*
G04 #@! TF.GenerationSoftware,Altium Limited,Altium Designer,24.10.1 (45)*
G04*
G04 Layer_Color=8388736*
%FSLAX44Y44*%
%MOMM*%
G71*
G04*
G04 #@! TF.SameCoordinates,13D5D41E-7614-45C0-9662-7538BB19D50D*
G04*
G04*
G04 #@! TF.FilePolarity,Negative*
G04*
G01*
G75*
%ADD38R,0.9652X0.9093*%
%ADD39R,1.4529X1.2040*%
%ADD40R,3.7033X1.8034*%
%ADD41R,1.1024X1.0033*%
%ADD42C,1.0312*%
%ADD43O,0.9525X0.3810*%
%ADD44O,0.3810X0.9525*%
%ADD45R,1.4503X1.5113*%
%ADD46R,0.9093X0.9652*%
%ADD47R,1.2040X1.4529*%
%ADD48R,1.5113X1.4503*%
%ADD49R,2.3952X2.2504*%
%ADD50R,0.8026X1.2725*%
%ADD51R,1.9304X1.3945*%
%ADD52R,1.0033X1.1024*%
%ADD53R,1.2344X1.4783*%
%ADD54R,1.7043X2.5044*%
%ADD55O,0.6883X1.9025*%
%ADD56R,1.2014X0.4013*%
%ADD57R,1.2040X1.0033*%
%ADD58O,2.0676X0.8331*%
%ADD59R,1.3538X1.6027*%
%ADD60R,1.4783X1.2344*%
%ADD61O,0.5032X1.6532*%
%ADD62O,1.6532X0.5032*%
%ADD63O,3.2029X2.2022*%
%ADD64O,2.2022X1.1024*%
%ADD65O,1.8009X1.1024*%
%ADD66C,1.8032*%
%ADD67C,1.7272*%
%ADD68R,1.7272X1.7272*%
%ADD69R,1.9025X1.9025*%
%ADD70C,1.9025*%
%ADD71C,2.0041*%
%ADD72R,2.0041X2.0041*%
%ADD73C,2.7026*%
%ADD74C,6.2032*%
%ADD75R,1.8034X1.8034*%
%ADD76C,1.8034*%
%ADD77C,0.7620*%
G36*
X691441Y275252D02*
X691537Y275223D01*
X691625Y275175D01*
X691703Y275112D01*
X695970Y270845D01*
X696033Y270767D01*
X696081Y270679D01*
X696110Y270583D01*
X696120Y270484D01*
Y257733D01*
X696110Y257633D01*
X696081Y257538D01*
X696033Y257449D01*
X695970Y257372D01*
X695893Y257309D01*
X695804Y257261D01*
X695709Y257232D01*
X695609Y257222D01*
X678591D01*
X678491Y257232D01*
X678396Y257261D01*
X678307Y257309D01*
X678230Y257372D01*
X678167Y257449D01*
X678119Y257538D01*
X678090Y257633D01*
X678081Y257733D01*
Y274751D01*
X678090Y274851D01*
X678119Y274946D01*
X678167Y275035D01*
X678230Y275112D01*
X678307Y275175D01*
X678396Y275223D01*
X678491Y275252D01*
X678591Y275261D01*
X691342D01*
X691441Y275252D01*
D02*
G37*
D38*
X659160Y304444D02*
D03*
Y319506D02*
D03*
X723930Y325272D02*
D03*
Y340334D02*
D03*
Y290372D02*
D03*
Y305434D02*
D03*
X536430Y148691D02*
D03*
Y133629D02*
D03*
X522460Y148691D02*
D03*
Y133629D02*
D03*
X425836Y154126D02*
D03*
Y169189D02*
D03*
X439806Y154126D02*
D03*
Y169976D02*
D03*
X411866Y154914D02*
D03*
Y169189D02*
D03*
X397896Y154126D02*
D03*
Y169189D02*
D03*
X108440Y208508D02*
D03*
Y193446D02*
D03*
X326420Y78968D02*
D03*
Y94030D02*
D03*
X304830Y78790D02*
D03*
Y93852D02*
D03*
X283240Y78968D02*
D03*
Y94030D02*
D03*
X261650Y78968D02*
D03*
Y94030D02*
D03*
X240060Y78866D02*
D03*
Y93928D02*
D03*
X218470Y78866D02*
D03*
Y93928D02*
D03*
X196880Y78790D02*
D03*
Y93852D02*
D03*
X175290Y78866D02*
D03*
Y93928D02*
D03*
X177830Y487806D02*
D03*
Y502868D02*
D03*
X419590Y484200D02*
D03*
Y499262D02*
D03*
X389110Y484378D02*
D03*
Y499440D02*
D03*
X358630Y499262D02*
D03*
Y484200D02*
D03*
X485630Y439572D02*
D03*
Y424510D02*
D03*
X354360Y439470D02*
D03*
Y424408D02*
D03*
X323880Y439648D02*
D03*
Y424586D02*
D03*
D39*
X641380Y317042D02*
D03*
Y295046D02*
D03*
X175290Y112140D02*
D03*
Y132130D02*
D03*
X218470Y112140D02*
D03*
Y132130D02*
D03*
X240060Y112140D02*
D03*
Y132130D02*
D03*
X196880Y112140D02*
D03*
Y132130D02*
D03*
X103360Y101600D02*
D03*
Y81610D02*
D03*
X326420Y112140D02*
D03*
Y132130D02*
D03*
X304830Y112140D02*
D03*
Y132130D02*
D03*
X283240Y112140D02*
D03*
Y132130D02*
D03*
X261650Y112140D02*
D03*
Y132130D02*
D03*
D40*
X689640Y336854D02*
D03*
Y304850D02*
D03*
D41*
X723930Y275157D02*
D03*
Y261162D02*
D03*
X694720Y214147D02*
D03*
Y228142D02*
D03*
X678210D02*
D03*
Y214147D02*
D03*
X544860Y294055D02*
D03*
Y308050D02*
D03*
X201150Y208635D02*
D03*
Y194640D02*
D03*
X404350Y498653D02*
D03*
Y484657D02*
D03*
X373870Y498830D02*
D03*
Y484835D02*
D03*
X343390Y484657D02*
D03*
Y498653D02*
D03*
X470390Y424510D02*
D03*
Y438505D02*
D03*
X339120Y424865D02*
D03*
Y438860D02*
D03*
X308640Y425043D02*
D03*
Y439038D02*
D03*
X453880Y438505D02*
D03*
Y424510D02*
D03*
X437370Y438505D02*
D03*
Y424510D02*
D03*
X350906Y153974D02*
D03*
Y167969D02*
D03*
X367416Y153974D02*
D03*
Y167969D02*
D03*
X382656Y167944D02*
D03*
Y153949D02*
D03*
X369600Y424408D02*
D03*
Y438403D02*
D03*
X386110Y438378D02*
D03*
Y424382D02*
D03*
D42*
X686871Y266013D02*
D03*
D43*
X702086Y273735D02*
D03*
Y268731D02*
D03*
Y263727D02*
D03*
Y258749D02*
D03*
X672089D02*
D03*
Y263727D02*
D03*
Y268731D02*
D03*
Y273735D02*
D03*
D44*
X694593Y251231D02*
D03*
X689589D02*
D03*
X684611D02*
D03*
X679607D02*
D03*
Y281228D02*
D03*
X684611D02*
D03*
X689589D02*
D03*
X694593D02*
D03*
D45*
X712500Y205587D02*
D03*
Y225602D02*
D03*
D46*
X685754Y184200D02*
D03*
X670692D02*
D03*
X684484Y125780D02*
D03*
X669422D02*
D03*
X652734D02*
D03*
X637672D02*
D03*
X589592Y438480D02*
D03*
X574530D02*
D03*
X589770Y408000D02*
D03*
X574708D02*
D03*
X589770Y377520D02*
D03*
X574708D02*
D03*
X589592Y347040D02*
D03*
X574530D02*
D03*
X574708Y316560D02*
D03*
X589770D02*
D03*
X574530Y286080D02*
D03*
X589592D02*
D03*
X574708Y256870D02*
D03*
X589770D02*
D03*
X574708Y227660D02*
D03*
X589770D02*
D03*
X574530Y197180D02*
D03*
X589592D02*
D03*
X513570Y339420D02*
D03*
X528632D02*
D03*
X528274Y256590D02*
D03*
X513212D02*
D03*
X69070Y116890D02*
D03*
X84132D02*
D03*
Y101930D02*
D03*
X69070D02*
D03*
X84132Y86690D02*
D03*
X69070D02*
D03*
X93276Y175590D02*
D03*
X108338D02*
D03*
X225102Y249250D02*
D03*
X210040D02*
D03*
X231630Y208610D02*
D03*
X216568D02*
D03*
X231630Y194640D02*
D03*
X216568D02*
D03*
X249102Y349300D02*
D03*
X264165D02*
D03*
X249102Y363270D02*
D03*
X264165D02*
D03*
X249102Y377240D02*
D03*
X264165D02*
D03*
X344200Y569010D02*
D03*
X359262D02*
D03*
Y555040D02*
D03*
X344200D02*
D03*
X659160Y334822D02*
D03*
X644098D02*
D03*
D47*
X652810Y184200D02*
D03*
X630814D02*
D03*
D48*
X650118Y160070D02*
D03*
X630102D02*
D03*
X504680Y152679D02*
D03*
X484665D02*
D03*
X85732Y226390D02*
D03*
X105748D02*
D03*
D49*
X641380Y103682D02*
D03*
Y56463D02*
D03*
D50*
X676940Y164794D02*
D03*
X686440Y140106D02*
D03*
X667440D02*
D03*
D51*
X674400Y107695D02*
D03*
Y78790D02*
D03*
D52*
X652175Y141020D02*
D03*
X638180D02*
D03*
X575165Y453720D02*
D03*
X589160D02*
D03*
X575343Y423240D02*
D03*
X589338D02*
D03*
X575343Y392760D02*
D03*
X589338D02*
D03*
X589160Y362280D02*
D03*
X575165D02*
D03*
X589338Y331800D02*
D03*
X575343D02*
D03*
X589160Y301320D02*
D03*
X575165D02*
D03*
X589338Y242900D02*
D03*
X575343D02*
D03*
X589160Y212420D02*
D03*
X575165D02*
D03*
X528200Y369900D02*
D03*
X514205D02*
D03*
Y354660D02*
D03*
X528200D02*
D03*
X513745Y241350D02*
D03*
X527740D02*
D03*
X507220Y134950D02*
D03*
X493225D02*
D03*
X210650Y235280D02*
D03*
X224645D02*
D03*
X249074Y266470D02*
D03*
X263070D02*
D03*
X257380Y333780D02*
D03*
X243385D02*
D03*
X451540Y454710D02*
D03*
X437545D02*
D03*
X528200Y308940D02*
D03*
X514205D02*
D03*
X528200Y293700D02*
D03*
X514205D02*
D03*
X575343Y272110D02*
D03*
X589338D02*
D03*
X250195Y235000D02*
D03*
X264190D02*
D03*
X264165Y250240D02*
D03*
X250169D02*
D03*
X527715Y323900D02*
D03*
X513720D02*
D03*
D53*
X516288Y274650D02*
D03*
X535617D02*
D03*
D54*
X606734Y149681D02*
D03*
Y58699D02*
D03*
X561726Y149681D02*
D03*
Y58699D02*
D03*
X419841Y41147D02*
D03*
Y132130D02*
D03*
X464850Y41147D02*
D03*
Y132130D02*
D03*
X398810D02*
D03*
Y41147D02*
D03*
X353801Y132130D02*
D03*
Y41147D02*
D03*
X222384Y365861D02*
D03*
Y274879D02*
D03*
X177376Y365861D02*
D03*
Y274879D02*
D03*
D55*
X497060Y64490D02*
D03*
X509760D02*
D03*
X522460D02*
D03*
X535160D02*
D03*
X497060Y116484D02*
D03*
X509760D02*
D03*
X522460D02*
D03*
X535160D02*
D03*
D56*
X44026Y86207D02*
D03*
Y89205D02*
D03*
Y94208D02*
D03*
Y97206D02*
D03*
Y102209D02*
D03*
Y107213D02*
D03*
Y112217D02*
D03*
Y117221D02*
D03*
Y122225D02*
D03*
Y127203D02*
D03*
Y132207D02*
D03*
Y137211D02*
D03*
Y142214D02*
D03*
Y145212D02*
D03*
Y150215D02*
D03*
Y153213D02*
D03*
D57*
X64749Y189940D02*
D03*
X87736Y199440D02*
D03*
X64749Y208940D02*
D03*
D58*
X180982Y181940D02*
D03*
Y194640D02*
D03*
Y207340D02*
D03*
Y220040D02*
D03*
X127338Y181940D02*
D03*
Y194640D02*
D03*
Y207340D02*
D03*
Y220040D02*
D03*
D59*
X261546Y309218D02*
D03*
Y287222D02*
D03*
X245544D02*
D03*
Y309218D02*
D03*
D60*
X418320Y427380D02*
D03*
Y446710D02*
D03*
D61*
X437500Y232750D02*
D03*
X432500D02*
D03*
X427500D02*
D03*
X422500D02*
D03*
X417500D02*
D03*
X412500D02*
D03*
X407500D02*
D03*
X402500D02*
D03*
X397500D02*
D03*
X392500D02*
D03*
X387500D02*
D03*
X382500D02*
D03*
X377500D02*
D03*
X372500D02*
D03*
X367500D02*
D03*
X362500D02*
D03*
X357500D02*
D03*
X352500D02*
D03*
X347500D02*
D03*
X342500D02*
D03*
Y367250D02*
D03*
X347500D02*
D03*
X352500D02*
D03*
X357500D02*
D03*
X362500D02*
D03*
X367500D02*
D03*
X372500D02*
D03*
X377500D02*
D03*
X382500D02*
D03*
X387500D02*
D03*
X392500D02*
D03*
X397500D02*
D03*
X402500D02*
D03*
X407500D02*
D03*
X412500D02*
D03*
X417500D02*
D03*
X422500D02*
D03*
X427500D02*
D03*
X432500D02*
D03*
X437500D02*
D03*
D62*
X322750Y252500D02*
D03*
Y257500D02*
D03*
Y262500D02*
D03*
Y267500D02*
D03*
Y272500D02*
D03*
Y277500D02*
D03*
Y282500D02*
D03*
Y287500D02*
D03*
Y292500D02*
D03*
Y297500D02*
D03*
Y302500D02*
D03*
Y307500D02*
D03*
Y312500D02*
D03*
Y317500D02*
D03*
Y322500D02*
D03*
Y327500D02*
D03*
Y332500D02*
D03*
Y337500D02*
D03*
Y342500D02*
D03*
Y347500D02*
D03*
X457250D02*
D03*
Y342500D02*
D03*
Y337500D02*
D03*
Y332500D02*
D03*
Y327500D02*
D03*
Y322500D02*
D03*
Y317500D02*
D03*
Y312500D02*
D03*
Y307500D02*
D03*
Y302500D02*
D03*
Y297500D02*
D03*
Y292500D02*
D03*
Y287500D02*
D03*
Y282500D02*
D03*
Y277500D02*
D03*
Y272500D02*
D03*
Y267500D02*
D03*
Y262500D02*
D03*
Y257500D02*
D03*
Y252500D02*
D03*
D63*
X732820Y174065D02*
D03*
Y127050D02*
D03*
Y80060D02*
D03*
X130030Y373735D02*
D03*
Y326720D02*
D03*
Y279730D02*
D03*
D64*
X-7460Y63525D02*
D03*
Y175920D02*
D03*
D65*
X32519Y63525D02*
D03*
Y175920D02*
D03*
D66*
X332770Y153720D02*
D03*
X158780Y-16460D02*
D03*
X274350Y458520D02*
D03*
X354360Y456158D02*
D03*
X323880D02*
D03*
X388650Y516940D02*
D03*
X358170D02*
D03*
X485630Y454990D02*
D03*
X495330Y235000D02*
D03*
X481360Y363270D02*
D03*
X850930Y227380D02*
D03*
Y252780D02*
D03*
Y201980D02*
D03*
Y176580D02*
D03*
Y125780D02*
D03*
X852200Y74980D02*
D03*
X850930Y151180D02*
D03*
X419130Y516940D02*
D03*
X606280Y197180D02*
D03*
Y256870D02*
D03*
Y377520D02*
D03*
Y347040D02*
D03*
Y316560D02*
D03*
X544860Y339140D02*
D03*
X606280Y286080D02*
D03*
Y227660D02*
D03*
Y438480D02*
D03*
Y408000D02*
D03*
X92740Y157530D02*
D03*
X607090Y34340D02*
D03*
X656620Y210870D02*
D03*
X182910Y240080D02*
D03*
D67*
X80446Y44043D02*
D03*
X105440D02*
D03*
X130459D02*
D03*
X105440Y-15977D02*
D03*
X130459D02*
D03*
D68*
X80446D02*
D03*
D69*
X314990Y483920D02*
D03*
D70*
X289590D02*
D03*
X264190D02*
D03*
X238790D02*
D03*
D71*
X279430Y576630D02*
D03*
Y551230D02*
D03*
X254030Y576630D02*
D03*
Y551230D02*
D03*
X228630Y576630D02*
D03*
Y551230D02*
D03*
X203230Y576630D02*
D03*
Y551230D02*
D03*
X177830Y576630D02*
D03*
Y551230D02*
D03*
X152430Y576630D02*
D03*
Y551230D02*
D03*
X127030Y576630D02*
D03*
D72*
Y551230D02*
D03*
D73*
X6840Y325450D02*
D03*
Y211150D02*
D03*
Y249250D02*
D03*
Y287350D02*
D03*
D74*
X900500Y0D02*
D03*
Y600000D02*
D03*
X0D02*
D03*
Y0D02*
D03*
D75*
X798860Y49580D02*
D03*
D76*
X824260D02*
D03*
X798860Y74980D02*
D03*
X824260D02*
D03*
X798860Y100380D02*
D03*
X824260D02*
D03*
X798860Y125780D02*
D03*
X824260D02*
D03*
X798860Y151180D02*
D03*
X824260D02*
D03*
X798860Y176580D02*
D03*
X824260D02*
D03*
X798860Y201980D02*
D03*
X824260D02*
D03*
X798860Y227380D02*
D03*
X824260D02*
D03*
X798860Y252780D02*
D03*
X824260D02*
D03*
X798860Y278180D02*
D03*
X824260D02*
D03*
X798860Y303580D02*
D03*
X824260D02*
D03*
X798860Y328980D02*
D03*
X824260D02*
D03*
X798860Y354380D02*
D03*
X824260D02*
D03*
X798860Y379780D02*
D03*
X824260D02*
D03*
X798860Y405180D02*
D03*
X824260D02*
D03*
X798860Y430580D02*
D03*
X824260D02*
D03*
X798860Y455980D02*
D03*
X824260D02*
D03*
X798860Y481380D02*
D03*
X824260D02*
D03*
X798860Y506780D02*
D03*
X824260D02*
D03*
X798860Y532180D02*
D03*
X824260D02*
D03*
D77*
X447040Y378460D02*
D03*
X199420Y235000D02*
D03*
X213676Y415340D02*
D03*
X207485Y397560D02*
D03*
X563910Y256590D02*
D03*
X415320Y381050D02*
D03*
X330230Y68630D02*
D03*
X444530Y281436D02*
D03*
Y294118D02*
D03*
X238824Y363304D02*
D03*
X436944Y466174D02*
D03*
X275620Y377240D02*
D03*
X303560Y356920D02*
D03*
Y334060D02*
D03*
Y341680D02*
D03*
Y349300D02*
D03*
X600740Y453440D02*
D03*
X417860Y354380D02*
D03*
X445008Y342472D02*
D03*
X563910Y407720D02*
D03*
X350550Y354380D02*
D03*
X382300D02*
D03*
X600740Y392480D02*
D03*
X436910Y412800D02*
D03*
X600393Y329830D02*
D03*
X709960Y241350D02*
D03*
X177830Y476300D02*
D03*
X370870Y569010D02*
D03*
X275620Y349300D02*
D03*
X199420Y248970D02*
D03*
X102900Y118160D02*
D03*
X95280D02*
D03*
X54640Y87680D02*
D03*
Y95300D02*
D03*
Y143560D02*
D03*
Y152450D02*
D03*
X72420Y226110D02*
D03*
X82580Y175310D02*
D03*
X97820Y199440D02*
D03*
X166400Y194360D02*
D03*
X120542Y228650D02*
D03*
X166262Y207060D02*
D03*
X425480Y180390D02*
D03*
X382300D02*
D03*
X367060D02*
D03*
X467390Y115620D02*
D03*
X461040D02*
D03*
X367060Y142290D02*
D03*
X374680D02*
D03*
X382300D02*
D03*
X356900Y115620D02*
D03*
X349280D02*
D03*
X392400Y219820D02*
D03*
X397540Y245160D02*
D03*
X322610Y68630D02*
D03*
X335310Y278180D02*
D03*
X309910Y286436D02*
D03*
X237035Y240149D02*
D03*
Y249039D02*
D03*
Y257929D02*
D03*
X356900Y58470D02*
D03*
X349280D02*
D03*
X461040Y59740D02*
D03*
X467390D02*
D03*
X431830Y217220D02*
D03*
X387380Y245160D02*
D03*
X496600Y78790D02*
D03*
X534700D02*
D03*
X522000D02*
D03*
X509349Y78839D02*
D03*
X509300Y101650D02*
D03*
X485170Y165150D02*
D03*
X505490D02*
D03*
X523270Y158800D02*
D03*
X603280Y76250D02*
D03*
X610900D02*
D03*
Y132130D02*
D03*
X603280D02*
D03*
X428020Y245160D02*
D03*
X657890Y290880D02*
D03*
X711230Y287070D02*
D03*
X682020Y270560D02*
D03*
X692180D02*
D03*
X661700Y273100D02*
D03*
X723930Y315010D02*
D03*
X727740Y350570D02*
D03*
X720120D02*
D03*
X712500D02*
D03*
X704880D02*
D03*
X697260D02*
D03*
X689640D02*
D03*
X682020D02*
D03*
X674400D02*
D03*
X666780D02*
D03*
X659160D02*
D03*
X687100Y290880D02*
D03*
X694720D02*
D03*
X711230Y279450D02*
D03*
Y271830D02*
D03*
Y262940D02*
D03*
Y255320D02*
D03*
X717580Y241350D02*
D03*
X699800Y203250D02*
D03*
X692180D02*
D03*
X684560D02*
D03*
X676940D02*
D03*
X692180Y261670D02*
D03*
X682020D02*
D03*
X686871Y266013D02*
D03*
X702340Y248970D02*
D03*
Y241350D02*
D03*
X694720D02*
D03*
X687100D02*
D03*
X626140Y120700D02*
D03*
Y127050D02*
D03*
Y133400D02*
D03*
Y139750D02*
D03*
Y146100D02*
D03*
X335310Y292150D02*
D03*
X358170Y381050D02*
D03*
X363250Y354380D02*
D03*
X367060Y381050D02*
D03*
X358170Y473760D02*
D03*
X388650D02*
D03*
X419130D02*
D03*
X403890Y510590D02*
D03*
X373410D02*
D03*
X342930D02*
D03*
X395000Y386130D02*
D03*
X400080Y354380D02*
D03*
X407700D02*
D03*
X386110Y412800D02*
D03*
X369140Y449665D02*
D03*
X369600Y412800D02*
D03*
X339120Y449630D02*
D03*
X308640D02*
D03*
X387380Y381050D02*
D03*
X392460Y354380D02*
D03*
X444530Y252780D02*
D03*
X475010D02*
D03*
X444530Y262940D02*
D03*
X475010Y265480D02*
D03*
X563910Y377240D02*
D03*
X539797Y354397D02*
D03*
X487710Y303580D02*
D03*
X471200D02*
D03*
X563910Y438200D02*
D03*
X482630Y344220D02*
D03*
X473740Y331436D02*
D03*
X600740Y422960D02*
D03*
Y362000D02*
D03*
X444530Y332790D02*
D03*
X563910Y362000D02*
D03*
X502418Y323900D02*
D03*
X563910Y316280D02*
D03*
X444530Y322630D02*
D03*
X563910Y285800D02*
D03*
X600740Y301040D02*
D03*
X471200Y318820D02*
D03*
X469930Y287070D02*
D03*
X563910Y227380D02*
D03*
X444530Y307390D02*
D03*
X563910Y212140D02*
D03*
X539780Y241350D02*
D03*
Y256590D02*
D03*
X544929Y323900D02*
D03*
X502950Y281990D02*
D03*
X600740Y271830D02*
D03*
Y242620D02*
D03*
Y212140D02*
D03*
X463580Y454847D02*
D03*
X237035Y266607D02*
D03*
X268785Y333780D02*
D03*
M02*
