G04*
G04 #@! TF.GenerationSoftware,Altium Limited,Altium Designer,24.10.1 (45)*
G04*
G04 Layer_Color=65535*
%FSLAX44Y44*%
%MOMM*%
G71*
G04*
G04 #@! TF.SameCoordinates,13D5D41E-7614-45C0-9662-7538BB19D50D*
G04*
G04*
G04 #@! TF.FilePolarity,Positive*
G04*
G01*
G75*
%ADD10C,0.1500*%
%ADD11C,0.2540*%
%ADD12C,0.1524*%
%ADD13C,0.2997*%
%ADD14C,0.6000*%
%ADD15C,0.2500*%
%ADD16C,0.1499*%
%ADD17C,0.2007*%
%ADD18C,0.0762*%
%ADD19C,0.2000*%
%ADD20C,0.1778*%
G36*
X-18077Y329158D02*
X-17671Y328879D01*
X-13861Y325069D01*
D01*
X-13582Y324663D01*
X-13480Y324180D01*
X-13582Y323697D01*
X-13861Y323266D01*
X-17671Y319456D01*
X-18077Y319202D01*
X-18585Y319100D01*
X-19068Y319202D01*
X-19474Y319456D01*
X-19754Y319887D01*
X-19855Y320370D01*
X-19754Y320853D01*
X-19474Y321259D01*
X-17823Y322910D01*
X-28745D01*
X-29228Y323012D01*
X-29634Y323266D01*
X-29914Y323697D01*
X-30015Y324180D01*
X-29914Y324663D01*
X-29634Y325069D01*
X-29228Y325348D01*
X-28745Y325450D01*
X-17823D01*
X-19474Y327076D01*
X-19754Y327507D01*
X-19855Y327990D01*
X-19754Y328473D01*
X-19474Y328879D01*
X-19068Y329158D01*
X-18585Y329260D01*
X-18077Y329158D01*
D02*
G37*
G36*
X-12997Y338048D02*
X-12591Y337769D01*
X-10051Y335229D01*
X-9772Y334823D01*
X-9695Y334340D01*
Y333070D01*
Y316560D01*
X-9772Y316077D01*
X-10051Y315646D01*
X-12591Y313106D01*
X-12997Y312852D01*
X-13505Y312750D01*
X-27475D01*
X-27958Y312852D01*
X-28364Y313106D01*
X-28644Y313537D01*
X-28745Y314020D01*
X-28644Y314503D01*
X-28364Y314909D01*
X-27958Y315188D01*
X-27475Y315290D01*
X-14013D01*
X-12235Y317068D01*
Y333070D01*
Y333807D01*
X-14013Y335610D01*
X-27475D01*
X-27958Y335712D01*
X-28364Y335966D01*
X-28644Y336397D01*
X-28745Y336880D01*
X-28644Y337363D01*
X-28364Y337769D01*
X-27958Y338048D01*
X-27475Y338150D01*
X-13505D01*
X-12997Y338048D01*
D02*
G37*
G36*
X-18077Y291058D02*
X-17671Y290779D01*
X-13861Y286969D01*
D01*
X-13582Y286563D01*
X-13480Y286080D01*
X-13582Y285597D01*
X-13861Y285166D01*
X-17671Y281356D01*
X-18077Y281102D01*
X-18585Y281000D01*
X-19068Y281102D01*
X-19474Y281356D01*
X-19754Y281787D01*
X-19855Y282270D01*
X-19754Y282753D01*
X-19474Y283159D01*
X-17823Y284810D01*
X-28745D01*
X-29228Y284912D01*
X-29634Y285166D01*
X-29914Y285597D01*
X-30015Y286080D01*
X-29914Y286563D01*
X-29634Y286969D01*
X-29228Y287248D01*
X-28745Y287350D01*
X-17823D01*
X-19474Y288976D01*
X-19754Y289407D01*
X-19855Y289890D01*
X-19754Y290373D01*
X-19474Y290779D01*
X-19068Y291058D01*
X-18585Y291160D01*
X-18077Y291058D01*
D02*
G37*
G36*
X-12997Y299948D02*
X-12591Y299669D01*
X-10051Y297129D01*
X-9772Y296723D01*
X-9695Y296240D01*
Y294970D01*
Y278460D01*
X-9772Y277977D01*
X-10051Y277546D01*
X-12591Y275006D01*
X-12997Y274752D01*
X-13505Y274650D01*
X-27475D01*
X-27958Y274752D01*
X-28364Y275006D01*
X-28644Y275437D01*
X-28745Y275920D01*
X-28644Y276403D01*
X-28364Y276809D01*
X-27958Y277088D01*
X-27475Y277190D01*
X-14013D01*
X-12235Y278968D01*
Y294970D01*
Y295707D01*
X-14013Y297510D01*
X-27475D01*
X-27958Y297612D01*
X-28364Y297866D01*
X-28644Y298297D01*
X-28745Y298780D01*
X-28644Y299263D01*
X-28364Y299669D01*
X-27958Y299948D01*
X-27475Y300050D01*
X-13505D01*
X-12997Y299948D01*
D02*
G37*
G36*
X-18077Y252958D02*
X-17671Y252679D01*
X-13861Y248869D01*
D01*
X-13582Y248463D01*
X-13480Y247980D01*
X-13582Y247497D01*
X-13861Y247066D01*
X-17671Y243256D01*
X-18077Y243002D01*
X-18585Y242900D01*
X-19068Y243002D01*
X-19474Y243256D01*
X-19754Y243687D01*
X-19855Y244170D01*
X-19754Y244653D01*
X-19474Y245059D01*
X-17823Y246710D01*
X-28745D01*
X-29228Y246812D01*
X-29634Y247066D01*
X-29914Y247497D01*
X-30015Y247980D01*
X-29914Y248463D01*
X-29634Y248869D01*
X-29228Y249148D01*
X-28745Y249250D01*
X-17823D01*
X-19474Y250876D01*
X-19754Y251307D01*
X-19855Y251790D01*
X-19754Y252273D01*
X-19474Y252679D01*
X-19068Y252958D01*
X-18585Y253060D01*
X-18077Y252958D01*
D02*
G37*
G36*
X-12997Y261848D02*
X-12591Y261569D01*
X-10051Y259029D01*
X-9772Y258623D01*
X-9695Y258140D01*
Y256870D01*
Y240360D01*
X-9772Y239877D01*
X-10051Y239446D01*
X-12591Y236906D01*
X-12997Y236652D01*
X-13505Y236550D01*
X-27475D01*
X-27958Y236652D01*
X-28364Y236906D01*
X-28644Y237337D01*
X-28745Y237820D01*
X-28644Y238303D01*
X-28364Y238709D01*
X-27958Y238988D01*
X-27475Y239090D01*
X-14013D01*
X-12235Y240868D01*
Y256870D01*
Y257607D01*
X-14013Y259410D01*
X-27475D01*
X-27958Y259512D01*
X-28364Y259766D01*
X-28644Y260197D01*
X-28745Y260680D01*
X-28644Y261163D01*
X-28364Y261569D01*
X-27958Y261848D01*
X-27475Y261950D01*
X-13505D01*
X-12997Y261848D01*
D02*
G37*
G36*
X-18077Y214858D02*
X-17671Y214579D01*
X-13861Y210769D01*
D01*
X-13582Y210363D01*
X-13480Y209880D01*
X-13582Y209397D01*
X-13861Y208966D01*
X-17671Y205156D01*
X-18077Y204902D01*
X-18585Y204800D01*
X-19068Y204902D01*
X-19474Y205156D01*
X-19754Y205587D01*
X-19855Y206070D01*
X-19754Y206553D01*
X-19474Y206959D01*
X-17823Y208610D01*
X-28745D01*
X-29228Y208712D01*
X-29634Y208966D01*
X-29914Y209397D01*
X-30015Y209880D01*
X-29914Y210363D01*
X-29634Y210769D01*
X-29228Y211048D01*
X-28745Y211150D01*
X-17823D01*
X-19474Y212776D01*
X-19754Y213207D01*
X-19855Y213690D01*
X-19754Y214173D01*
X-19474Y214579D01*
X-19068Y214858D01*
X-18585Y214960D01*
X-18077Y214858D01*
D02*
G37*
G36*
X-12997Y223748D02*
X-12591Y223469D01*
X-10051Y220929D01*
X-9772Y220523D01*
X-9695Y220040D01*
Y218770D01*
Y202260D01*
X-9772Y201777D01*
X-10051Y201346D01*
X-12591Y198806D01*
X-12997Y198552D01*
X-13505Y198450D01*
X-27475D01*
X-27958Y198552D01*
X-28364Y198806D01*
X-28644Y199237D01*
X-28745Y199720D01*
X-28644Y200203D01*
X-28364Y200609D01*
X-27958Y200888D01*
X-27475Y200990D01*
X-14013D01*
X-12235Y202768D01*
Y218770D01*
Y219507D01*
X-14013Y221310D01*
X-27475D01*
X-27958Y221412D01*
X-28364Y221666D01*
X-28644Y222097D01*
X-28745Y222580D01*
X-28644Y223063D01*
X-28364Y223469D01*
X-27958Y223748D01*
X-27475Y223850D01*
X-13505D01*
X-12997Y223748D01*
D02*
G37*
G36*
X661014Y48818D02*
X653877D01*
Y53390D01*
X661014D01*
Y48818D01*
D02*
G37*
G36*
X628909D02*
X621771D01*
Y53390D01*
X628909D01*
Y48818D01*
D02*
G37*
D10*
X684009Y624655D02*
G03*
X684373Y624764I-85J948D01*
G01*
X683537Y624673D02*
G03*
X684009Y624655I305J1843D01*
G01*
X682613Y624845D02*
G03*
X683537Y624673I4816J23315D01*
G01*
X682613Y624845D02*
G03*
X681671Y625019I-4606J-22301D01*
G01*
D02*
G03*
X681189Y625031I-286J-1751D01*
G01*
D02*
G03*
X680796Y624908I120J-1074D01*
G01*
Y624908D02*
G03*
X680275Y624585I2342J-4344D01*
G01*
X679870Y624332D02*
G03*
X680275Y624585I-1855J3426D01*
G01*
X679507Y624183D02*
G03*
X679870Y624332I-502J1747D01*
G01*
X679165Y624131D02*
G03*
X679507Y624183I-32J1356D01*
G01*
X678827Y624169D02*
G03*
X679165Y624131I307J1224D01*
G01*
X678827Y624169D02*
G03*
X677963Y624231I-608J-2422D01*
G01*
D02*
G03*
X676574Y624024I1605J-15589D01*
G01*
X676574Y624024D02*
G03*
X675081Y623661I3142J-16139D01*
G01*
X675081Y623661D02*
G03*
X673792Y623188I2965J-10092D01*
G01*
Y623188D02*
G03*
X671475Y621683I3509J-7935D01*
G01*
D02*
G03*
X669877Y619586I4854J-5356D01*
G01*
D02*
G03*
X669030Y616872I7710J-3896D01*
G01*
X669030D02*
G03*
X668922Y613550I15754J-2176D01*
G01*
X668961Y611795D02*
G03*
X668922Y613550I-17664J482D01*
G01*
X668796Y610347D02*
G03*
X668961Y611795I-8297J1679D01*
G01*
X668377Y608895D02*
G03*
X668796Y610347I-8664J3289D01*
G01*
X667620Y607118D02*
G03*
X668377Y608895I-22009J10421D01*
G01*
X666850Y605783D02*
G03*
X667620Y607118I-7833J5409D01*
G01*
X665830Y604501D02*
G03*
X666850Y605783I-8946J8163D01*
G01*
X664753Y603475D02*
G03*
X665830Y604501I-6803J8217D01*
G01*
X663830Y602964D02*
G03*
X664753Y603475I-892J2704D01*
G01*
X663388Y602856D02*
G03*
X663830Y602964I-454J2821D01*
G01*
X662802Y602784D02*
G03*
X663388Y602856I-687J7983D01*
G01*
X662177Y602753D02*
G03*
X662802Y602784I-115J8631D01*
G01*
X661608Y602773D02*
G03*
X662177Y602753I490J5908D01*
G01*
X660119Y603130D02*
G03*
X661608Y602773I1903J4646D01*
G01*
X658843Y603916D02*
G03*
X660119Y603130I3030J3494D01*
G01*
X657257Y605518D02*
G03*
X658843Y603916I11262J9556D01*
G01*
X654198Y609199D02*
G03*
X657257Y605518I184457J150233D01*
G01*
X652888Y610961D02*
G03*
X654198Y609199I20483J13854D01*
G01*
X651803Y612756D02*
G03*
X652888Y610961I18151J9747D01*
G01*
X651019Y614432D02*
G03*
X651803Y612756I15469J6210D01*
G01*
X650643Y615818D02*
G03*
X651019Y614432I6112J917D01*
G01*
X648786Y615370D02*
G03*
X648136Y614745I57478J-60553D01*
G01*
D02*
G03*
X647575Y614192I33864J-34914D01*
G01*
D02*
G03*
X647101Y613714I69031J-68903D01*
G01*
Y613714D02*
G03*
X647026Y613606I274J-269D01*
G01*
X647026Y613606D02*
G03*
X647043Y613490I98J-45D01*
G01*
D02*
G03*
X647785Y612643I119192J103631D01*
G01*
D02*
G03*
X648660Y611675I37962J33485D01*
G01*
D02*
G03*
X649715Y610558I70948J65907D01*
G01*
X651142Y609069D02*
G03*
X649715Y610558I-2482124J-2377457D01*
G01*
X653273Y606843D02*
G03*
X651142Y609069I-11841654J-11337825D01*
G01*
X655651Y604360D02*
G03*
X653273Y606843I-13212026J-12645121D01*
G01*
X657947Y601960D02*
G03*
X655651Y604360I-11537021J-11037421D01*
G01*
X660256Y596174D02*
G03*
X658724Y596125I1825J-80924D01*
G01*
X658724Y596125D02*
G03*
X657820Y596050I456J-10987D01*
G01*
X657820D02*
G03*
X657285Y595948I532J-4267D01*
G01*
D02*
G03*
X657200Y595793I30J-118D01*
G01*
X657200Y595793D02*
G03*
X657299Y595668I218J71D01*
G01*
Y595668D02*
G03*
X657538Y595551I778J1288D01*
G01*
D02*
G03*
X657853Y595458I744J1938D01*
G01*
D02*
G03*
X658207Y595406I602J2849D01*
G01*
X658595Y595338D02*
G03*
X658207Y595406I-577J-2156D01*
G01*
X658988Y595201D02*
G03*
X658595Y595338I-1120J-2580D01*
G01*
X659337Y595017D02*
G03*
X658988Y595201I-1369J-2166D01*
G01*
X659585Y594808D02*
G03*
X659337Y595017I-889J-804D01*
G01*
X659862Y594228D02*
G03*
X659585Y594808I-1111J-176D01*
G01*
X659986Y593034D02*
G03*
X659862Y594228I-11259J-564D01*
G01*
X660045Y590851D02*
G03*
X659986Y593034I-47585J-198D01*
G01*
X660056Y585401D02*
G03*
X660045Y590851I-1307531J1D01*
G01*
X659165Y575844D02*
G03*
X659457Y576030I-671J1376D01*
G01*
X658780Y575687D02*
G03*
X659165Y575844I-985J2964D01*
G01*
X658370Y575580D02*
G03*
X658780Y575687I-608J3173D01*
G01*
X657996Y575544D02*
G03*
X658370Y575580I0J1983D01*
G01*
X657996Y575544D02*
G03*
X657666Y575526I0J-2960D01*
G01*
D02*
G03*
X657388Y575470I181J-1611D01*
G01*
D02*
G03*
X657193Y575388I276J-934D01*
G01*
Y575388D02*
G03*
X657135Y575290I54J-98D01*
G01*
D02*
G03*
X657252Y575169I121J0D01*
G01*
Y575169D02*
G03*
X659477Y575101I13449J402677D01*
G01*
Y575101D02*
G03*
X662301Y575051I3893J139666D01*
G01*
D02*
G03*
X666246Y575036I3947J515339D01*
G01*
X675780Y578355D02*
G03*
X675655Y577386I231621J-30353D01*
G01*
X675909Y579325D02*
G03*
X675780Y578355I232383J-31437D01*
G01*
X676025Y580171D02*
G03*
X675909Y579325I207468J-28930D01*
G01*
X676102Y580688D02*
G03*
X676025Y580171I31327J-4895D01*
G01*
X676101Y580688D02*
G03*
X676160Y581464I-4828J754D01*
G01*
X676160D02*
G03*
X675965Y581580I-132J-1D01*
G01*
D02*
G03*
X675611Y581229I413J-770D01*
G01*
D02*
G03*
X675045Y580121I20132J-11001D01*
G01*
X674381Y578914D02*
G03*
X675045Y580121I-10288J6442D01*
G01*
X673698Y578049D02*
G03*
X674381Y578914I-3591J3541D01*
G01*
X672871Y577386D02*
G03*
X673698Y578049I-2434J3879D01*
G01*
X671771Y576801D02*
G03*
X672871Y577386I-3498J7911D01*
G01*
X670320Y576340D02*
G03*
X671771Y576801I-1388J6882D01*
G01*
X668530Y576100D02*
G03*
X670320Y576340I-933J13746D01*
G01*
X666855Y576091D02*
G03*
X668530Y576100I766J13389D01*
G01*
X665908Y576403D02*
G03*
X666855Y576091I1057J1613D01*
G01*
X666451Y584952D02*
G03*
X666089Y585031I-1387J-5473D01*
G01*
X666856Y584840D02*
G03*
X666451Y584952I-2708J-8978D01*
G01*
X667242Y584713D02*
G03*
X666856Y584840I-2978J-8467D01*
G01*
X667542Y584593D02*
G03*
X667242Y584713I-1496J-3282D01*
G01*
X668114Y584157D02*
G03*
X667542Y584593I-1249J-1048D01*
G01*
X668703Y583325D02*
G03*
X668114Y584157I-5304J-3124D01*
G01*
X669190Y582321D02*
G03*
X668703Y583325I-6480J-2526D01*
G01*
X669464Y581329D02*
G03*
X669190Y582321I-4976J-841D01*
G01*
X669464Y581329D02*
G03*
X669711Y580468I3931J664D01*
G01*
D02*
G03*
X669919Y580489I101J42D01*
G01*
Y580489D02*
G03*
X670059Y581738I-6983J1413D01*
G01*
X670059D02*
G03*
X670089Y584419I-116464J2681D01*
G01*
X670104Y586081D02*
G03*
X670089Y584419I93121J-1662D01*
G01*
X670150Y587479D02*
G03*
X670104Y586081I47051J-2239D01*
G01*
X670212Y588673D02*
G03*
X670150Y587479I135325J-7635D01*
G01*
X670296Y588752D02*
G03*
X670212Y588673I0J-84D01*
G01*
X670678Y588588D02*
G03*
X670296Y588752I-382J-364D01*
G01*
X678436Y580443D02*
G03*
X670678Y588588I-13857030J-13189974D01*
G01*
X686182Y572300D02*
G03*
X678436Y580443I-13222388J-12570371D01*
G01*
X686345Y571891D02*
G03*
X686182Y572300I-594J0D01*
G01*
X686290Y571828D02*
G03*
X686345Y571891I-7J63D01*
G01*
X685823Y571780D02*
G03*
X686290Y571828I-1407J15983D01*
G01*
X685249Y571745D02*
G03*
X685823Y571780I-347J10490D01*
G01*
X684567Y571734D02*
G03*
X685249Y571745I0J20643D01*
G01*
X684567Y571734D02*
G03*
X683410Y571697I-0J-18169D01*
G01*
Y571697D02*
G03*
X682868Y571539I82J-1290D01*
G01*
Y571539D02*
G03*
X682877Y571344I53J-96D01*
G01*
Y571344D02*
G03*
X683502Y571147I1223J2794D01*
G01*
X684210Y570716D02*
G03*
X683502Y571147I-945J-757D01*
G01*
X684947Y569594D02*
G03*
X684210Y570716I-6323J-3349D01*
G01*
X685998Y567410D02*
G03*
X684947Y569594I-28976J-12604D01*
G01*
X688235Y562209D02*
G03*
X685998Y567410I-643514J-273736D01*
G01*
X688235Y562209D02*
G03*
X689324Y559657I1564418J665458D01*
G01*
D02*
G03*
X690359Y557239I1262219J539363D01*
G01*
D02*
G03*
X691238Y555198I1215542J522159D01*
G01*
D02*
G03*
X691673Y554208I83715J36129D01*
G01*
X691986Y553496D02*
G03*
X691673Y554208I-73444J-31880D01*
G01*
X692318Y552721D02*
G03*
X691986Y553496I-101620J-43194D01*
G01*
X692622Y551999D02*
G03*
X692318Y552721I-93805J-39022D01*
G01*
X692838Y551465D02*
G03*
X692622Y551999I-28167J-11093D01*
G01*
X692838Y551465D02*
G03*
X693049Y550995I5242J2065D01*
G01*
X693049D02*
G03*
X693258Y550671I1628J820D01*
G01*
D02*
G03*
X693462Y550487I672J542D01*
G01*
D02*
G03*
X693658Y550449I145J224D01*
G01*
D02*
G03*
X693883Y550612I-63J324D01*
G01*
D02*
G03*
X694488Y551728I-47865J26692D01*
G01*
D02*
G03*
X695199Y553146I-33472J17662D01*
G01*
X695199D02*
G03*
X696025Y554936I-80615J38308D01*
G01*
X696793Y556636D02*
G03*
X696025Y554936I347945J-158059D01*
G01*
X697459Y558088D02*
G03*
X696793Y556636I187375J-86878D01*
G01*
X698050Y559360D02*
G03*
X697459Y558088I755219J-351696D01*
G01*
X698129Y559472D02*
G03*
X698050Y559360I278J-278D01*
G01*
X698304Y559472D02*
G03*
X698129Y559472I-88J-87D01*
G01*
X700035Y557710D02*
G03*
X698304Y559472I-346330J-338612D01*
G01*
X702727Y554924D02*
G03*
X700035Y557710I-235973J-225299D01*
G01*
X708677Y548684D02*
G03*
X702727Y554924I-4473265J-4258985D01*
G01*
X708677Y548684D02*
G03*
X710468Y546809I509226J484830D01*
G01*
D02*
G03*
X711992Y545230I260893J250238D01*
G01*
D02*
G03*
X713361Y543821I2753955J2673687D01*
G01*
D02*
G03*
X713424Y543794I63J61D01*
G01*
D02*
G03*
X713457Y543829I0J33D01*
G01*
X713457D02*
G03*
X713443Y544234I-27911J-801D01*
G01*
X713443D02*
G03*
X713412Y544718I-12691J-549D01*
G01*
D02*
G03*
X713359Y545293I-25325J-2067D01*
G01*
X713318Y545923D02*
G03*
X713359Y545293I8024J204D01*
G01*
X713325Y546573D02*
G03*
X713318Y545923I8995J-421D01*
G01*
X713373Y547153D02*
G03*
X713325Y546573I7838J-948D01*
G01*
X713464Y547543D02*
G03*
X713373Y547153I1764J-615D01*
G01*
X713464Y547543D02*
G03*
X713586Y548179I-2090J729D01*
G01*
D02*
G03*
X713547Y548937I-4121J173D01*
G01*
D02*
G03*
X713334Y550014I-10142J-1453D01*
G01*
Y550014D02*
G03*
X712853Y551806I-73028J-18611D01*
G01*
X712671Y552551D02*
G03*
X712853Y551806I11165J2344D01*
G01*
X712621Y553056D02*
G03*
X712671Y552551I2326J-27D01*
G01*
X712684Y553538D02*
G03*
X712621Y553056I1985J-505D01*
G01*
X712881Y554188D02*
G03*
X712684Y553538I7119J-2512D01*
G01*
X712881Y554188D02*
G03*
X713142Y555093I-7519J2653D01*
G01*
D02*
G03*
X713254Y555918I-4756J1068D01*
G01*
D02*
G03*
X713221Y556564I-3208J160D01*
G01*
D02*
G03*
X713015Y556875I-440J-67D01*
G01*
X712800Y557192D02*
G03*
X713015Y556875I462J82D01*
G01*
X712786Y557751D02*
G03*
X712800Y557192I1838J-234D01*
G01*
X712960Y558445D02*
G03*
X712786Y557751I2832J-1076D01*
G01*
X713307Y559167D02*
G03*
X712960Y558445I4065J-2399D01*
G01*
X713307Y559167D02*
G03*
X713624Y559750I-8376J4942D01*
G01*
D02*
G03*
X713716Y560086I-788J395D01*
G01*
X713716D02*
G03*
X713667Y560419I-792J54D01*
G01*
X713667D02*
G03*
X713429Y560977I-6663J-2506D01*
G01*
X713279Y561335D02*
G03*
X713429Y560977I3774J1370D01*
G01*
X713178Y561679D02*
G03*
X713279Y561335I2839J650D01*
G01*
X713131Y561967D02*
G03*
X713178Y561679I2284J224D01*
G01*
X713167Y562122D02*
G03*
X713131Y561967I212J-131D01*
G01*
X713167Y562122D02*
G03*
X713268Y562566I-599J370D01*
G01*
X713268D02*
G03*
X713018Y564798I-154343J-16207D01*
G01*
D02*
G03*
X712733Y566912I-70901J-8484D01*
G01*
D02*
G03*
X712472Y567935I-5183J-778D01*
G01*
X712386Y568290D02*
G03*
X712472Y567935I1573J190D01*
G01*
X712384Y568657D02*
G03*
X712386Y568290I1623J-172D01*
G01*
X712467Y569069D02*
G03*
X712384Y568657I2122J-645D01*
G01*
X712644Y569559D02*
G03*
X712467Y569069I4781J-1997D01*
G01*
X712644Y569559D02*
G03*
X712891Y570421I-3540J1479D01*
G01*
X712891D02*
G03*
X712867Y571178I-1953J318D01*
G01*
X712867D02*
G03*
X712557Y571906I-2158J-490D01*
G01*
D02*
G03*
X711933Y572685I-4557J-3005D01*
G01*
X711502Y573185D02*
G03*
X711933Y572685I4834J3736D01*
G01*
X711286Y573582D02*
G03*
X711502Y573185I1333J467D01*
G01*
X711200Y574040D02*
G03*
X711286Y573582I1549J55D01*
G01*
X711206Y574759D02*
G03*
X711200Y574040I8145J-432D01*
G01*
X711206Y574759D02*
G03*
X711171Y575681I-5020J267D01*
G01*
D02*
G03*
X710964Y576534I-4085J-537D01*
G01*
Y576534D02*
G03*
X710604Y577262I-3316J-1188D01*
G01*
Y577262D02*
G03*
X710111Y577816I-2063J-1338D01*
G01*
X709936Y578042D02*
G03*
X710111Y577816I599J285D01*
G01*
X709812Y578390D02*
G03*
X709936Y578042I1741J422D01*
G01*
X709737Y578859D02*
G03*
X709812Y578390I2993J238D01*
G01*
X709713Y579459D02*
G03*
X709737Y578859I7565J-0D01*
G01*
X709713Y579459D02*
G03*
X709679Y580069I-5479J0D01*
G01*
D02*
G03*
X709577Y580686I-5925J-665D01*
G01*
X709577D02*
G03*
X709416Y581266I-5438J-1197D01*
G01*
X709416D02*
G03*
X709205Y581767I-3514J-1183D01*
G01*
X709011Y582191D02*
G03*
X709205Y581767I5179J2117D01*
G01*
X708847Y582642D02*
G03*
X709011Y582191I5944J1912D01*
G01*
X708732Y583055D02*
G03*
X708847Y582642I5317J1260D01*
G01*
X708697Y583346D02*
G03*
X708732Y583055I1264J0D01*
G01*
X708697Y583346D02*
G03*
X708651Y583611I-769J0D01*
G01*
Y583611D02*
G03*
X708505Y583926I-1956J-715D01*
G01*
D02*
G03*
X708292Y584238I-2075J-1181D01*
G01*
D02*
G03*
X708041Y584499I-1574J-1262D01*
G01*
X707680Y584866D02*
G03*
X708041Y584499I2507J2104D01*
G01*
X707515Y585185D02*
G03*
X707680Y584866I795J210D01*
G01*
X707475Y585601D02*
G03*
X707515Y585185I1297J-84D01*
G01*
X707547Y586369D02*
G03*
X707475Y585601I12835J-1601D01*
G01*
X707547Y586369D02*
G03*
X707629Y587203I-15771J1967D01*
G01*
X707629D02*
G03*
X707571Y587570I-819J58D01*
G01*
X707571Y587570D02*
G03*
X707361Y587839I-573J-232D01*
G01*
Y587839D02*
G03*
X706806Y588202I-4140J-5714D01*
G01*
X706366Y588498D02*
G03*
X706806Y588202I2773J3658D01*
G01*
X706096Y588772D02*
G03*
X706366Y588498I1074J786D01*
G01*
X705950Y589073D02*
G03*
X706096Y588772I894J247D01*
G01*
X705900Y589442D02*
G03*
X705950Y589073I1416J8D01*
G01*
X705900Y589442D02*
G03*
X705884Y589735I-3073J-17D01*
G01*
D02*
G03*
X705840Y590030I-3275J-332D01*
G01*
X705840D02*
G03*
X705778Y590287I-2789J-541D01*
G01*
X705778D02*
G03*
X705704Y590451I-614J-180D01*
G01*
D02*
G03*
X705386Y590748I-734J-466D01*
G01*
D02*
G03*
X704772Y591024I-2148J-3949D01*
G01*
D02*
G03*
X704056Y591225I-1701J-4687D01*
G01*
X704056D02*
G03*
X703386Y591292I-671J-3325D01*
G01*
X703026Y591347D02*
G03*
X703386Y591292I360J1153D01*
G01*
X702634Y591512D02*
G03*
X703026Y591347I1053J1950D01*
G01*
X702220Y591782D02*
G03*
X702634Y591512I1841J2374D01*
G01*
X701795Y592151D02*
G03*
X702220Y591782I3534J3639D01*
G01*
X701795Y592151D02*
G03*
X701298Y592577I-3639J-3747D01*
G01*
D02*
G03*
X700821Y592865I-1661J-2206D01*
G01*
D02*
G03*
X700286Y593058I-1245J-2622D01*
G01*
D02*
G03*
X699609Y593190I-1529J-6056D01*
G01*
X698879Y593320D02*
G03*
X699609Y593190I1965J8850D01*
G01*
X698446Y593489D02*
G03*
X698879Y593320I765J1326D01*
G01*
X698125Y593763D02*
G03*
X698446Y593489I901J732D01*
G01*
X697796Y594235D02*
G03*
X698125Y593763I3326J1962D01*
G01*
X697796Y594235D02*
G03*
X697576Y594567I-3339J-1970D01*
G01*
D02*
G03*
X697339Y594849I-2276J-1680D01*
G01*
D02*
G03*
X697117Y595050I-1579J-1519D01*
G01*
X697117D02*
G03*
X696958Y595106I-161J-205D01*
G01*
X696807Y595124D02*
G03*
X696958Y595106I160J696D01*
G01*
X696619Y595178D02*
G03*
X696807Y595124I610J1782D01*
G01*
X696427Y595254D02*
G03*
X696619Y595178I851J1850D01*
G01*
X696261Y595345D02*
G03*
X696427Y595254I761J1202D01*
G01*
X696086Y595491D02*
G03*
X696262Y595345I641J589D01*
G01*
X696042Y595631D02*
G03*
X696086Y595491I170J-23D01*
G01*
X696115Y595805D02*
G03*
X696042Y595631I288J-223D01*
G01*
X696364Y596103D02*
G03*
X696115Y595805I3783J-3424D01*
G01*
X696781Y596479D02*
G03*
X696364Y596103I1655J-2252D01*
G01*
X697137Y596598D02*
G03*
X696781Y596479I8J-613D01*
G01*
X697489Y596487D02*
G03*
X697137Y596598I-345J-482D01*
G01*
X697899Y596122D02*
G03*
X697489Y596487I-1910J-1729D01*
G01*
X697899Y596122D02*
G03*
X698137Y595908I1160J1050D01*
G01*
D02*
G03*
X698386Y595778I555J761D01*
G01*
D02*
G03*
X698653Y595732I278J811D01*
G01*
D02*
G03*
X698940Y595765I15J1119D01*
G01*
X699214Y595796D02*
G03*
X698940Y595765I-26J-1018D01*
G01*
X699522Y595758D02*
G03*
X699214Y595796I-349J-1597D01*
G01*
X699828Y595661D02*
G03*
X699521Y595758I-679J-1606D01*
G01*
X700096Y595513D02*
G03*
X699828Y595661I-835J-1192D01*
G01*
X700096Y595513D02*
G03*
X700516Y595315I780J1114D01*
G01*
D02*
G03*
X701069Y595220I764J2774D01*
G01*
D02*
G03*
X701904Y595204I557J7601D01*
G01*
D02*
G03*
X703349Y595274I-2233J61198D01*
G01*
Y595274D02*
G03*
X704484Y595364I-1787J29705D01*
G01*
Y595364D02*
G03*
X705450Y595490I-1564J15844D01*
G01*
D02*
G03*
X706207Y595636I-1958J12169D01*
G01*
Y595636D02*
G03*
X706585Y595795I-257J1138D01*
G01*
X706887Y595959D02*
G03*
X706585Y595795I887J-1998D01*
G01*
X707138Y596020D02*
G03*
X706887Y595959I43J-724D01*
G01*
X707389Y595988D02*
G03*
X707138Y596020I-210J-650D01*
G01*
X707688Y595860D02*
G03*
X707389Y595988I-858J-1602D01*
G01*
X707688Y595860D02*
G03*
X708301Y595680I742J1387D01*
G01*
D02*
G03*
X708907Y595771I110J1332D01*
G01*
Y595771D02*
G03*
X709477Y596144I-640J1599D01*
G01*
D02*
G03*
X709984Y596779I-2397J2430D01*
G01*
X710347Y597316D02*
G03*
X709984Y596779I6187J-4586D01*
G01*
X710611Y597536D02*
G03*
X710347Y597316I322J-653D01*
G01*
X710936Y597602D02*
G03*
X710611Y597536I-36J-654D01*
G01*
X711526Y597539D02*
G03*
X710936Y597602I-900J-5625D01*
G01*
X711526Y597539D02*
G03*
X712042Y597484I772J4828D01*
G01*
D02*
G03*
X712408Y597518I68J1286D01*
G01*
X712408D02*
G03*
X712710Y597647I-222J932D01*
G01*
D02*
G03*
X713013Y597893I-1032J1581D01*
G01*
D02*
G03*
X713208Y598116I-1636J1636D01*
G01*
X713208Y598116D02*
G03*
X713373Y598361I-1823J1407D01*
G01*
Y598361D02*
G03*
X713489Y598592I-1651J965D01*
G01*
D02*
G03*
X713523Y598767I-420J174D01*
G01*
X713654Y599207D02*
G03*
X713523Y598767I676J-440D01*
G01*
X714022Y599585D02*
G03*
X713654Y599207I771J-1119D01*
G01*
X714569Y599841D02*
G03*
X714022Y599585I492J-1764D01*
G01*
X715209Y599928D02*
G03*
X714569Y599841I0J-2385D01*
G01*
X715209Y599928D02*
G03*
X715997Y600003I0J4178D01*
G01*
Y600003D02*
G03*
X716606Y600231I-366J1908D01*
G01*
Y600231D02*
G03*
X717139Y600662I-1119J1927D01*
G01*
Y600662D02*
G03*
X717698Y601373I-4827J4370D01*
G01*
D02*
G03*
X718083Y601971I-12134J8245D01*
G01*
D02*
G03*
X718181Y602261I-594J363D01*
G01*
D02*
G03*
X718128Y602527I-453J47D01*
G01*
D02*
G03*
X717863Y602954I-3880J-2117D01*
G01*
X717673Y603247D02*
G03*
X717863Y602954I3908J2323D01*
G01*
X717484Y603587D02*
G03*
X717673Y603247I6106J3178D01*
G01*
X717323Y603918D02*
G03*
X717484Y603587I5883J2647D01*
G01*
X717222Y604185D02*
G03*
X717323Y603918I2238J695D01*
G01*
X717222Y604185D02*
G03*
X717081Y604467I-934J-290D01*
G01*
D02*
G03*
X716768Y604864I-4818J-3471D01*
G01*
X716768D02*
G03*
X716369Y605292I-5277J-4532D01*
G01*
X716369D02*
G03*
X715929Y605691I-5156J-5243D01*
G01*
X715469Y606117D02*
G03*
X715929Y605691I4372J4254D01*
G01*
X715079Y606569D02*
G03*
X715469Y606117I3981J3041D01*
G01*
X714791Y607002D02*
G03*
X715079Y606569I3449J1982D01*
G01*
X714651Y607363D02*
G03*
X714791Y607002I1243J273D01*
G01*
X714651Y607363D02*
G03*
X714528Y607706I-1383J-304D01*
G01*
D02*
G03*
X714313Y608036I-1724J-884D01*
G01*
D02*
G03*
X714020Y608337I-1717J-1383D01*
G01*
D02*
G03*
X713662Y608591I-1678J-1984D01*
G01*
X713294Y608860D02*
G03*
X713662Y608591I1541J1717D01*
G01*
X712952Y609219D02*
G03*
X713294Y608860I2483J2027D01*
G01*
X712659Y609639D02*
G03*
X712952Y609219I2925J1730D01*
G01*
X712439Y610089D02*
G03*
X712659Y609639I2927J1150D01*
G01*
X712439Y610089D02*
G03*
X712237Y610513I-3127J-1229D01*
G01*
D02*
G03*
X711987Y610883I-2421J-1366D01*
G01*
D02*
G03*
X711715Y611167I-1724J-1379D01*
G01*
D02*
G03*
X711449Y611327I-581J-666D01*
G01*
X711151Y611495D02*
G03*
X711449Y611327I704J896D01*
G01*
X710709Y611868D02*
G03*
X711151Y611495I5585J6176D01*
G01*
X710224Y612338D02*
G03*
X710709Y611868I6931J6659D01*
G01*
X709762Y612852D02*
G03*
X710224Y612338I8090J6813D01*
G01*
X709762Y612852D02*
G03*
X709086Y613614I-15219J-12818D01*
G01*
Y613614D02*
G03*
X708663Y613953I-1376J-1285D01*
G01*
Y613953D02*
G03*
X708223Y614106I-604J-1029D01*
G01*
D02*
G03*
X707548Y614152I-674J-4882D01*
G01*
X706996Y614176D02*
G03*
X707548Y614152I552J6269D01*
G01*
X706619Y614257D02*
G03*
X706996Y614176I514J1479D01*
G01*
X706358Y614405D02*
G03*
X706619Y614257I538J649D01*
G01*
X706173Y614631D02*
G03*
X706358Y614405I669J358D01*
G01*
X706173Y614631D02*
G03*
X706010Y614827I-561J-300D01*
G01*
Y614827D02*
G03*
X705722Y615020I-1275J-1594D01*
G01*
Y615020D02*
G03*
X705367Y615181I-1191J-2155D01*
G01*
Y615180D02*
G03*
X704994Y615282I-817J-2264D01*
G01*
X704594Y615398D02*
G03*
X704994Y615282I797J2001D01*
G01*
X704156Y615605D02*
G03*
X704594Y615398I1889J3437D01*
G01*
X703748Y615863D02*
G03*
X704156Y615605I2290J3166D01*
G01*
X703439Y616137D02*
G03*
X703748Y615863I1537J1424D01*
G01*
X703439Y616137D02*
G03*
X703019Y616512I-2197J-2036D01*
G01*
Y616512D02*
G03*
X702615Y616709I-742J-1006D01*
G01*
Y616709D02*
G03*
X702053Y616799I-674J-2403D01*
G01*
Y616799D02*
G03*
X700983Y616826I-1186J-26446D01*
G01*
X700063Y616856D02*
G03*
X700983Y616826I989J15805D01*
G01*
X699366Y616945D02*
G03*
X700063Y616856I1041J5402D01*
G01*
X698795Y617103D02*
G03*
X699366Y616945I1269J3466D01*
G01*
X698276Y617347D02*
G03*
X698795Y617103I1638J2812D01*
G01*
X697607Y617879D02*
G03*
X698276Y617347I2166J2038D01*
G01*
X697344Y618459D02*
G03*
X697607Y617879I981J96D01*
G01*
X697468Y619151D02*
G03*
X697344Y618459I1162J-567D01*
G01*
X698011Y620049D02*
G03*
X697468Y619151I4687J-3447D01*
G01*
X698011Y620049D02*
G03*
X698310Y620506I-3970J2920D01*
G01*
Y620506D02*
G03*
X698562Y621002I-4602J2655D01*
G01*
D02*
G03*
X698738Y621465I-4166J1853D01*
G01*
D02*
G03*
X698791Y621804I-1059J339D01*
G01*
X698834Y622128D02*
G03*
X698791Y621804I1220J-325D01*
G01*
X698959Y622446D02*
G03*
X698834Y622128I1319J-702D01*
G01*
X699160Y622741D02*
G03*
X698959Y622446I1243J-1063D01*
G01*
X699426Y622997D02*
G03*
X699160Y622741I1164J-1480D01*
G01*
X699426Y622997D02*
G03*
X699669Y623207I-2101J2671D01*
G01*
D02*
G03*
X699875Y623427I-1794J1883D01*
G01*
D02*
G03*
X700022Y623627I-1610J1339D01*
G01*
D02*
G03*
X700061Y623760I-205J133D01*
G01*
D02*
G03*
X699929Y624000I-284J0D01*
G01*
X699929Y624001D02*
G03*
X699518Y624185I-862J-1369D01*
G01*
Y624185D02*
G03*
X698942Y624286I-743J-2555D01*
G01*
Y624286D02*
G03*
X698300Y624272I-241J-3839D01*
G01*
X697954Y624273D02*
G03*
X698300Y624272I179J1593D01*
G01*
X697611Y624348D02*
G03*
X697954Y624273I533J1618D01*
G01*
X697289Y624492D02*
G03*
X697611Y624348I859J1487D01*
G01*
X697006Y624698D02*
G03*
X697289Y624492I1115J1235D01*
G01*
X697006Y624698D02*
G03*
X696631Y624949I-1049J-1162D01*
G01*
D02*
G03*
X696168Y625108I-922J-1934D01*
G01*
Y625108D02*
G03*
X695518Y625200I-944J-4307D01*
G01*
Y625200D02*
G03*
X694509Y625246I-1538J-23034D01*
G01*
X693690Y625275D02*
G03*
X694509Y625246I1544J31637D01*
G01*
X692836Y625326D02*
G03*
X693690Y625275I2700J37726D01*
G01*
X692065Y625390D02*
G03*
X692836Y625326I3192J33803D01*
G01*
X691538Y625458D02*
G03*
X692065Y625390I1267J7769D01*
G01*
X691538Y625458D02*
G03*
X691019Y625520I-984J-6034D01*
G01*
D02*
G03*
X690658Y625503I-112J-1465D01*
G01*
D02*
G03*
X690391Y625406I137J-797D01*
G01*
D02*
G03*
X690174Y625223I403J-698D01*
G01*
X689738Y624939D02*
G03*
X690174Y625223I-241J845D01*
G01*
X689055Y624842D02*
G03*
X689738Y624939I-15J2546D01*
G01*
X688329Y624933D02*
G03*
X689055Y624842I710J2731D01*
G01*
X687757Y625209D02*
G03*
X688329Y624933I980J1296D01*
G01*
X687757Y625209D02*
G03*
X687135Y625490I-930J-1230D01*
G01*
D02*
G03*
X686311Y625550I-642J-3152D01*
G01*
D02*
G03*
X685471Y625395I193J-3406D01*
G01*
D02*
G03*
X684799Y625041I651J-2049D01*
G01*
X668845Y588108D02*
G03*
X669224Y589189I-3643J1886D01*
G01*
X668196Y587244D02*
G03*
X668845Y588108I-2246J2363D01*
G01*
X667295Y586634D02*
G03*
X668196Y587244I-1382J3011D01*
G01*
X666179Y586294D02*
G03*
X667295Y586634I-696J4287D01*
G01*
X668546Y590817D02*
G03*
X667330Y592097I-62470J-58127D01*
G01*
X669039Y590187D02*
G03*
X668546Y590817I-3898J-2539D01*
G01*
X669229Y589711D02*
G03*
X669039Y590187I-1282J-235D01*
G01*
X669224Y589189D02*
G03*
X669229Y589711I-1359J272D01*
G01*
X696336Y558438D02*
G03*
X696623Y559014I-17257J8961D01*
G01*
X696067Y557952D02*
G03*
X696336Y558438I-9275J5442D01*
G01*
X695829Y557559D02*
G03*
X696067Y557952I-13771J8613D01*
G01*
X695740Y557510D02*
G03*
X695829Y557559I0J105D01*
G01*
X695649Y557568D02*
G03*
X695740Y557510I91J43D01*
G01*
X695097Y558741D02*
G03*
X695649Y557568I264998J123989D01*
G01*
X694480Y560094D02*
G03*
X695097Y558741I67437J29911D01*
G01*
X693779Y561701D02*
G03*
X694480Y560094I130434J55937D01*
G01*
X693102Y563308D02*
G03*
X693779Y561701I129354J53575D01*
G01*
X692559Y564660D02*
G03*
X693102Y563308I63909J24892D01*
G01*
X692107Y565830D02*
G03*
X692559Y564660I235462J90369D01*
G01*
X692148Y565889D02*
G03*
X692107Y565830I-1J-44D01*
G01*
X692258Y565843D02*
G03*
X692148Y565889I-113J-114D01*
G01*
X693004Y565098D02*
G03*
X692258Y565843I-144363J-143992D01*
G01*
X693852Y564231D02*
G03*
X693004Y565098I-45435J-43604D01*
G01*
X694828Y563202D02*
G03*
X693852Y564231I-85412J-80008D01*
G01*
X634198Y595956D02*
G03*
X634116Y595757I197J-197D01*
G01*
D02*
G03*
X634199Y595557I287J2D01*
G01*
Y595557D02*
G03*
X634447Y595407I420J415D01*
G01*
Y595407D02*
G03*
X634790Y595356I343J1122D01*
G01*
X635035Y595305D02*
G03*
X634790Y595356I-245J-564D01*
G01*
X635395Y595125D02*
G03*
X635035Y595305I-1848J-3240D01*
G01*
X635792Y594869D02*
G03*
X635395Y595125I-2622J-3646D01*
G01*
X636171Y594568D02*
G03*
X635792Y594869I-3296J-3754D01*
G01*
X637053Y581894D02*
G03*
X637069Y585563I-411279J3668D01*
G01*
X636999Y579244D02*
G03*
X637053Y581894I-115253J3679D01*
G01*
X636920Y577272D02*
G03*
X636999Y579244I-119378J5785D01*
G01*
X636787Y576727D02*
G03*
X636920Y577272I-1355J618D01*
G01*
X636458Y576255D02*
G03*
X636787Y576727I-1114J1129D01*
G01*
X635950Y575876D02*
G03*
X636458Y576255I-1121J2032D01*
G01*
X635322Y575628D02*
G03*
X635950Y575876I-644J2551D01*
G01*
X634644Y575544D02*
G03*
X635322Y575628I0J2769D01*
G01*
X634644Y575544D02*
G03*
X634406Y575526I0J-1541D01*
G01*
Y575526D02*
G03*
X634204Y575469I140J-894D01*
G01*
Y575470D02*
G03*
X634067Y575387I199J-489D01*
G01*
D02*
G03*
X634021Y575290I81J-97D01*
G01*
D02*
G03*
X634125Y575177I114J0D01*
G01*
D02*
G03*
X635037Y575104I3231J34708D01*
G01*
D02*
G03*
X636233Y575052I1709J25630D01*
G01*
X636233D02*
G03*
X637831Y575036I1599J80006D01*
G01*
D02*
G03*
X639430Y575052I-1J80022D01*
G01*
X639430D02*
G03*
X640625Y575104I-513J25681D01*
G01*
D02*
G03*
X641538Y575177I-2319J34781D01*
G01*
D02*
G03*
X641641Y575290I-10J113D01*
G01*
D02*
G03*
X641591Y575388I-120J0D01*
G01*
Y575388D02*
G03*
X641436Y575470I-376J-522D01*
G01*
D02*
G03*
X641210Y575526I-380J-1041D01*
G01*
D02*
G03*
X640943Y575545I-270J-1923D01*
G01*
X640122Y575687D02*
G03*
X640943Y575545I825J2316D01*
G01*
X639348Y576099D02*
G03*
X640122Y575687I1775J2401D01*
G01*
X638758Y576696D02*
G03*
X639348Y576099I2214J1601D01*
G01*
X638470Y577374D02*
G03*
X638758Y576696I1633J294D01*
G01*
X638413Y577957D02*
G03*
X638470Y577374I3648J64D01*
G01*
X638385Y579960D02*
G03*
X638413Y577957I272080J2754D01*
G01*
X638375Y582341D02*
G03*
X638385Y579960I194598J-409D01*
G01*
X638393Y585004D02*
G03*
X638375Y582341I304563J-3304D01*
G01*
X640036Y589830D02*
G03*
X643639Y585378I336146J268305D01*
G01*
D02*
G03*
X647925Y580195I629877J516636D01*
G01*
D02*
G03*
X652415Y574818I5796428J4834944D01*
G01*
D02*
G03*
X652745Y574594I559J467D01*
G01*
D02*
G03*
X652915Y574710I41J123D01*
G01*
D02*
G03*
X653004Y576575I-115500J6420D01*
G01*
X653004D02*
G03*
X653077Y579351I-104469J4117D01*
G01*
X653077D02*
G03*
X653126Y584262I-904110J11588D01*
G01*
X653182Y590327D02*
G03*
X653126Y584262I1657057J-18307D01*
G01*
X653259Y592684D02*
G03*
X653182Y590327I54540J-2960D01*
G01*
X653394Y593962D02*
G03*
X653259Y592684I12413J-1959D01*
G01*
X653686Y594571D02*
G03*
X653394Y593962I877J-794D01*
G01*
X653928Y594792D02*
G03*
X653686Y594571I1027J-1370D01*
G01*
X654255Y595010D02*
G03*
X653928Y594792I1780J-3028D01*
G01*
X654610Y595193D02*
G03*
X654255Y595010I1468J-3284D01*
G01*
X654938Y595308D02*
G03*
X654610Y595193I524J-2022D01*
G01*
X654938Y595308D02*
G03*
X655239Y595407I-609J2349D01*
G01*
X655239Y595407D02*
G03*
X655510Y595541I-755J1868D01*
G01*
Y595541D02*
G03*
X655717Y595688I-793J1340D01*
G01*
Y595688D02*
G03*
X655809Y595824I-193J231D01*
G01*
D02*
G03*
X655719Y595982I-116J39D01*
G01*
D02*
G03*
X655164Y596066I-912J-4173D01*
G01*
Y596066D02*
G03*
X654195Y596109I-1029J-12299D01*
G01*
Y596109D02*
G03*
X652461Y596104I-545J-111095D01*
G01*
Y596104D02*
G03*
X650657Y596070I1248J-116840D01*
G01*
Y596070D02*
G03*
X649695Y596003I290J-11090D01*
G01*
Y596003D02*
G03*
X649149Y595897I399J-3516D01*
G01*
Y595897D02*
G03*
X649007Y595711I52J-186D01*
G01*
D02*
G03*
X649059Y595564I235J-0D01*
G01*
D02*
G03*
X649202Y595450I324J260D01*
G01*
D02*
G03*
X649433Y595379I349J722D01*
G01*
D02*
G03*
X649741Y595356I308J2063D01*
G01*
X650450Y595226D02*
G03*
X649741Y595356I-709J-1864D01*
G01*
X651053Y594852D02*
G03*
X650450Y595226I-1269J-1376D01*
G01*
X651514Y594249D02*
G03*
X651053Y594853I-1945J-1007D01*
G01*
X651808Y593451D02*
G03*
X651514Y594249I-3322J-770D01*
G01*
X651994Y591962D02*
G03*
X651808Y593451I-7265J-151D01*
G01*
X652044Y587968D02*
G03*
X651994Y591962I-244545J-1089D01*
G01*
X652054Y583620D02*
G03*
X652044Y587968I-1006596J-136D01*
G01*
X651852Y583418D02*
G03*
X652054Y583620I0J202D01*
G01*
X651720Y583480D02*
G03*
X651852Y583418I132J111D01*
G01*
X650295Y585184D02*
G03*
X651720Y583480I844357J704601D01*
G01*
X648696Y587125D02*
G03*
X650295Y585184I155772J126712D01*
G01*
X646836Y589430D02*
G03*
X648696Y587125I300247J240420D01*
G01*
X646836Y589430D02*
G03*
X644967Y591758I-953632J-763610D01*
G01*
Y591758D02*
G03*
X643338Y593775I-542351J-436459D01*
G01*
Y593775D02*
G03*
X641927Y595513I-1345765J-1091292D01*
G01*
Y595513D02*
G03*
X641687Y595780I-2828J-2300D01*
G01*
X641687Y595780D02*
G03*
X641372Y595945I-419J-416D01*
G01*
Y595945D02*
G03*
X640644Y596042I-1451J-8084D01*
G01*
Y596042D02*
G03*
X639550Y596101I-1410J-15958D01*
G01*
Y596101D02*
G03*
X637855Y596118I-1695J-85943D01*
G01*
D02*
G03*
X636504Y596106I-0J-77803D01*
G01*
D02*
G03*
X635339Y596070I749J-43155D01*
G01*
D02*
G03*
X634344Y596021I4354J-98021D01*
G01*
D02*
G03*
X634198Y595956I12J-224D01*
G01*
X661961Y571497D02*
G03*
X662022Y571393I121J0D01*
G01*
Y571393D02*
G03*
X662223Y571306I483J839D01*
G01*
Y571306D02*
G03*
X662510Y571246I475J1557D01*
G01*
Y571246D02*
G03*
X662850Y571226I341J2935D01*
G01*
X663253Y571192D02*
G03*
X662850Y571226I-403J-2353D01*
G01*
X663637Y571090D02*
G03*
X663253Y571192I-759J-2086D01*
G01*
X663977Y570929D02*
G03*
X663637Y571090I-1019J-1709D01*
G01*
X664247Y570718D02*
G03*
X663977Y570929I-983J-982D01*
G01*
X664550Y570147D02*
G03*
X664247Y570718I-1080J-206D01*
G01*
X664685Y569043D02*
G03*
X664550Y570147I-8241J-445D01*
G01*
X664745Y566964D02*
G03*
X664685Y569043I-41422J-157D01*
G01*
X664755Y561320D02*
G03*
X664745Y566964I-1491415J3D01*
G01*
Y555677D02*
G03*
X664755Y561320I-1491404J5641D01*
G01*
X664685Y553598D02*
G03*
X664745Y555677I-41362J2236D01*
G01*
X664550Y552493D02*
G03*
X664685Y553598I-8106J1550D01*
G01*
X664247Y551922D02*
G03*
X664550Y552493I-777J777D01*
G01*
X663977Y551711D02*
G03*
X664247Y551922I-712J1193D01*
G01*
X663637Y551550D02*
G03*
X663977Y551711I-680J1870D01*
G01*
X663253Y551448D02*
G03*
X663637Y551550I-375J2188D01*
G01*
X662850Y551414D02*
G03*
X663253Y551448I0J2387D01*
G01*
X662850Y551414D02*
G03*
X662510Y551396I-0J-3158D01*
G01*
D02*
G03*
X662223Y551339I186J-1711D01*
G01*
D02*
G03*
X662020Y551258I287J-1004D01*
G01*
D02*
G03*
X661961Y551160I52J-98D01*
G01*
D02*
G03*
X662071Y551043I117J0D01*
G01*
Y551043D02*
G03*
X663358Y550973I5457J87492D01*
G01*
D02*
G03*
X665022Y550922I2335J49046D01*
G01*
Y550922D02*
G03*
X667295Y550906I2273J166192D01*
G01*
D02*
G03*
X669568Y550922I-0J166207D01*
G01*
Y550922D02*
G03*
X671232Y550973I-671J49097D01*
G01*
D02*
G03*
X672520Y551043I-4169J87563D01*
G01*
Y551043D02*
G03*
X672629Y551160I-7J117D01*
G01*
D02*
G03*
X672570Y551258I-111J0D01*
G01*
D02*
G03*
X672368Y551339I-489J-923D01*
G01*
D02*
G03*
X672081Y551396I-473J-1655D01*
G01*
D02*
G03*
X671740Y551414I-340J-3140D01*
G01*
X671337Y551448D02*
G03*
X671740Y551414I403J2353D01*
G01*
X670953Y551550D02*
G03*
X671337Y551448I759J2086D01*
G01*
X670614Y551711D02*
G03*
X670953Y551550I1019J1709D01*
G01*
X670343Y551922D02*
G03*
X670614Y551711I983J982D01*
G01*
X670062Y552358D02*
G03*
X670343Y551922I1148J431D01*
G01*
X669915Y552969D02*
G03*
X670062Y552358I2554J292D01*
G01*
X669849Y554017D02*
G03*
X669915Y552969I10308J122D01*
G01*
X669835Y556367D02*
G03*
X669849Y554017I197921J-0D01*
G01*
X671045Y560115D02*
G03*
X670534Y560299I-517J-634D01*
G01*
X671673Y559500D02*
G03*
X671045Y560115I-3688J-3138D01*
G01*
X672620Y558289D02*
G03*
X671673Y559500I-15266J-10971D01*
G01*
X674532Y555600D02*
G03*
X672620Y558289I-257388J-180913D01*
G01*
X681199Y550906D02*
G03*
X683213Y550939I-0J61955D01*
G01*
D02*
G03*
X684292Y551071I-199J6102D01*
G01*
D02*
G03*
X684361Y551275I-26J123D01*
G01*
D02*
G03*
X683992Y551503I-542J-462D01*
G01*
X683281Y551879D02*
G03*
X683992Y551503I1123J1265D01*
G01*
X682382Y552790D02*
G03*
X683281Y551879I7368J6375D01*
G01*
X681158Y554326D02*
G03*
X682382Y552790I19480J14259D01*
G01*
X679262Y556970D02*
G03*
X681158Y554326I135737J95329D01*
G01*
X678204Y561334D02*
G03*
X679417Y562070I-2931J6198D01*
G01*
D02*
G03*
X680323Y562980I-2803J3694D01*
G01*
D02*
G03*
X680915Y564068I-3417J2564D01*
G01*
D02*
G03*
X681203Y565329I-4732J1743D01*
G01*
D02*
G03*
X681116Y567128I-6249J600D01*
G01*
X681116D02*
G03*
X680516Y568758I-5334J-1038D01*
G01*
X680516D02*
G03*
X679439Y570103I-4658J-2624D01*
G01*
D02*
G03*
X677963Y571078I-3959J-4389D01*
G01*
D02*
G03*
X677044Y571379I-1737J-3753D01*
G01*
X677044D02*
G03*
X675866Y571539I-1838J-9112D01*
G01*
D02*
G03*
X673900Y571625I-2576J-36214D01*
G01*
D02*
G03*
X669391Y571688I-12723J-756056D01*
G01*
Y571688D02*
G03*
X665993Y571710I-4321J-397715D01*
G01*
Y571710D02*
G03*
X663745Y571684I-187J-80391D01*
G01*
Y571684D02*
G03*
X662090Y571631I3449J-134454D01*
G01*
Y571631D02*
G03*
X661961Y571497I5J-134D01*
G01*
X674614Y569770D02*
G03*
X673264Y570439I-2371J-3088D01*
G01*
X675574Y568651D02*
G03*
X674614Y569770I-3144J-1726D01*
G01*
X676080Y567119D02*
G03*
X675574Y568651I-4400J-605D01*
G01*
X676112Y565252D02*
G03*
X676080Y567119I-7775J803D01*
G01*
X675685Y563583D02*
G03*
X676112Y565252I-5406J2271D01*
G01*
X674821Y562442D02*
G03*
X675685Y563583I-1801J2260D01*
G01*
X673449Y561788D02*
G03*
X674821Y562442I-728J3291D01*
G01*
X671495Y561574D02*
G03*
X673449Y561788I-0J9053D01*
G01*
X671578Y570696D02*
G03*
X671042Y570717I-544J-7199D01*
G01*
X672192Y570634D02*
G03*
X671578Y570696I-1569J-12561D01*
G01*
X672789Y570545D02*
G03*
X672192Y570634I-2118J-12090D01*
G01*
X673264Y570439D02*
G03*
X672789Y570545I-1389J-5111D01*
G01*
X684373Y624764D02*
G03*
X684799Y625041I-1397J2616D01*
G01*
X650470Y616968D02*
X650643Y615818D01*
X648786Y615370D02*
X650470Y616968D01*
X657947Y601960D02*
X663414Y596245D01*
X660256Y596174D02*
X663414Y596245D01*
X660056Y576515D02*
Y585401D01*
X659457Y576030D02*
X660056Y576515D01*
X666246Y575036D02*
X675357D01*
X675655Y577386D01*
X665263Y576826D02*
X665908Y576403D01*
X665263Y576826D02*
Y581005D01*
Y585183D01*
X666089Y585031D01*
X665263Y586146D02*
X666179Y586294D01*
X665263Y586146D02*
X665271Y590179D01*
X665278Y594213D01*
X667330Y592097D01*
X694828Y563202D02*
X697342Y560519D01*
X696623Y559014D02*
X697342Y560519D01*
X636171Y594568D02*
X637069Y593779D01*
Y585563D02*
Y593779D01*
X638393Y585004D02*
X638466Y591797D01*
X640036Y589830D01*
X669835Y556367D02*
Y560304D01*
X670534Y560299D01*
X674532Y555600D02*
X677831Y550906D01*
X681199D01*
X676698Y560621D02*
X679262Y556970D01*
X676698Y560621D02*
X678204Y561334D01*
X669835Y561574D02*
X671495D01*
X669835D02*
Y566146D01*
Y570718D01*
X671042Y570717D01*
D11*
X719942Y282041D02*
G03*
X716843Y278942I0J-3099D01*
G01*
X731042D02*
G03*
X727943Y282041I-3099J0D01*
G01*
Y254253D02*
G03*
X731042Y257352I0J3099D01*
G01*
X716843D02*
G03*
X719942Y254253I3099J0D01*
G01*
X698708Y207263D02*
G03*
X701807Y210362I0J3099D01*
G01*
X687608D02*
G03*
X690707Y207263I3099J0D01*
G01*
Y235051D02*
G03*
X687608Y231952I0J-3099D01*
G01*
X701807D02*
G03*
X698708Y235051I-3099J0D01*
G01*
X674222Y235025D02*
G03*
X671123Y231927I0J-3099D01*
G01*
X685322D02*
G03*
X682223Y235025I-3099J0D01*
G01*
Y207238D02*
G03*
X685322Y210337I0J3099D01*
G01*
X671123D02*
G03*
X674222Y207238I3099J0D01*
G01*
X655985Y133933D02*
G03*
X659084Y137032I0J3099D01*
G01*
Y145033D02*
G03*
X655985Y148132I-3099J0D01*
G01*
X634395D02*
G03*
X631296Y145033I0J-3099D01*
G01*
Y137032D02*
G03*
X634395Y133933I3099J0D01*
G01*
X571355Y460807D02*
G03*
X568256Y457708I0J-3099D01*
G01*
Y449707D02*
G03*
X571355Y446608I3099J0D01*
G01*
X592945D02*
G03*
X596044Y449707I0J3099D01*
G01*
Y457708D02*
G03*
X592945Y460807I-3099J0D01*
G01*
X571533Y430327D02*
G03*
X568434Y427228I0J-3099D01*
G01*
Y419227D02*
G03*
X571533Y416128I3099J0D01*
G01*
X593123D02*
G03*
X596222Y419227I0J3099D01*
G01*
Y427228D02*
G03*
X593123Y430327I-3099J0D01*
G01*
X571533Y399847D02*
G03*
X568434Y396748I0J-3099D01*
G01*
Y388747D02*
G03*
X571533Y385648I3099J0D01*
G01*
X593123D02*
G03*
X596222Y388747I0J3099D01*
G01*
Y396748D02*
G03*
X593123Y399847I-3099J0D01*
G01*
X596044Y366268D02*
G03*
X592945Y369367I-3099J0D01*
G01*
Y355168D02*
G03*
X596044Y358267I0J3099D01*
G01*
X568256D02*
G03*
X571355Y355168I3099J0D01*
G01*
Y369367D02*
G03*
X568256Y366268I0J-3099D01*
G01*
X596222Y335788D02*
G03*
X593123Y338887I-3099J0D01*
G01*
Y324688D02*
G03*
X596222Y327787I0J3099D01*
G01*
X568434D02*
G03*
X571533Y324688I3099J0D01*
G01*
Y338887D02*
G03*
X568434Y335788I0J-3099D01*
G01*
X596044Y305308D02*
G03*
X592945Y308407I-3099J0D01*
G01*
Y294208D02*
G03*
X596044Y297307I0J3099D01*
G01*
X568256D02*
G03*
X571355Y294208I3099J0D01*
G01*
Y308407D02*
G03*
X568256Y305308I0J-3099D01*
G01*
X596222Y246888D02*
G03*
X593123Y249987I-3099J0D01*
G01*
Y235788D02*
G03*
X596222Y238887I0J3099D01*
G01*
X568434D02*
G03*
X571533Y235788I3099J0D01*
G01*
Y249987D02*
G03*
X568434Y246888I0J-3099D01*
G01*
X596044Y216408D02*
G03*
X592945Y219507I-3099J0D01*
G01*
Y205308D02*
G03*
X596044Y208407I0J3099D01*
G01*
X568256D02*
G03*
X571355Y205308I3099J0D01*
G01*
Y219507D02*
G03*
X568256Y216408I0J-3099D01*
G01*
X535084Y373888D02*
G03*
X531985Y376987I-3099J0D01*
G01*
Y362788D02*
G03*
X535084Y365887I0J3099D01*
G01*
X507296D02*
G03*
X510395Y362788I3099J0D01*
G01*
Y376987D02*
G03*
X507296Y373888I0J-3099D01*
G01*
X510395Y361747D02*
G03*
X507296Y358648I0J-3099D01*
G01*
Y350647D02*
G03*
X510395Y347548I3099J0D01*
G01*
X531985D02*
G03*
X535084Y350647I0J3099D01*
G01*
Y358648D02*
G03*
X531985Y361747I-3099J0D01*
G01*
X537773Y290245D02*
G03*
X540872Y287146I3099J0D01*
G01*
X548873D02*
G03*
X551972Y290245I0J3099D01*
G01*
Y311835D02*
G03*
X548873Y314934I-3099J0D01*
G01*
X540872D02*
G03*
X537773Y311835I0J-3099D01*
G01*
X509935Y248437D02*
G03*
X506836Y245338I0J-3099D01*
G01*
Y237337D02*
G03*
X509935Y234238I3099J0D01*
G01*
X531525D02*
G03*
X534624Y237337I0J3099D01*
G01*
Y245338D02*
G03*
X531525Y248437I-3099J0D01*
G01*
X514103Y138938D02*
G03*
X511005Y142037I-3099J0D01*
G01*
Y127838D02*
G03*
X514103Y130937I0J3099D01*
G01*
X486316D02*
G03*
X489415Y127838I3099J0D01*
G01*
Y142037D02*
G03*
X486316Y138938I0J-3099D01*
G01*
X203766Y231292D02*
G03*
X206865Y228193I3099J0D01*
G01*
Y242392D02*
G03*
X203766Y239293I0J-3099D01*
G01*
X231554D02*
G03*
X228455Y242392I-3099J0D01*
G01*
Y228193D02*
G03*
X231554Y231292I0J3099D01*
G01*
X208237Y212445D02*
G03*
X205138Y215544I-3099J0D01*
G01*
X197137D02*
G03*
X194038Y212445I0J-3099D01*
G01*
Y190855D02*
G03*
X197137Y187757I3099J0D01*
G01*
X205138D02*
G03*
X208237Y190855I0J3099D01*
G01*
X242191Y262482D02*
G03*
X245290Y259383I3099J0D01*
G01*
Y273582D02*
G03*
X242191Y270483I0J-3099D01*
G01*
X269978D02*
G03*
X266880Y273582I-3099J0D01*
G01*
Y259383D02*
G03*
X269978Y262482I0J3099D01*
G01*
X264263Y337768D02*
G03*
X261165Y340867I-3099J0D01*
G01*
Y326668D02*
G03*
X264263Y329767I0J3099D01*
G01*
X236476D02*
G03*
X239575Y326668I3099J0D01*
G01*
Y340867D02*
G03*
X236476Y337768I0J-3099D01*
G01*
X400362Y505536D02*
G03*
X397263Y502437I0J-3099D01*
G01*
X411462D02*
G03*
X408363Y505536I-3099J0D01*
G01*
Y477748D02*
G03*
X411462Y480847I0J3099D01*
G01*
X397263D02*
G03*
X400362Y477748I3099J0D01*
G01*
X369882Y505714D02*
G03*
X366783Y502615I0J-3099D01*
G01*
X380982D02*
G03*
X377883Y505714I-3099J0D01*
G01*
Y477926D02*
G03*
X380982Y481025I0J3099D01*
G01*
X366783D02*
G03*
X369882Y477926I3099J0D01*
G01*
X336303Y480847D02*
G03*
X339402Y477748I3099J0D01*
G01*
X347403D02*
G03*
X350502Y480847I0J3099D01*
G01*
Y502437D02*
G03*
X347403Y505536I-3099J0D01*
G01*
X339402D02*
G03*
X336303Y502437I0J-3099D01*
G01*
X463303Y420700D02*
G03*
X466402Y417601I3099J0D01*
G01*
X474403D02*
G03*
X477502Y420700I0J3099D01*
G01*
Y442290D02*
G03*
X474403Y445389I-3099J0D01*
G01*
X466402D02*
G03*
X463303Y442290I0J-3099D01*
G01*
X458424Y458698D02*
G03*
X455325Y461797I-3099J0D01*
G01*
Y447598D02*
G03*
X458424Y450697I0J3099D01*
G01*
X430636D02*
G03*
X433735Y447598I3099J0D01*
G01*
Y461797D02*
G03*
X430636Y458698I0J-3099D01*
G01*
X332033Y421055D02*
G03*
X335132Y417956I3099J0D01*
G01*
X343133D02*
G03*
X346232Y421055I0J3099D01*
G01*
Y442645D02*
G03*
X343133Y445744I-3099J0D01*
G01*
X335132D02*
G03*
X332033Y442645I0J-3099D01*
G01*
X301553Y421233D02*
G03*
X304652Y418134I3099J0D01*
G01*
X312653D02*
G03*
X315752Y421233I0J3099D01*
G01*
Y442823D02*
G03*
X312653Y445922I-3099J0D01*
G01*
X304652D02*
G03*
X301553Y442823I0J-3099D01*
G01*
X535084Y312928D02*
G03*
X531985Y316027I-3099J0D01*
G01*
Y301828D02*
G03*
X535084Y304927I0J3099D01*
G01*
X507296D02*
G03*
X510395Y301828I3099J0D01*
G01*
Y316027D02*
G03*
X507296Y312928I0J-3099D01*
G01*
X535084Y297688D02*
G03*
X531985Y300787I-3099J0D01*
G01*
Y286588D02*
G03*
X535084Y289687I0J3099D01*
G01*
X507296D02*
G03*
X510395Y286588I3099J0D01*
G01*
Y300787D02*
G03*
X507296Y297688I0J-3099D01*
G01*
X449892Y445389D02*
G03*
X446793Y442290I0J-3099D01*
G01*
X460992D02*
G03*
X457893Y445389I-3099J0D01*
G01*
Y417601D02*
G03*
X460992Y420700I0J3099D01*
G01*
X446793D02*
G03*
X449892Y417601I3099J0D01*
G01*
X433382Y445389D02*
G03*
X430283Y442290I0J-3099D01*
G01*
X444482D02*
G03*
X441383Y445389I-3099J0D01*
G01*
Y417601D02*
G03*
X444482Y420700I0J3099D01*
G01*
X430283D02*
G03*
X433382Y417601I3099J0D01*
G01*
X571533Y279197D02*
G03*
X568434Y276098I0J-3099D01*
G01*
Y268097D02*
G03*
X571533Y264998I3099J0D01*
G01*
X593123D02*
G03*
X596222Y268097I0J3099D01*
G01*
Y276098D02*
G03*
X593123Y279197I-3099J0D01*
G01*
X246385Y242087D02*
G03*
X243286Y238988I0J-3099D01*
G01*
Y230987D02*
G03*
X246385Y227888I3099J0D01*
G01*
X267975D02*
G03*
X271073Y230987I0J3099D01*
G01*
Y238988D02*
G03*
X267975Y242087I-3099J0D01*
G01*
X343819Y150164D02*
G03*
X346918Y147065I3099J0D01*
G01*
X354919D02*
G03*
X358018Y150164I0J3099D01*
G01*
Y171754D02*
G03*
X354919Y174853I-3099J0D01*
G01*
X346918D02*
G03*
X343819Y171754I0J-3099D01*
G01*
X267975Y243153D02*
G03*
X271073Y246252I0J3099D01*
G01*
Y254253D02*
G03*
X267975Y257352I-3099J0D01*
G01*
X246385D02*
G03*
X243286Y254253I0J-3099D01*
G01*
Y246252D02*
G03*
X246385Y243153I3099J0D01*
G01*
X360329Y150164D02*
G03*
X363428Y147065I3099J0D01*
G01*
X371429D02*
G03*
X374528Y150164I0J3099D01*
G01*
Y171754D02*
G03*
X371429Y174853I-3099J0D01*
G01*
X363428D02*
G03*
X360329Y171754I0J-3099D01*
G01*
X531525Y316813D02*
G03*
X534624Y319912I0J3099D01*
G01*
Y327913D02*
G03*
X531525Y331012I-3099J0D01*
G01*
X509935D02*
G03*
X506836Y327913I0J-3099D01*
G01*
Y319912D02*
G03*
X509935Y316813I3099J0D01*
G01*
X389742Y171754D02*
G03*
X386643Y174853I-3099J0D01*
G01*
X378642D02*
G03*
X375544Y171754I0J-3099D01*
G01*
Y150164D02*
G03*
X378642Y147065I3099J0D01*
G01*
X386643D02*
G03*
X389742Y150164I0J3099D01*
G01*
X362513Y420598D02*
G03*
X365612Y417499I3099J0D01*
G01*
X373613D02*
G03*
X376712Y420598I0J3099D01*
G01*
Y442188D02*
G03*
X373613Y445287I-3099J0D01*
G01*
X365612D02*
G03*
X362513Y442188I0J-3099D01*
G01*
X393197D02*
G03*
X390098Y445287I-3099J0D01*
G01*
X382097D02*
G03*
X378998Y442188I0J-3099D01*
G01*
Y420598D02*
G03*
X382097Y417499I3099J0D01*
G01*
X390098D02*
G03*
X393197Y420598I0J3099D01*
G01*
X631779Y325830D02*
X631880Y311048D01*
X650778Y312445D02*
Y325830D01*
X631779D02*
X650778D01*
X647374Y285038D02*
X650880Y288543D01*
X631880D02*
X635386Y285038D01*
X631880Y288543D02*
Y301040D01*
X650880Y288543D02*
Y301040D01*
X635386Y285038D02*
X647374D01*
X636376Y309041D02*
X646384D01*
X641431Y304037D02*
Y309041D01*
X731042Y257352D02*
Y265353D01*
Y270966D02*
Y278967D01*
X716843Y257352D02*
Y265353D01*
Y270966D02*
Y278967D01*
X719942Y254253D02*
X727943D01*
X719942Y282041D02*
X727943D01*
X687608Y223951D02*
Y231952D01*
Y210337D02*
Y218338D01*
X701807Y223951D02*
Y231952D01*
Y210337D02*
Y218338D01*
X690707Y235051D02*
X698708D01*
X690707Y207263D02*
X698708D01*
X685322Y210337D02*
Y218338D01*
Y223951D02*
Y231952D01*
X671123Y210337D02*
Y218338D01*
Y223951D02*
Y231952D01*
X674222Y207238D02*
X682223D01*
X674222Y235025D02*
X682223D01*
X766297Y63550D02*
Y190550D01*
X699317Y63550D02*
X766297D01*
X699317D02*
Y190550D01*
X766297D01*
X646816Y193700D02*
X661598Y193801D01*
X648213Y174802D02*
X661598D01*
Y193801D01*
X620806Y178206D02*
X624311Y174700D01*
X620806Y190194D02*
X624311Y193700D01*
X636808D01*
X624311Y174700D02*
X636808D01*
X620806Y178206D02*
Y190194D01*
X644809Y179196D02*
Y189204D01*
X639805Y184149D02*
X644809D01*
X631296Y137032D02*
Y145033D01*
X659084Y137032D02*
Y145033D01*
X634370Y133933D02*
X642371D01*
X647984D02*
X655985D01*
X634370Y148132D02*
X642371D01*
X647984D02*
X655985D01*
X596044Y449707D02*
Y457708D01*
X568256Y449707D02*
Y457708D01*
X584969Y460807D02*
X592970D01*
X571355D02*
X579356D01*
X584969Y446608D02*
X592970D01*
X571355D02*
X579356D01*
X596222Y419227D02*
Y427228D01*
X568434Y419227D02*
Y427228D01*
X585147Y430327D02*
X593148D01*
X571533D02*
X579534D01*
X585147Y416128D02*
X593148D01*
X571533D02*
X579534D01*
X596222Y388747D02*
Y396748D01*
X568434Y388747D02*
Y396748D01*
X585147Y399847D02*
X593148D01*
X571533D02*
X579534D01*
X585147Y385648D02*
X593148D01*
X571533D02*
X579534D01*
X571355Y355168D02*
X579356D01*
X584969D02*
X592970D01*
X571355Y369367D02*
X579356D01*
X584969D02*
X592970D01*
X568256Y358267D02*
Y366268D01*
X596044Y358267D02*
Y366268D01*
X571533Y324688D02*
X579534D01*
X585147D02*
X593148D01*
X571533Y338887D02*
X579534D01*
X585147D02*
X593148D01*
X568434Y327787D02*
Y335788D01*
X596222Y327787D02*
Y335788D01*
X571355Y294208D02*
X579356D01*
X584969D02*
X592970D01*
X571355Y308407D02*
X579356D01*
X584969D02*
X592970D01*
X568256Y297307D02*
Y305308D01*
X596044Y297307D02*
Y305308D01*
X571533Y235788D02*
X579534D01*
X585147D02*
X593148D01*
X571533Y249987D02*
X579534D01*
X585147D02*
X593148D01*
X568434Y238887D02*
Y246888D01*
X596222Y238887D02*
Y246888D01*
X571355Y205308D02*
X579356D01*
X584969D02*
X592970D01*
X571355Y219507D02*
X579356D01*
X584969D02*
X592970D01*
X568256Y208407D02*
Y216408D01*
X596044Y208407D02*
Y216408D01*
X510395Y362788D02*
X518396D01*
X524009D02*
X532010D01*
X510395Y376987D02*
X518396D01*
X524009D02*
X532010D01*
X507296Y365887D02*
Y373888D01*
X535084Y365887D02*
Y373888D01*
Y350647D02*
Y358648D01*
X507296Y350647D02*
Y358648D01*
X524009Y361747D02*
X532010D01*
X510395D02*
X518396D01*
X524009Y347548D02*
X532010D01*
X510395D02*
X518396D01*
X540872Y314934D02*
X548873D01*
X540872Y287146D02*
X548873D01*
X537773Y303859D02*
Y311860D01*
Y290245D02*
Y298246D01*
X551972Y303859D02*
Y311860D01*
Y290245D02*
Y298246D01*
X509836Y264490D02*
X522536D01*
X507296Y267030D02*
X509836Y264490D01*
X507296Y267030D02*
Y268300D01*
Y282270D01*
X509836Y284810D01*
X511106D01*
X522536D01*
X530156D02*
X542856D01*
X545396Y282270D01*
Y281000D02*
Y282270D01*
Y267030D02*
Y281000D01*
X542856Y264490D02*
X545396Y267030D01*
X541586Y264490D02*
X542856D01*
X530156D02*
X541586D01*
X534624Y237337D02*
Y245338D01*
X506836Y237337D02*
Y245338D01*
X523549Y248437D02*
X531550D01*
X509935D02*
X517936D01*
X523549Y234238D02*
X531550D01*
X509935D02*
X517936D01*
X614227Y74193D02*
Y134187D01*
X554233Y74193D02*
X614227D01*
X554233D02*
Y134187D01*
X614227D01*
X582477Y89001D02*
X584230Y88899D01*
X580776Y89280D02*
X582477Y89001D01*
X579099Y89788D02*
X580776Y89280D01*
X577474Y90474D02*
X579099Y89788D01*
X575975Y91312D02*
X577474Y90474D01*
X574553Y92354D02*
X575975Y91312D01*
X573257Y93522D02*
X574553Y92354D01*
X572114Y94843D02*
X573257Y93522D01*
X571124Y96291D02*
X572114Y94843D01*
X570311Y97840D02*
X571124Y96291D01*
X569676Y99466D02*
X570311Y97840D01*
X569244Y101142D02*
X569676Y99466D01*
X568990Y102869D02*
X569244Y101142D01*
X568939Y104622D02*
X568990Y102869D01*
X568939Y104622D02*
X569092Y106374D01*
X569447Y108076D01*
X569981Y109727D01*
X570717Y111327D01*
X571606Y112826D01*
X572673Y114198D01*
X573892Y115468D01*
X575238Y116560D01*
X576712Y117500D01*
X578286Y118287D01*
X579912Y118871D01*
X581614Y119252D01*
X583366Y119455D01*
X585094D01*
X586846Y119252D01*
X588548Y118871D01*
X590174Y118287D01*
X591748Y117500D01*
X593222Y116560D01*
X594568Y115468D01*
X595787Y114198D01*
X596854Y112826D01*
X597768Y111327D01*
X598479Y109727D01*
X599013Y108076D01*
X599368Y106374D01*
X599521Y104622D01*
X599470Y102869D02*
X599521Y104622D01*
X599216Y101142D02*
X599470Y102869D01*
X598784Y99466D02*
X599216Y101142D01*
X598149Y97840D02*
X598784Y99466D01*
X597336Y96291D02*
X598149Y97840D01*
X596346Y94843D02*
X597336Y96291D01*
X595203Y93522D02*
X596346Y94843D01*
X593907Y92354D02*
X595203Y93522D01*
X592510Y91312D02*
X593907Y92354D01*
X590986Y90474D02*
X592510Y91312D01*
X589361Y89788D02*
X590986Y90474D01*
X587684Y89280D02*
X589361Y89788D01*
X585983Y89001D02*
X587684Y89280D01*
X584230Y88899D02*
X585983Y89001D01*
X562919Y78892D02*
X563910Y78790D01*
X561980Y79171D02*
X562919Y78892D01*
X561091Y79654D02*
X561980Y79171D01*
X560329Y80289D02*
X561091Y79654D01*
X559694Y81051D02*
X560329Y80289D01*
X559211Y81914D02*
X559694Y81051D01*
X558932Y82879D02*
X559211Y81914D01*
X558830Y83870D02*
X558932Y82879D01*
X558830Y83870D02*
X558932Y84861D01*
X559211Y85800D01*
X559694Y86689D01*
X560329Y87451D01*
X561091Y88086D01*
X561980Y88569D01*
X562919Y88848D01*
X563910Y88950D01*
X564901Y88848D01*
X565866Y88569D01*
X566729Y88086D01*
X567517Y87451D01*
X568126Y86689D01*
X568609Y85800D01*
X568888Y84861D01*
X568990Y83870D01*
X568888Y82879D02*
X568990Y83870D01*
X568609Y81914D02*
X568888Y82879D01*
X568126Y81051D02*
X568609Y81914D01*
X567517Y80289D02*
X568126Y81051D01*
X566729Y79654D02*
X567517Y80289D01*
X565866Y79171D02*
X566729Y79654D01*
X564901Y78892D02*
X565866Y79171D01*
X563910Y78790D02*
X564901Y78892D01*
X562919Y119532D02*
X563910Y119430D01*
X561980Y119811D02*
X562919Y119532D01*
X561091Y120294D02*
X561980Y119811D01*
X560329Y120929D02*
X561091Y120294D01*
X559694Y121691D02*
X560329Y120929D01*
X559211Y122554D02*
X559694Y121691D01*
X558932Y123519D02*
X559211Y122554D01*
X558830Y124510D02*
X558932Y123519D01*
X558830Y124510D02*
X558932Y125501D01*
X559211Y126440D01*
X559694Y127329D01*
X560329Y128091D01*
X561091Y128726D01*
X561980Y129209D01*
X562919Y129488D01*
X563910Y129590D01*
X564901Y129488D01*
X565866Y129209D01*
X566729Y128726D01*
X567517Y128091D01*
X568126Y127329D01*
X568609Y126440D01*
X568888Y125501D01*
X568990Y124510D01*
X568888Y123519D02*
X568990Y124510D01*
X568609Y122554D02*
X568888Y123519D01*
X568126Y121691D02*
X568609Y122554D01*
X567517Y120929D02*
X568126Y121691D01*
X566729Y120294D02*
X567517Y120929D01*
X565866Y119811D02*
X566729Y120294D01*
X564901Y119532D02*
X565866Y119811D01*
X563910Y119430D02*
X564901Y119532D01*
X603559Y78892D02*
X604550Y78790D01*
X602620Y79171D02*
X603559Y78892D01*
X601731Y79654D02*
X602620Y79171D01*
X600969Y80289D02*
X601731Y79654D01*
X600334Y81051D02*
X600969Y80289D01*
X599851Y81914D02*
X600334Y81051D01*
X599572Y82879D02*
X599851Y81914D01*
X599470Y83870D02*
X599572Y82879D01*
X599470Y83870D02*
X599572Y84861D01*
X599851Y85800D01*
X600334Y86689D01*
X600969Y87451D01*
X601731Y88086D01*
X602620Y88569D01*
X603559Y88848D01*
X604550Y88950D01*
X605541Y88848D01*
X606506Y88569D01*
X607369Y88086D01*
X608157Y87451D01*
X608766Y86689D01*
X609249Y85800D01*
X609528Y84861D01*
X609630Y83870D01*
X609528Y82879D02*
X609630Y83870D01*
X609249Y81914D02*
X609528Y82879D01*
X608766Y81051D02*
X609249Y81914D01*
X608157Y80289D02*
X608766Y81051D01*
X607369Y79654D02*
X608157Y80289D01*
X606506Y79171D02*
X607369Y79654D01*
X605541Y78892D02*
X606506Y79171D01*
X604550Y78790D02*
X605541Y78892D01*
X603534Y119506D02*
X604525Y119405D01*
X602594Y119786D02*
X603534Y119506D01*
X601705Y120268D02*
X602594Y119786D01*
X600943Y120903D02*
X601705Y120268D01*
X600308Y121665D02*
X600943Y120903D01*
X599851Y122554D02*
X600308Y121665D01*
X599546Y123494D02*
X599851Y122554D01*
X599445Y124485D02*
X599546Y123494D01*
X599445Y124485D02*
X599546Y125475D01*
X599851Y126440D01*
X600308Y127304D01*
X600943Y128091D01*
X601705Y128701D01*
X602594Y129184D01*
X603534Y129463D01*
X604525Y129565D01*
X605541Y129463D01*
X606480Y129184D01*
X607369Y128701D01*
X608131Y128091D01*
X608766Y127304D01*
X609224Y126440D01*
X609528Y125475D01*
X609605Y124485D01*
X609528Y123494D02*
X609605Y124485D01*
X609224Y122554D02*
X609528Y123494D01*
X608766Y121665D02*
X609224Y122554D01*
X608131Y120903D02*
X608766Y121665D01*
X607369Y120268D02*
X608131Y120903D01*
X606480Y119786D02*
X607369Y120268D01*
X605541Y119506D02*
X606480Y119786D01*
X604525Y119405D02*
X605541Y119506D01*
X489415Y127838D02*
X497416D01*
X503029D02*
X511030D01*
X489415Y142037D02*
X497416D01*
X503029D02*
X511030D01*
X486316Y130937D02*
Y138938D01*
X514103Y130937D02*
Y138938D01*
X412348Y56641D02*
Y116636D01*
X472343D01*
Y56641D02*
Y116636D01*
X412348Y56641D02*
X472343D01*
X442346Y101929D02*
X444098Y101828D01*
X445800Y101548D01*
X447476Y101040D01*
X449102Y100355D01*
X450601Y99516D01*
X452023Y98475D01*
X453318Y97307D01*
X454461Y95986D01*
X455452Y94538D01*
X456265Y92989D01*
X456900Y91363D01*
X457332Y89687D01*
X457586Y87959D01*
X457636Y86207D01*
X457484Y84454D02*
X457636Y86207D01*
X457128Y82752D02*
X457484Y84454D01*
X456595Y81101D02*
X457128Y82752D01*
X455858Y79501D02*
X456595Y81101D01*
X454969Y78003D02*
X455858Y79501D01*
X453903Y76631D02*
X454969Y78003D01*
X452683Y75361D02*
X453903Y76631D01*
X451337Y74269D02*
X452683Y75361D01*
X449864Y73329D02*
X451337Y74269D01*
X448289Y72542D02*
X449864Y73329D01*
X446664Y71957D02*
X448289Y72542D01*
X444962Y71576D02*
X446664Y71957D01*
X443209Y71373D02*
X444962Y71576D01*
X441482Y71373D02*
X443209D01*
X439729Y71576D02*
X441482Y71373D01*
X438028Y71957D02*
X439729Y71576D01*
X436402Y72542D02*
X438028Y71957D01*
X434827Y73329D02*
X436402Y72542D01*
X433354Y74269D02*
X434827Y73329D01*
X432008Y75361D02*
X433354Y74269D01*
X430789Y76631D02*
X432008Y75361D01*
X429722Y78003D02*
X430789Y76631D01*
X428807Y79501D02*
X429722Y78003D01*
X428096Y81101D02*
X428807Y79501D01*
X427563Y82752D02*
X428096Y81101D01*
X427207Y84454D02*
X427563Y82752D01*
X427055Y86207D02*
X427207Y84454D01*
X427055Y86207D02*
X427106Y87959D01*
X427360Y89687D01*
X427791Y91363D01*
X428426Y92989D01*
X429239Y94538D01*
X430230Y95986D01*
X431373Y97307D01*
X432668Y98475D01*
X434065Y99516D01*
X435589Y100355D01*
X437215Y101040D01*
X438891Y101548D01*
X440593Y101828D01*
X442346Y101929D01*
X462666Y112039D02*
X463656Y111937D01*
X464596Y111658D01*
X465485Y111175D01*
X466247Y110540D01*
X466882Y109778D01*
X467365Y108914D01*
X467644Y107949D01*
X467746Y106959D01*
X467644Y105968D02*
X467746Y106959D01*
X467365Y105028D02*
X467644Y105968D01*
X466882Y104139D02*
X467365Y105028D01*
X466247Y103377D02*
X466882Y104139D01*
X465485Y102742D02*
X466247Y103377D01*
X464596Y102260D02*
X465485Y102742D01*
X463656Y101980D02*
X464596Y102260D01*
X462666Y101879D02*
X463656Y101980D01*
X461675D02*
X462666Y101879D01*
X460710Y102260D02*
X461675Y101980D01*
X459846Y102742D02*
X460710Y102260D01*
X459059Y103377D02*
X459846Y102742D01*
X458449Y104139D02*
X459059Y103377D01*
X457967Y105028D02*
X458449Y104139D01*
X457687Y105968D02*
X457967Y105028D01*
X457586Y106959D02*
X457687Y105968D01*
X457586Y106959D02*
X457687Y107949D01*
X457967Y108914D01*
X458449Y109778D01*
X459059Y110540D01*
X459846Y111175D01*
X460710Y111658D01*
X461675Y111937D01*
X462666Y112039D01*
Y71399D02*
X463656Y71297D01*
X464596Y71018D01*
X465485Y70535D01*
X466247Y69900D01*
X466882Y69138D01*
X467365Y68274D01*
X467644Y67309D01*
X467746Y66319D01*
X467644Y65328D02*
X467746Y66319D01*
X467365Y64388D02*
X467644Y65328D01*
X466882Y63499D02*
X467365Y64388D01*
X466247Y62737D02*
X466882Y63499D01*
X465485Y62102D02*
X466247Y62737D01*
X464596Y61620D02*
X465485Y62102D01*
X463656Y61340D02*
X464596Y61620D01*
X462666Y61239D02*
X463656Y61340D01*
X461675D02*
X462666Y61239D01*
X460710Y61620D02*
X461675Y61340D01*
X459846Y62102D02*
X460710Y61620D01*
X459059Y62737D02*
X459846Y62102D01*
X458449Y63499D02*
X459059Y62737D01*
X457967Y64388D02*
X458449Y63499D01*
X457687Y65328D02*
X457967Y64388D01*
X457586Y66319D02*
X457687Y65328D01*
X457586Y66319D02*
X457687Y67309D01*
X457967Y68274D01*
X458449Y69138D01*
X459059Y69900D01*
X459846Y70535D01*
X460710Y71018D01*
X461675Y71297D01*
X462666Y71399D01*
X422026Y112039D02*
X423016Y111937D01*
X423956Y111658D01*
X424845Y111175D01*
X425607Y110540D01*
X426242Y109778D01*
X426725Y108914D01*
X427004Y107949D01*
X427106Y106959D01*
X427004Y105968D02*
X427106Y106959D01*
X426725Y105028D02*
X427004Y105968D01*
X426242Y104139D02*
X426725Y105028D01*
X425607Y103377D02*
X426242Y104139D01*
X424845Y102742D02*
X425607Y103377D01*
X423956Y102260D02*
X424845Y102742D01*
X423016Y101980D02*
X423956Y102260D01*
X422026Y101879D02*
X423016Y101980D01*
X421035D02*
X422026Y101879D01*
X420070Y102260D02*
X421035Y101980D01*
X419206Y102742D02*
X420070Y102260D01*
X418419Y103377D02*
X419206Y102742D01*
X417809Y104139D02*
X418419Y103377D01*
X417327Y105028D02*
X417809Y104139D01*
X417047Y105968D02*
X417327Y105028D01*
X416946Y106959D02*
X417047Y105968D01*
X416946Y106959D02*
X417047Y107949D01*
X417327Y108914D01*
X417809Y109778D01*
X418419Y110540D01*
X419206Y111175D01*
X420070Y111658D01*
X421035Y111937D01*
X422026Y112039D01*
X422051Y71424D02*
X423042Y71322D01*
X423981Y71043D01*
X424870Y70560D01*
X425632Y69925D01*
X426267Y69163D01*
X426725Y68274D01*
X427029Y67335D01*
X427131Y66344D01*
X427029Y65353D02*
X427131Y66344D01*
X426725Y64388D02*
X427029Y65353D01*
X426267Y63525D02*
X426725Y64388D01*
X425632Y62737D02*
X426267Y63525D01*
X424870Y62128D02*
X425632Y62737D01*
X423981Y61645D02*
X424870Y62128D01*
X423042Y61366D02*
X423981Y61645D01*
X422051Y61264D02*
X423042Y61366D01*
X421035D02*
X422051Y61264D01*
X420095Y61645D02*
X421035Y61366D01*
X419206Y62128D02*
X420095Y61645D01*
X418444Y62737D02*
X419206Y62128D01*
X417809Y63525D02*
X418444Y62737D01*
X417352Y64388D02*
X417809Y63525D01*
X417047Y65353D02*
X417352Y64388D01*
X416971Y66344D02*
X417047Y65353D01*
X416971Y66344D02*
X417047Y67335D01*
X417352Y68274D01*
X417809Y69163D01*
X418444Y69925D01*
X419206Y70560D01*
X420095Y71043D01*
X421035Y71322D01*
X422051Y71424D01*
X406303Y56641D02*
Y116636D01*
X346308Y56641D02*
X406303D01*
X346308D02*
Y116636D01*
X406303D01*
X374553Y71449D02*
X376306Y71348D01*
X372851Y71729D02*
X374553Y71449D01*
X371175Y72237D02*
X372851Y71729D01*
X369549Y72923D02*
X371175Y72237D01*
X368051Y73761D02*
X369549Y72923D01*
X366628Y74802D02*
X368051Y73761D01*
X365333Y75971D02*
X366628Y74802D01*
X364190Y77291D02*
X365333Y75971D01*
X363199Y78739D02*
X364190Y77291D01*
X362386Y80289D02*
X363199Y78739D01*
X361751Y81914D02*
X362386Y80289D01*
X361320Y83591D02*
X361751Y81914D01*
X361066Y85318D02*
X361320Y83591D01*
X361015Y87070D02*
X361066Y85318D01*
X361015Y87070D02*
X361167Y88823D01*
X361523Y90525D01*
X362056Y92176D01*
X362793Y93776D01*
X363682Y95275D01*
X364749Y96646D01*
X365968Y97916D01*
X367314Y99008D01*
X368787Y99948D01*
X370362Y100736D01*
X371988Y101320D01*
X373689Y101701D01*
X375442Y101904D01*
X377169D01*
X378922Y101701D01*
X380624Y101320D01*
X382249Y100736D01*
X383824Y99948D01*
X385297Y99008D01*
X386643Y97916D01*
X387863Y96646D01*
X388929Y95275D01*
X389844Y93776D01*
X390555Y92176D01*
X391088Y90525D01*
X391444Y88823D01*
X391596Y87070D01*
X391546Y85318D02*
X391596Y87070D01*
X391292Y83591D02*
X391546Y85318D01*
X390860Y81914D02*
X391292Y83591D01*
X390225Y80289D02*
X390860Y81914D01*
X389412Y78739D02*
X390225Y80289D01*
X388421Y77291D02*
X389412Y78739D01*
X387278Y75971D02*
X388421Y77291D01*
X385983Y74802D02*
X387278Y75971D01*
X384586Y73761D02*
X385983Y74802D01*
X383062Y72923D02*
X384586Y73761D01*
X381436Y72237D02*
X383062Y72923D01*
X379760Y71729D02*
X381436Y72237D01*
X378058Y71449D02*
X379760Y71729D01*
X376306Y71348D02*
X378058Y71449D01*
X354995Y61340D02*
X355986Y61239D01*
X354055Y61620D02*
X354995Y61340D01*
X353166Y62102D02*
X354055Y61620D01*
X352404Y62737D02*
X353166Y62102D01*
X351769Y63499D02*
X352404Y62737D01*
X351287Y64363D02*
X351769Y63499D01*
X351007Y65328D02*
X351287Y64363D01*
X350906Y66319D02*
X351007Y65328D01*
X350906Y66319D02*
X351007Y67309D01*
X351287Y68249D01*
X351769Y69138D01*
X352404Y69900D01*
X353166Y70535D01*
X354055Y71018D01*
X354995Y71297D01*
X355986Y71399D01*
X356976Y71297D01*
X357941Y71018D01*
X358805Y70535D01*
X359592Y69900D01*
X360202Y69138D01*
X360685Y68249D01*
X360964Y67309D01*
X361066Y66319D01*
X360964Y65328D02*
X361066Y66319D01*
X360685Y64363D02*
X360964Y65328D01*
X360202Y63499D02*
X360685Y64363D01*
X359592Y62737D02*
X360202Y63499D01*
X358805Y62102D02*
X359592Y62737D01*
X357941Y61620D02*
X358805Y62102D01*
X356976Y61340D02*
X357941Y61620D01*
X355986Y61239D02*
X356976Y61340D01*
X354995Y101980D02*
X355986Y101879D01*
X354055Y102260D02*
X354995Y101980D01*
X353166Y102742D02*
X354055Y102260D01*
X352404Y103377D02*
X353166Y102742D01*
X351769Y104139D02*
X352404Y103377D01*
X351287Y105003D02*
X351769Y104139D01*
X351007Y105968D02*
X351287Y105003D01*
X350906Y106959D02*
X351007Y105968D01*
X350906Y106959D02*
X351007Y107949D01*
X351287Y108889D01*
X351769Y109778D01*
X352404Y110540D01*
X353166Y111175D01*
X354055Y111658D01*
X354995Y111937D01*
X355986Y112039D01*
X356976Y111937D01*
X357941Y111658D01*
X358805Y111175D01*
X359592Y110540D01*
X360202Y109778D01*
X360685Y108889D01*
X360964Y107949D01*
X361066Y106959D01*
X360964Y105968D02*
X361066Y106959D01*
X360685Y105003D02*
X360964Y105968D01*
X360202Y104139D02*
X360685Y105003D01*
X359592Y103377D02*
X360202Y104139D01*
X358805Y102742D02*
X359592Y103377D01*
X357941Y102260D02*
X358805Y102742D01*
X356976Y101980D02*
X357941Y102260D01*
X355986Y101879D02*
X356976Y101980D01*
X395635Y61340D02*
X396626Y61239D01*
X394695Y61620D02*
X395635Y61340D01*
X393806Y62102D02*
X394695Y61620D01*
X393044Y62737D02*
X393806Y62102D01*
X392409Y63499D02*
X393044Y62737D01*
X391927Y64363D02*
X392409Y63499D01*
X391647Y65328D02*
X391927Y64363D01*
X391546Y66319D02*
X391647Y65328D01*
X391546Y66319D02*
X391647Y67309D01*
X391927Y68249D01*
X392409Y69138D01*
X393044Y69900D01*
X393806Y70535D01*
X394695Y71018D01*
X395635Y71297D01*
X396626Y71399D01*
X397616Y71297D01*
X398581Y71018D01*
X399445Y70535D01*
X400232Y69900D01*
X400842Y69138D01*
X401325Y68249D01*
X401604Y67309D01*
X401706Y66319D01*
X401604Y65328D02*
X401706Y66319D01*
X401325Y64363D02*
X401604Y65328D01*
X400842Y63499D02*
X401325Y64363D01*
X400232Y62737D02*
X400842Y63499D01*
X399445Y62102D02*
X400232Y62737D01*
X398581Y61620D02*
X399445Y62102D01*
X397616Y61340D02*
X398581Y61620D01*
X396626Y61239D02*
X397616Y61340D01*
X395610Y101955D02*
X396600Y101853D01*
X394670Y102234D02*
X395610Y101955D01*
X393781Y102717D02*
X394670Y102234D01*
X393019Y103352D02*
X393781Y102717D01*
X392384Y104114D02*
X393019Y103352D01*
X391927Y105003D02*
X392384Y104114D01*
X391622Y105943D02*
X391927Y105003D01*
X391520Y106933D02*
X391622Y105943D01*
X391520Y106933D02*
X391622Y107924D01*
X391927Y108889D01*
X392384Y109753D01*
X393019Y110540D01*
X393781Y111150D01*
X394670Y111632D01*
X395610Y111912D01*
X396600Y112013D01*
X397616Y111912D01*
X398556Y111632D01*
X399445Y111150D01*
X400207Y110540D01*
X400842Y109753D01*
X401299Y108889D01*
X401604Y107924D01*
X401680Y106933D01*
X401604Y105943D02*
X401680Y106933D01*
X401299Y105003D02*
X401604Y105943D01*
X400842Y104114D02*
X401299Y105003D01*
X400207Y103352D02*
X400842Y104114D01*
X399445Y102717D02*
X400207Y103352D01*
X398556Y102234D02*
X399445Y102717D01*
X397616Y101955D02*
X398556Y102234D01*
X396600Y101853D02*
X397616Y101955D01*
X184790Y117119D02*
X184891Y102336D01*
X165892D02*
Y115722D01*
Y102336D02*
X184891D01*
X165790Y139623D02*
X169296Y143128D01*
X181284D02*
X184790Y139623D01*
Y127126D02*
Y139623D01*
X165790Y127126D02*
Y139623D01*
X169296Y143128D02*
X181284D01*
X170286Y119125D02*
X180294D01*
X175239D02*
Y124129D01*
X227970Y117119D02*
X228071Y102336D01*
X209072D02*
Y115722D01*
Y102336D02*
X228071D01*
X208970Y139623D02*
X212476Y143128D01*
X224464D02*
X227970Y139623D01*
Y127126D02*
Y139623D01*
X208970Y127126D02*
Y139623D01*
X212476Y143128D02*
X224464D01*
X213466Y119125D02*
X223474D01*
X218419D02*
Y124129D01*
X249560Y117119D02*
X249661Y102336D01*
X230662D02*
Y115722D01*
Y102336D02*
X249661D01*
X230560Y139623D02*
X234066Y143128D01*
X246054D02*
X249560Y139623D01*
Y127126D02*
Y139623D01*
X230560Y127126D02*
Y139623D01*
X234066Y143128D02*
X246054D01*
X235056Y119125D02*
X245064D01*
X240009D02*
Y124129D01*
X206380Y117119D02*
X206481Y102336D01*
X187482D02*
Y115722D01*
Y102336D02*
X206481D01*
X187380Y139623D02*
X190886Y143128D01*
X202874D02*
X206380Y139623D01*
Y127126D02*
Y139623D01*
X187380Y127126D02*
Y139623D01*
X190886Y143128D02*
X202874D01*
X191876Y119125D02*
X201884D01*
X196829D02*
Y124129D01*
X36533Y75006D02*
Y164414D01*
X-28466Y75006D02*
X36533D01*
X-28466Y164414D02*
X36533D01*
X-28466Y75006D02*
Y164414D01*
X103309Y88595D02*
Y93599D01*
X98356Y88595D02*
X108364D01*
X97366Y112598D02*
X109354D01*
X93860Y96596D02*
Y109093D01*
X112860Y96596D02*
Y109093D01*
X109354Y112598D02*
X112860Y109093D01*
X93860D02*
X97366Y112598D01*
X93962Y71806D02*
X112961D01*
X93962D02*
Y85191D01*
X112860Y86588D02*
X112961Y71806D01*
X83240Y184454D02*
Y193090D01*
X73233Y184454D02*
X83240D01*
X69245Y196316D02*
Y202590D01*
X83240Y205815D02*
Y214451D01*
X73233D02*
X83240D01*
X229877Y290373D02*
Y350367D01*
X169883Y290373D02*
X229877D01*
X169883D02*
Y350367D01*
X229877D01*
X198127Y305181D02*
X199880Y305079D01*
X196426Y305460D02*
X198127Y305181D01*
X194749Y305968D02*
X196426Y305460D01*
X193124Y306654D02*
X194749Y305968D01*
X191625Y307492D02*
X193124Y306654D01*
X190203Y308534D02*
X191625Y307492D01*
X188907Y309702D02*
X190203Y308534D01*
X187764Y311023D02*
X188907Y309702D01*
X186774Y312471D02*
X187764Y311023D01*
X185961Y314020D02*
X186774Y312471D01*
X185326Y315646D02*
X185961Y314020D01*
X184894Y317322D02*
X185326Y315646D01*
X184640Y319049D02*
X184894Y317322D01*
X184589Y320802D02*
X184640Y319049D01*
X184589Y320802D02*
X184742Y322554D01*
X185097Y324256D01*
X185631Y325907D01*
X186367Y327507D01*
X187256Y329006D01*
X188323Y330378D01*
X189542Y331648D01*
X190888Y332740D01*
X192362Y333680D01*
X193936Y334467D01*
X195562Y335051D01*
X197264Y335432D01*
X199016Y335635D01*
X200744D01*
X202496Y335432D01*
X204198Y335051D01*
X205824Y334467D01*
X207398Y333680D01*
X208872Y332740D01*
X210218Y331648D01*
X211437Y330378D01*
X212504Y329006D01*
X213418Y327507D01*
X214129Y325907D01*
X214663Y324256D01*
X215018Y322554D01*
X215171Y320802D01*
X215120Y319049D02*
X215171Y320802D01*
X214866Y317322D02*
X215120Y319049D01*
X214434Y315646D02*
X214866Y317322D01*
X213799Y314020D02*
X214434Y315646D01*
X212986Y312471D02*
X213799Y314020D01*
X211996Y311023D02*
X212986Y312471D01*
X210853Y309702D02*
X211996Y311023D01*
X209557Y308534D02*
X210853Y309702D01*
X208160Y307492D02*
X209557Y308534D01*
X206636Y306654D02*
X208160Y307492D01*
X205011Y305968D02*
X206636Y306654D01*
X203334Y305460D02*
X205011Y305968D01*
X201633Y305181D02*
X203334Y305460D01*
X199880Y305079D02*
X201633Y305181D01*
X178569Y295072D02*
X179560Y294970D01*
X177630Y295351D02*
X178569Y295072D01*
X176741Y295834D02*
X177630Y295351D01*
X175979Y296469D02*
X176741Y295834D01*
X175344Y297231D02*
X175979Y296469D01*
X174861Y298094D02*
X175344Y297231D01*
X174582Y299059D02*
X174861Y298094D01*
X174480Y300050D02*
X174582Y299059D01*
X174480Y300050D02*
X174582Y301041D01*
X174861Y301980D01*
X175344Y302869D01*
X175979Y303631D01*
X176741Y304266D01*
X177630Y304749D01*
X178569Y305028D01*
X179560Y305130D01*
X180551Y305028D01*
X181516Y304749D01*
X182379Y304266D01*
X183167Y303631D01*
X183776Y302869D01*
X184259Y301980D01*
X184538Y301041D01*
X184640Y300050D01*
X184538Y299059D02*
X184640Y300050D01*
X184259Y298094D02*
X184538Y299059D01*
X183776Y297231D02*
X184259Y298094D01*
X183167Y296469D02*
X183776Y297231D01*
X182379Y295834D02*
X183167Y296469D01*
X181516Y295351D02*
X182379Y295834D01*
X180551Y295072D02*
X181516Y295351D01*
X179560Y294970D02*
X180551Y295072D01*
X178569Y335712D02*
X179560Y335610D01*
X177630Y335991D02*
X178569Y335712D01*
X176741Y336474D02*
X177630Y335991D01*
X175979Y337109D02*
X176741Y336474D01*
X175344Y337871D02*
X175979Y337109D01*
X174861Y338734D02*
X175344Y337871D01*
X174582Y339699D02*
X174861Y338734D01*
X174480Y340690D02*
X174582Y339699D01*
X174480Y340690D02*
X174582Y341681D01*
X174861Y342620D01*
X175344Y343509D01*
X175979Y344271D01*
X176741Y344906D01*
X177630Y345389D01*
X178569Y345668D01*
X179560Y345770D01*
X180551Y345668D01*
X181516Y345389D01*
X182379Y344906D01*
X183167Y344271D01*
X183776Y343509D01*
X184259Y342620D01*
X184538Y341681D01*
X184640Y340690D01*
X184538Y339699D02*
X184640Y340690D01*
X184259Y338734D02*
X184538Y339699D01*
X183776Y337871D02*
X184259Y338734D01*
X183167Y337109D02*
X183776Y337871D01*
X182379Y336474D02*
X183167Y337109D01*
X181516Y335991D02*
X182379Y336474D01*
X180551Y335712D02*
X181516Y335991D01*
X179560Y335610D02*
X180551Y335712D01*
X219209Y295072D02*
X220200Y294970D01*
X218270Y295351D02*
X219209Y295072D01*
X217381Y295834D02*
X218270Y295351D01*
X216619Y296469D02*
X217381Y295834D01*
X215984Y297231D02*
X216619Y296469D01*
X215501Y298094D02*
X215984Y297231D01*
X215222Y299059D02*
X215501Y298094D01*
X215120Y300050D02*
X215222Y299059D01*
X215120Y300050D02*
X215222Y301041D01*
X215501Y301980D01*
X215984Y302869D01*
X216619Y303631D01*
X217381Y304266D01*
X218270Y304749D01*
X219209Y305028D01*
X220200Y305130D01*
X221191Y305028D01*
X222156Y304749D01*
X223019Y304266D01*
X223807Y303631D01*
X224416Y302869D01*
X224899Y301980D01*
X225178Y301041D01*
X225280Y300050D01*
X225178Y299059D02*
X225280Y300050D01*
X224899Y298094D02*
X225178Y299059D01*
X224416Y297231D02*
X224899Y298094D01*
X223807Y296469D02*
X224416Y297231D01*
X223019Y295834D02*
X223807Y296469D01*
X222156Y295351D02*
X223019Y295834D01*
X221191Y295072D02*
X222156Y295351D01*
X220200Y294970D02*
X221191Y295072D01*
X219184Y335686D02*
X220175Y335585D01*
X218244Y335966D02*
X219184Y335686D01*
X217355Y336448D02*
X218244Y335966D01*
X216593Y337083D02*
X217355Y336448D01*
X215958Y337845D02*
X216593Y337083D01*
X215501Y338734D02*
X215958Y337845D01*
X215196Y339674D02*
X215501Y338734D01*
X215095Y340665D02*
X215196Y339674D01*
X215095Y340665D02*
X215196Y341655D01*
X215501Y342620D01*
X215958Y343484D01*
X216593Y344271D01*
X217355Y344881D01*
X218244Y345364D01*
X219184Y345643D01*
X220175Y345745D01*
X221191Y345643D01*
X222130Y345364D01*
X223019Y344881D01*
X223781Y344271D01*
X224416Y343484D01*
X224874Y342620D01*
X225178Y341655D01*
X225255Y340665D01*
X225178Y339674D02*
X225255Y340665D01*
X224874Y338734D02*
X225178Y339674D01*
X224416Y337845D02*
X224874Y338734D01*
X223781Y337083D02*
X224416Y337845D01*
X223019Y336448D02*
X223781Y337083D01*
X222130Y335966D02*
X223019Y336448D01*
X221191Y335686D02*
X222130Y335966D01*
X220175Y335585D02*
X221191Y335686D01*
X163507Y263220D02*
Y390220D01*
X96527Y263220D02*
X163507D01*
X96527D02*
Y390220D01*
X163507D01*
X220454Y242392D02*
X228455D01*
X206840D02*
X214841D01*
X220454Y228193D02*
X228455D01*
X206840D02*
X214841D01*
X231554Y231292D02*
Y239293D01*
X203766Y231292D02*
Y239293D01*
X197137Y187757D02*
X205138D01*
X197137Y215544D02*
X205138D01*
X208237Y190830D02*
Y198831D01*
Y204444D02*
Y212445D01*
X194038Y190830D02*
Y198831D01*
Y204444D02*
Y212445D01*
X335920Y117119D02*
X336021Y102336D01*
X317022D02*
Y115722D01*
Y102336D02*
X336021D01*
X316920Y139623D02*
X320426Y143128D01*
X332414D02*
X335920Y139623D01*
Y127126D02*
Y139623D01*
X316920Y127126D02*
Y139623D01*
X320426Y143128D02*
X332414D01*
X321416Y119125D02*
X331424D01*
X326369D02*
Y124129D01*
X314330Y117119D02*
X314431Y102336D01*
X295432D02*
Y115722D01*
Y102336D02*
X314431D01*
X295330Y139623D02*
X298836Y143128D01*
X310824D02*
X314330Y139623D01*
Y127126D02*
Y139623D01*
X295330Y127126D02*
Y139623D01*
X298836Y143128D02*
X310824D01*
X299826Y119125D02*
X309834D01*
X304779D02*
Y124129D01*
X292740Y117119D02*
X292841Y102336D01*
X273842D02*
Y115722D01*
Y102336D02*
X292841D01*
X273740Y139623D02*
X277246Y143128D01*
X289234D02*
X292740Y139623D01*
Y127126D02*
Y139623D01*
X273740Y127126D02*
Y139623D01*
X277246Y143128D02*
X289234D01*
X278236Y119125D02*
X288244D01*
X283189D02*
Y124129D01*
X271150Y117119D02*
X271251Y102336D01*
X252252D02*
Y115722D01*
Y102336D02*
X271251D01*
X252150Y139623D02*
X255656Y143128D01*
X267644D02*
X271150Y139623D01*
Y127126D02*
Y139623D01*
X252150Y127126D02*
Y139623D01*
X255656Y143128D02*
X267644D01*
X256646Y119125D02*
X266654D01*
X261599D02*
Y124129D01*
X65460Y-25960D02*
Y54025D01*
Y-25960D02*
X145445D01*
Y54025D01*
X65460D02*
X145445D01*
X85450Y-5970D02*
Y34035D01*
Y-5970D02*
X125455D01*
Y34035D01*
X85450D02*
X125455D01*
X95458Y1523D02*
X115448D01*
X95458Y26542D02*
X115448D01*
X95458Y-5970D02*
Y34035D01*
X115448Y-5970D02*
Y34035D01*
X258879Y273582D02*
X266880D01*
X245264D02*
X253265D01*
X258879Y259383D02*
X266880D01*
X245264D02*
X253265D01*
X269978Y262482D02*
Y270483D01*
X242191Y262482D02*
Y270483D01*
X239575Y326668D02*
X247576D01*
X253189D02*
X261190D01*
X239575Y340867D02*
X247576D01*
X253189D02*
X261190D01*
X236476Y329767D02*
Y337768D01*
X264263Y329767D02*
Y337768D01*
X226090Y471220D02*
X302061D01*
X226090D02*
Y496620D01*
X327690D01*
Y471220D02*
Y496620D01*
X302061Y471220D02*
X327690D01*
X302061D02*
Y496620D01*
X411462Y480847D02*
Y488848D01*
Y494462D02*
Y502463D01*
X397263Y480847D02*
Y488848D01*
Y494462D02*
Y502463D01*
X400362Y477748D02*
X408363D01*
X400362Y505536D02*
X408363D01*
X380982Y481025D02*
Y489026D01*
Y494639D02*
Y502640D01*
X366783Y481025D02*
Y489026D01*
Y494639D02*
Y502640D01*
X369882Y477926D02*
X377883D01*
X369882Y505714D02*
X377883D01*
X339402Y505536D02*
X347403D01*
X339402Y477748D02*
X347403D01*
X336303Y494462D02*
Y502463D01*
Y480847D02*
Y488848D01*
X350502Y494462D02*
Y502463D01*
Y480847D02*
Y488848D01*
X466402Y445389D02*
X474403D01*
X466402Y417601D02*
X474403D01*
X463303Y434314D02*
Y442315D01*
Y420700D02*
Y428701D01*
X477502Y434314D02*
Y442315D01*
Y420700D02*
Y428701D01*
X433735Y447598D02*
X441736D01*
X447349D02*
X455350D01*
X433735Y461797D02*
X441736D01*
X447349D02*
X455350D01*
X430636Y450697D02*
Y458698D01*
X458424Y450697D02*
Y458698D01*
X335132Y445744D02*
X343133D01*
X335132Y417956D02*
X343133D01*
X332033Y434669D02*
Y442670D01*
Y421055D02*
Y429056D01*
X346232Y434669D02*
Y442670D01*
Y421055D02*
Y429056D01*
X304652Y445922D02*
X312653D01*
X304652Y418134D02*
X312653D01*
X301553Y434847D02*
Y442848D01*
Y421233D02*
Y429234D01*
X315752Y434847D02*
Y442848D01*
Y421233D02*
Y429234D01*
X87660Y530910D02*
X177830D01*
X98074Y532180D02*
X104424Y538530D01*
X111282Y531672D01*
Y531418D02*
Y531672D01*
X87736Y596950D02*
X318698D01*
X73969Y518972D02*
X332745D01*
X87660Y531164D02*
Y596874D01*
X73436Y519150D02*
Y609142D01*
X73715D02*
X332745D01*
X318698Y531164D02*
Y596874D01*
X332745Y519150D02*
Y609142D01*
X178059Y518972D02*
Y538530D01*
X228630D01*
Y518972D02*
Y538530D01*
Y531164D02*
X318698D01*
X37066Y344906D02*
Y349986D01*
X28659D02*
X37066D01*
X28659Y344906D02*
Y349986D01*
X-12464Y344906D02*
Y349986D01*
X-21379D02*
X-12464D01*
X-21379Y344906D02*
Y349986D01*
X-28974Y192506D02*
X44686D01*
Y344906D01*
X-28974D02*
X44686D01*
X-28974Y192506D02*
Y344906D01*
X510395Y301828D02*
X518396D01*
X524009D02*
X532010D01*
X510395Y316027D02*
X518396D01*
X524009D02*
X532010D01*
X507296Y304927D02*
Y312928D01*
X535084Y304927D02*
Y312928D01*
X510395Y286588D02*
X518396D01*
X524009D02*
X532010D01*
X510395Y300787D02*
X518396D01*
X524009D02*
X532010D01*
X507296Y289687D02*
Y297688D01*
X535084Y289687D02*
Y297688D01*
X408160Y421411D02*
Y432841D01*
Y420141D02*
Y421411D01*
Y420141D02*
X410700Y417601D01*
X424670D01*
X425940D01*
X428480Y420141D01*
Y432841D01*
Y440461D02*
Y451891D01*
Y453161D01*
X425940Y455701D02*
X428480Y453161D01*
X411970Y455701D02*
X425940D01*
X410700D02*
X411970D01*
X408160Y453161D02*
X410700Y455701D01*
X408160Y440461D02*
Y453161D01*
X460992Y420700D02*
Y428701D01*
Y434314D02*
Y442315D01*
X446793Y420700D02*
Y428701D01*
Y434314D02*
Y442315D01*
X449892Y417601D02*
X457893D01*
X449892Y445389D02*
X457893D01*
X444482Y420700D02*
Y428701D01*
Y434314D02*
Y442315D01*
X430283Y420700D02*
Y428701D01*
Y434314D02*
Y442315D01*
X433382Y417601D02*
X441383D01*
X433382Y445389D02*
X441383D01*
X596222Y268097D02*
Y276098D01*
X568434Y268097D02*
Y276098D01*
X585147Y279197D02*
X593148D01*
X571533D02*
X579534D01*
X585147Y264998D02*
X593148D01*
X571533D02*
X579534D01*
X271073Y230987D02*
Y238988D01*
X243286Y230987D02*
Y238988D01*
X259999Y242087D02*
X268000D01*
X246385D02*
X254386D01*
X259999Y227888D02*
X268000D01*
X246385D02*
X254386D01*
X346918Y174853D02*
X354919D01*
X346918Y147065D02*
X354919D01*
X343819Y163778D02*
Y171779D01*
Y150164D02*
Y158165D01*
X358018Y163778D02*
Y171779D01*
Y150164D02*
Y158165D01*
X243286Y246252D02*
Y254253D01*
X271073Y246252D02*
Y254253D01*
X246359Y243153D02*
X254360D01*
X259974D02*
X267975D01*
X246359Y257352D02*
X254360D01*
X259974D02*
X267975D01*
X363428Y174853D02*
X371429D01*
X363428Y147065D02*
X371429D01*
X360329Y163778D02*
Y171779D01*
Y150164D02*
Y158165D01*
X374528Y163778D02*
Y171779D01*
Y150164D02*
Y158165D01*
X506836Y319912D02*
Y327913D01*
X534624Y319912D02*
Y327913D01*
X509910Y316813D02*
X517911D01*
X523524D02*
X531525D01*
X509910Y331012D02*
X517911D01*
X523524D02*
X531525D01*
X378642Y147065D02*
X386643D01*
X378642Y174853D02*
X386643D01*
X389742Y150139D02*
Y158140D01*
Y163753D02*
Y171754D01*
X375544Y150139D02*
Y158140D01*
Y163753D02*
Y171754D01*
X365612Y445287D02*
X373613D01*
X365612Y417499D02*
X373613D01*
X362513Y434212D02*
Y442213D01*
Y420598D02*
Y428599D01*
X376712Y434212D02*
Y442213D01*
Y420598D02*
Y428599D01*
X382097Y417499D02*
X390098D01*
X382097Y445287D02*
X390098D01*
X393197Y420572D02*
Y428573D01*
Y434187D02*
Y442188D01*
X378998Y420572D02*
Y428573D01*
Y434187D02*
Y442188D01*
D12*
X703458Y197484D02*
G03*
X704982Y195960I1524J0D01*
G01*
X719993D02*
G03*
X721517Y197484I0J1524D01*
G01*
X704982Y235229D02*
G03*
X703458Y233705I0J-1524D01*
G01*
X721517D02*
G03*
X719993Y235229I-1524J0D01*
G01*
X658220Y151053D02*
G03*
X659744Y152577I0J1524D01*
G01*
Y167588D02*
G03*
X658220Y169112I-1524J0D01*
G01*
X620476Y152577D02*
G03*
X622000Y151053I1524J0D01*
G01*
Y169112D02*
G03*
X620476Y167588I0J-1524D01*
G01*
X512783Y143637D02*
G03*
X514307Y145161I0J1524D01*
G01*
Y160172D02*
G03*
X512783Y161696I-1524J0D01*
G01*
X475038Y145161D02*
G03*
X476562Y143637I1524J0D01*
G01*
Y161696D02*
G03*
X475038Y160172I0J-1524D01*
G01*
X77630Y235432D02*
G03*
X76106Y233908I0J-1524D01*
G01*
Y218897D02*
G03*
X77630Y217373I1524J0D01*
G01*
X115374Y233908D02*
G03*
X113850Y235432I-1524J0D01*
G01*
Y217373D02*
G03*
X115374Y218897I0J1524D01*
G01*
X652556Y298119D02*
Y307720D01*
Y298119D02*
X665764D01*
Y307720D01*
X652556Y316229D02*
Y325830D01*
X665764D01*
Y316229D02*
Y325830D01*
X717326Y318947D02*
Y328548D01*
Y318947D02*
X730534D01*
Y328548D01*
X717326Y337057D02*
Y346658D01*
X730534D01*
Y337057D02*
Y346658D01*
X717326Y284047D02*
Y293649D01*
Y284047D02*
X730534D01*
Y293649D01*
X717326Y302158D02*
Y311759D01*
X730534D01*
Y302158D02*
Y311759D01*
X721517Y197484D02*
Y211581D01*
X703458Y197484D02*
Y211581D01*
X704982Y195960D02*
X719993D01*
X721517Y219608D02*
Y233705D01*
X703458Y219608D02*
Y233705D01*
X704982Y235229D02*
X719993D01*
X682477Y177596D02*
X692078D01*
Y190804D01*
X682477D02*
X692078D01*
X664367Y177596D02*
X673968D01*
X664367D02*
Y190804D01*
X673968D01*
X659744Y152577D02*
Y167588D01*
X644123Y169112D02*
X658220D01*
X644123Y151053D02*
X658220D01*
X620476Y152577D02*
Y167588D01*
X622000Y169112D02*
X636097D01*
X622000Y151053D02*
X636097D01*
X622533Y69900D02*
X660252D01*
X622533Y52628D02*
Y107517D01*
X660252Y52628D02*
Y107517D01*
X622533D02*
X628401D01*
X654385D02*
X660252D01*
X681207Y119176D02*
X690808D01*
Y132384D01*
X681207D02*
X690808D01*
X663097Y119176D02*
X672698D01*
X663097D02*
Y132384D01*
X672698D01*
X649457Y119176D02*
X659058D01*
Y132384D01*
X649457D02*
X659058D01*
X631347Y119176D02*
X640948D01*
X631347D02*
Y132384D01*
X640948D01*
X672393Y143687D02*
X681487D01*
X661573Y161213D02*
X671987D01*
X661573Y143687D02*
Y161213D01*
X681893D02*
X692307D01*
Y143687D02*
Y161213D01*
X685322Y102514D02*
Y114401D01*
Y72084D02*
Y83997D01*
X665002Y115925D02*
X683798D01*
X665002Y70560D02*
X683798D01*
X663478Y102514D02*
Y114401D01*
Y72084D02*
Y83997D01*
X586316Y431876D02*
X595917D01*
Y445084D01*
X586316D02*
X595917D01*
X568205Y431876D02*
X577807D01*
X568205D02*
Y445084D01*
X577807D01*
X586493Y401396D02*
X596095D01*
Y414604D01*
X586493D02*
X596095D01*
X568383Y401396D02*
X577984D01*
X568383D02*
Y414604D01*
X577984D01*
X586493Y370916D02*
X596095D01*
Y384124D01*
X586493D02*
X596095D01*
X568383Y370916D02*
X577984D01*
X568383D02*
Y384124D01*
X577984D01*
X586316Y340436D02*
X595917D01*
Y353644D01*
X586316D02*
X595917D01*
X568205Y340436D02*
X577807D01*
X568205D02*
Y353644D01*
X577807D01*
X568383Y323164D02*
X577984D01*
X568383Y309956D02*
Y323164D01*
Y309956D02*
X577984D01*
X586493Y323164D02*
X596095D01*
Y309956D02*
Y323164D01*
X586493Y309956D02*
X596095D01*
X568205Y292684D02*
X577807D01*
X568205Y279476D02*
Y292684D01*
Y279476D02*
X577807D01*
X586316Y292684D02*
X595917D01*
Y279476D02*
Y292684D01*
X586316Y279476D02*
X595917D01*
X568383Y263474D02*
X577984D01*
X568383Y250266D02*
Y263474D01*
Y250266D02*
X577984D01*
X586493Y263474D02*
X596095D01*
Y250266D02*
Y263474D01*
X586493Y250266D02*
X596095D01*
X568383Y234264D02*
X577984D01*
X568383Y221056D02*
Y234264D01*
Y221056D02*
X577984D01*
X586493Y234264D02*
X596095D01*
Y221056D02*
Y234264D01*
X586493Y221056D02*
X596095D01*
X568205Y203784D02*
X577807D01*
X568205Y190576D02*
Y203784D01*
Y190576D02*
X577807D01*
X586316Y203784D02*
X595917D01*
Y190576D02*
Y203784D01*
X586316Y190576D02*
X595917D01*
X507245Y346024D02*
X516847D01*
X507245Y332816D02*
Y346024D01*
Y332816D02*
X516847D01*
X525356Y346024D02*
X534957D01*
Y332816D02*
Y346024D01*
X525356Y332816D02*
X534957D01*
X524997Y249986D02*
X534598D01*
Y263194D01*
X524997D02*
X534598D01*
X506887Y249986D02*
X516488D01*
X506887D02*
Y263194D01*
X516488D01*
X543034Y145415D02*
Y155016D01*
X529826D02*
X543034D01*
X529826Y145415D02*
Y155016D01*
X543034Y127305D02*
Y136906D01*
X529826Y127305D02*
X543034D01*
X529826D02*
Y136906D01*
X529064Y145415D02*
Y155016D01*
X515856D02*
X529064D01*
X515856Y145415D02*
Y155016D01*
X529064Y127305D02*
Y136906D01*
X515856Y127305D02*
X529064D01*
X515856D02*
Y136906D01*
X498686Y161696D02*
X512783D01*
X498686Y143637D02*
X512783D01*
X514307Y145161D02*
Y160172D01*
X476562Y161696D02*
X490659D01*
X476562Y143637D02*
X490659D01*
X475038Y145161D02*
Y160172D01*
X419232Y147802D02*
Y157403D01*
Y147802D02*
X432440D01*
Y157403D01*
X419232Y165912D02*
Y175513D01*
X432440D01*
Y165912D02*
Y175513D01*
X433202Y147802D02*
Y157403D01*
Y147802D02*
X446410D01*
Y157403D01*
X433202Y165912D02*
Y175513D01*
X446410D01*
Y165912D02*
Y175513D01*
X405262Y147802D02*
Y157403D01*
Y147802D02*
X418470D01*
Y157403D01*
X405262Y165912D02*
Y175513D01*
X418470D01*
Y165912D02*
Y175513D01*
X391292Y147802D02*
Y157403D01*
Y147802D02*
X404500D01*
Y157403D01*
X391292Y165912D02*
Y175513D01*
X404500D01*
Y165912D02*
Y175513D01*
X62745Y123494D02*
X72347D01*
X62745Y110286D02*
Y123494D01*
Y110286D02*
X72347D01*
X80856Y123494D02*
X90457D01*
Y110286D02*
Y123494D01*
X80856Y110286D02*
X90457D01*
X80856Y95326D02*
X90457D01*
Y108534D01*
X80856D02*
X90457D01*
X62745Y95326D02*
X72347D01*
X62745D02*
Y108534D01*
X72347D01*
X80856Y80086D02*
X90457D01*
Y93294D01*
X80856D02*
X90457D01*
X62745Y80086D02*
X72347D01*
X62745D02*
Y93294D01*
X72347D01*
X77630Y217373D02*
X91727D01*
X77630Y235432D02*
X91727D01*
X76106Y218897D02*
Y233908D01*
X99753Y217373D02*
X113850D01*
X99753Y235432D02*
X113850D01*
X115374Y218897D02*
Y233908D01*
X115044Y205232D02*
Y214833D01*
X101836D02*
X115044D01*
X101836Y205232D02*
Y214833D01*
X115044Y187122D02*
Y196723D01*
X101836Y187122D02*
X115044D01*
X101836D02*
Y196723D01*
X86952Y182194D02*
X96553D01*
X86952Y168986D02*
Y182194D01*
Y168986D02*
X96553D01*
X105062Y182194D02*
X114663D01*
Y168986D02*
Y182194D01*
X105062Y168986D02*
X114663D01*
X221826Y242646D02*
X231427D01*
Y255854D01*
X221826D02*
X231427D01*
X203715Y242646D02*
X213317D01*
X203715D02*
Y255854D01*
X213317D01*
X228353Y202006D02*
X237955D01*
Y215214D01*
X228353D02*
X237955D01*
X210243Y202006D02*
X219844D01*
X210243D02*
Y215214D01*
X219844D01*
X228353Y188036D02*
X237955D01*
Y201244D01*
X228353D02*
X237955D01*
X210243Y188036D02*
X219844D01*
X210243D02*
Y201244D01*
X219844D01*
X169375Y175234D02*
Y226746D01*
X138945D02*
X169375D01*
X138945Y175234D02*
Y226746D01*
Y175234D02*
X169375D01*
X319816Y72643D02*
Y82244D01*
Y72643D02*
X333024D01*
Y82244D01*
X319816Y90753D02*
Y100355D01*
X333024D01*
Y90753D02*
Y100355D01*
X298226Y72465D02*
Y82067D01*
Y72465D02*
X311434D01*
Y82067D01*
X298226Y90576D02*
Y100177D01*
X311434D01*
Y90576D02*
Y100177D01*
X276636Y72643D02*
Y82244D01*
Y72643D02*
X289844D01*
Y82244D01*
X276636Y90753D02*
Y100355D01*
X289844D01*
Y90753D02*
Y100355D01*
X255046Y72643D02*
Y82244D01*
Y72643D02*
X268254D01*
Y82244D01*
X255046Y90753D02*
Y100355D01*
X268254D01*
Y90753D02*
Y100355D01*
X233456Y72542D02*
Y82143D01*
Y72542D02*
X246664D01*
Y82143D01*
X233456Y90652D02*
Y100253D01*
X246664D01*
Y90652D02*
Y100253D01*
X211866Y72542D02*
Y82143D01*
Y72542D02*
X225074D01*
Y82143D01*
X211866Y90652D02*
Y100253D01*
X225074D01*
Y90652D02*
Y100253D01*
X190276Y72465D02*
Y82067D01*
Y72465D02*
X203484D01*
Y82067D01*
X190276Y90576D02*
Y100177D01*
X203484D01*
Y90576D02*
Y100177D01*
X168686Y72542D02*
Y82143D01*
Y72542D02*
X181894D01*
Y82143D01*
X168686Y90652D02*
Y100253D01*
X181894D01*
Y90652D02*
Y100253D01*
X235765Y323620D02*
X243385D01*
X234495D02*
X235765D01*
X236755Y318515D02*
Y321080D01*
X270055D01*
Y275360D02*
Y321080D01*
X253545Y275360D02*
X270055D01*
X237035D02*
X253545D01*
X236755Y318515D02*
X237035Y275360D01*
X234495Y314730D02*
Y323620D01*
X242778Y355904D02*
X252379D01*
X242778Y342696D02*
Y355904D01*
Y342696D02*
X252379D01*
X260888Y355904D02*
X270489D01*
Y342696D02*
Y355904D01*
X260888Y342696D02*
X270489D01*
X242778Y369874D02*
X252379D01*
X242778Y356666D02*
Y369874D01*
Y356666D02*
X252379D01*
X260888Y369874D02*
X270489D01*
Y356666D02*
Y369874D01*
X260888Y356666D02*
X270489D01*
X242778Y383844D02*
X252379D01*
X242778Y370636D02*
Y383844D01*
Y370636D02*
X252379D01*
X260888Y383844D02*
X270489D01*
Y370636D02*
Y383844D01*
X260888Y370636D02*
X270489D01*
X171226Y481482D02*
Y491083D01*
Y481482D02*
X184434D01*
Y491083D01*
X171226Y499592D02*
Y509193D01*
X184434D01*
Y499592D02*
Y509193D01*
X337875Y575614D02*
X347477D01*
X337875Y562406D02*
Y575614D01*
Y562406D02*
X347477D01*
X355986Y575614D02*
X365587D01*
Y562406D02*
Y575614D01*
X355986Y562406D02*
X365587D01*
X355986Y548436D02*
X365587D01*
Y561644D01*
X355986D02*
X365587D01*
X337875Y548436D02*
X347477D01*
X337875D02*
Y561644D01*
X347477D01*
X412986Y477875D02*
Y487477D01*
Y477875D02*
X426194D01*
Y487477D01*
X412986Y495986D02*
Y505587D01*
X426194D01*
Y495986D02*
Y505587D01*
X382506Y478053D02*
Y487654D01*
Y478053D02*
X395714D01*
Y487654D01*
X382506Y496163D02*
Y505765D01*
X395714D01*
Y496163D02*
Y505765D01*
X365234Y495986D02*
Y505587D01*
X352026D02*
X365234D01*
X352026Y495986D02*
Y505587D01*
X365234Y477875D02*
Y487477D01*
X352026Y477875D02*
X365234D01*
X352026D02*
Y487477D01*
X492234Y436296D02*
Y445897D01*
X479026D02*
X492234D01*
X479026Y436296D02*
Y445897D01*
X492234Y418185D02*
Y427787D01*
X479026Y418185D02*
X492234D01*
X479026D02*
Y427787D01*
X360964Y436193D02*
Y445795D01*
X347756D02*
X360964D01*
X347756Y436193D02*
Y445795D01*
X360964Y418083D02*
Y427684D01*
X347756Y418083D02*
X360964D01*
X347756D02*
Y427684D01*
X330484Y436371D02*
Y445972D01*
X317276D02*
X330484D01*
X317276Y436371D02*
Y445972D01*
X330484Y418261D02*
Y427862D01*
X317276Y418261D02*
X330484D01*
X317276D02*
Y427862D01*
X655883Y328218D02*
X665485D01*
Y341426D01*
X655883D02*
X665485D01*
X637773Y328218D02*
X647374D01*
X637773D02*
Y341426D01*
X647374D01*
D13*
X495561Y80340D02*
G03*
X498559Y80340I1499J0D01*
G01*
D02*
G03*
X495561Y80340I-1499J0D01*
G01*
X701807Y287095D02*
X702315Y286994D01*
X701349Y287349D02*
X701807Y287095D01*
X701019Y287756D02*
X701349Y287349D01*
X700841Y288238D02*
X701019Y287756D01*
X700841Y288238D02*
Y288746D01*
X701019Y289254D01*
X701375Y289635D01*
X701807Y289889D01*
X702315Y289991D01*
X702848Y289889D01*
X703280Y289635D01*
X703635Y289254D01*
X703813Y288746D01*
Y288238D02*
Y288746D01*
X703635Y287756D02*
X703813Y288238D01*
X703305Y287349D02*
X703635Y287756D01*
X702848Y287095D02*
X703305Y287349D01*
X702340Y286994D02*
X702848Y287095D01*
X161323Y183362D02*
X161856Y183439D01*
X160891Y183083D02*
X161323Y183362D01*
X160535Y182702D02*
X160891Y183083D01*
X160358Y182194D02*
X160535Y182702D01*
X160358Y181686D02*
Y182194D01*
Y181686D02*
X160535Y181203D01*
X160891Y180797D01*
X161323Y180543D01*
X161856Y180441D01*
X162364Y180543D01*
X162821Y180797D01*
X163152Y181203D01*
X163329Y181686D01*
Y182194D01*
X163152Y182702D02*
X163329Y182194D01*
X162821Y183083D02*
X163152Y182702D01*
X162364Y183362D02*
X162821Y183083D01*
X161856Y183439D02*
X162364Y183362D01*
X180474Y175692D02*
X180982Y175768D01*
X180017Y175412D02*
X180474Y175692D01*
X179687Y175031D02*
X180017Y175412D01*
X179509Y174523D02*
X179687Y175031D01*
X179509Y174015D02*
Y174523D01*
Y174015D02*
X179687Y173533D01*
X180017Y173126D01*
X180474Y172872D01*
X180982Y172771D01*
X181490Y172872D01*
X181948Y173126D01*
X182278Y173533D01*
X182456Y174015D01*
Y174523D01*
X182278Y175031D02*
X182456Y174523D01*
X181948Y175412D02*
X182278Y175031D01*
X181490Y175692D02*
X181948Y175412D01*
X180982Y175768D02*
X181490Y175692D01*
D14*
X439000Y254000D02*
G03*
X439000Y254000I-3000J0D01*
G01*
D15*
X458500Y245500D02*
G03*
X458500Y245500I-1250J0D01*
G01*
D16*
X708538Y300151D02*
X710595D01*
Y341680D01*
X708639Y341655D02*
X710595Y341680D01*
X668685Y341553D02*
X670641D01*
X668685Y300024D02*
Y341553D01*
Y300024D02*
X670844Y300049D01*
X490837Y94970D02*
X491751Y94894D01*
X492640Y94589D01*
X493428Y94132D01*
X494114Y93523D01*
X494672Y92761D01*
X495053Y91922D01*
X495231Y91033D01*
Y90094D02*
Y91033D01*
X495053Y89205D02*
X495231Y90094D01*
X494672Y88341D02*
X495053Y89205D01*
X494114Y87604D02*
X494672Y88341D01*
X493428Y86995D02*
X494114Y87604D01*
X492640Y86512D02*
X493428Y86995D01*
X491751Y86233D02*
X492640Y86512D01*
X490837Y86131D02*
X491751Y86233D01*
X536786Y105715D02*
X541358D01*
X524086D02*
X533534D01*
X511386D02*
X520834D01*
X498686D02*
X508134D01*
X490837D02*
X495434D01*
X541358Y75285D02*
Y105715D01*
X536786Y75285D02*
X541358D01*
X524086D02*
X533534D01*
X511386D02*
X520834D01*
X498686D02*
X508134D01*
X490837D02*
X495434D01*
X490837Y94970D02*
Y105715D01*
Y75285D02*
Y86131D01*
Y105715D02*
X541358D01*
X490837Y75285D02*
X541358D01*
D17*
X669853Y283489D02*
X674349D01*
X669853Y278993D02*
Y283489D01*
X704347Y278993D02*
Y283489D01*
X699851D02*
X704347D01*
X699851Y248995D02*
X704347D01*
Y253491D01*
X669853Y248995D02*
X674349D01*
X669853D02*
Y253491D01*
D18*
X681715Y93801D02*
X682833Y93243D01*
X680496Y94157D02*
X681715Y93801D01*
X679251Y94360D02*
X680496Y94157D01*
X677981Y94360D02*
X679251D01*
X676737Y94157D02*
X677981Y94360D01*
X675543Y93801D02*
X676737Y94157D01*
X674400Y93243D02*
X675543Y93801D01*
X665942Y93243D02*
X667085Y92709D01*
X668279Y92328D01*
X669549Y92150D01*
X670793D01*
X672063Y92328D01*
X673257Y92709D01*
X674400Y93243D01*
D19*
X334000Y356000D02*
X446000D01*
X334000Y244000D02*
X446000D01*
X334000D02*
Y356000D01*
X446000Y244000D02*
Y356000D01*
D20*
X754463Y536234D02*
X752982Y537715D01*
X750019D01*
X748538Y536234D01*
Y530309D01*
X750019Y528828D01*
X752982D01*
X754463Y530309D01*
Y533272D01*
X751500D01*
X757425Y528828D02*
Y537715D01*
X763350Y528828D01*
Y537715D01*
X766312D02*
Y528828D01*
X770756D01*
X772237Y530309D01*
Y536234D01*
X770756Y537715D01*
X766312D01*
X848443Y536234D02*
X846962Y537715D01*
X843999D01*
X842518Y536234D01*
Y530309D01*
X843999Y528828D01*
X846962D01*
X848443Y530309D01*
Y533272D01*
X845480D01*
X851405Y528828D02*
Y537715D01*
X857330Y528828D01*
Y537715D01*
X860292D02*
Y528828D01*
X864736D01*
X866217Y530309D01*
Y536234D01*
X864736Y537715D01*
X860292D01*
X848473Y53684D02*
X846992Y55165D01*
X844029D01*
X842548Y53684D01*
Y47759D01*
X844029Y46278D01*
X846992D01*
X848473Y47759D01*
Y50722D01*
X845510D01*
X851435Y46278D02*
Y55165D01*
X857360Y46278D01*
Y55165D01*
X860322D02*
Y46278D01*
X864766D01*
X866247Y47759D01*
Y53684D01*
X864766Y55165D01*
X860322D01*
X848473Y103214D02*
X846992Y104695D01*
X844029D01*
X842548Y103214D01*
Y97289D01*
X844029Y95808D01*
X846992D01*
X848473Y97289D01*
Y100252D01*
X845510D01*
X851435Y95808D02*
Y104695D01*
X857360Y95808D01*
Y104695D01*
X860322D02*
Y95808D01*
X864766D01*
X866247Y97289D01*
Y103214D01*
X864766Y104695D01*
X860322D01*
X754463Y458764D02*
X752982Y460245D01*
X750019D01*
X748538Y458764D01*
Y457283D01*
X750019Y455802D01*
X752982D01*
X754463Y454320D01*
Y452839D01*
X752982Y451358D01*
X750019D01*
X748538Y452839D01*
X757425Y460245D02*
X763350D01*
X760387D01*
Y451358D01*
X772237Y460245D02*
X766312D01*
Y451358D01*
X772237D01*
X766312Y455802D02*
X769275D01*
X754463Y433414D02*
X752982Y434895D01*
X750019D01*
X748538Y433414D01*
Y431933D01*
X750019Y430452D01*
X752982D01*
X754463Y428970D01*
Y427489D01*
X752982Y426008D01*
X750019D01*
X748538Y427489D01*
X761869Y434895D02*
X758906D01*
X757425Y433414D01*
Y427489D01*
X758906Y426008D01*
X761869D01*
X763350Y427489D01*
Y433414D01*
X761869Y434895D01*
X766312Y426008D02*
Y434895D01*
X769275Y431933D01*
X772237Y434895D01*
Y426008D01*
X775199Y434895D02*
X778162D01*
X776681D01*
Y426008D01*
X775199D01*
X778162D01*
X842518Y282656D02*
X845480D01*
X843999D01*
Y273769D01*
X842518D01*
X845480D01*
X849924Y282656D02*
Y273769D01*
X855849D01*
X858811Y272288D02*
X864736D01*
X873623Y282656D02*
X867698D01*
Y278213D01*
X870661D01*
X867698D01*
Y273769D01*
X876585Y282656D02*
Y273769D01*
X881029D01*
X882510Y275250D01*
Y276732D01*
X881029Y278213D01*
X876585D01*
X881029D01*
X882510Y279694D01*
Y281175D01*
X881029Y282656D01*
X876585D01*
X848443Y458764D02*
X846962Y460245D01*
X843999D01*
X842518Y458764D01*
Y452839D01*
X843999Y451358D01*
X846962D01*
X848443Y452839D01*
X851405Y460245D02*
Y451358D01*
X857330D01*
X860292Y460245D02*
Y451358D01*
Y454320D01*
X866217Y460245D01*
X861773Y455802D01*
X866217Y451358D01*
X848443Y433414D02*
X846962Y434895D01*
X843999D01*
X842518Y433414D01*
Y431933D01*
X843999Y430452D01*
X846962D01*
X848443Y428970D01*
Y427489D01*
X846962Y426008D01*
X843999D01*
X842518Y427489D01*
X851405Y434895D02*
X854368D01*
X852886D01*
Y426008D01*
X851405D01*
X854368D01*
X858811D02*
Y434895D01*
X861773Y431933D01*
X864736Y434895D01*
Y426008D01*
X872142Y434895D02*
X869179D01*
X867698Y433414D01*
Y427489D01*
X869179Y426008D01*
X872142D01*
X873623Y427489D01*
Y433414D01*
X872142Y434895D01*
X748538Y409495D02*
X751500D01*
X750019D01*
Y400608D01*
X748538D01*
X751500D01*
X760387Y409495D02*
X757425D01*
X755944Y408014D01*
Y402089D01*
X757425Y400608D01*
X760387D01*
X761869Y402089D01*
Y408014D01*
X760387Y409495D01*
X764831Y400608D02*
Y402089D01*
X766312D01*
Y400608D01*
X764831D01*
X772237D02*
X775199D01*
X773718D01*
Y409495D01*
X772237Y408014D01*
X779643D02*
X781124Y409495D01*
X784087D01*
X785568Y408014D01*
Y406533D01*
X784087Y405051D01*
X782605D01*
X784087D01*
X785568Y403570D01*
Y402089D01*
X784087Y400608D01*
X781124D01*
X779643Y402089D01*
X842518Y409495D02*
X845480D01*
X843999D01*
Y400608D01*
X842518D01*
X845480D01*
X854368Y409495D02*
X851405D01*
X849924Y408014D01*
Y402089D01*
X851405Y400608D01*
X854368D01*
X855849Y402089D01*
Y408014D01*
X854368Y409495D01*
X858811Y400608D02*
Y402089D01*
X860292D01*
Y400608D01*
X858811D01*
X866217D02*
X869179D01*
X867698D01*
Y409495D01*
X866217Y408014D01*
X879548Y400608D02*
X873623D01*
X879548Y406533D01*
Y408014D01*
X878066Y409495D01*
X875104D01*
X873623Y408014D01*
X748538Y384095D02*
X751500D01*
X750019D01*
Y375208D01*
X748538D01*
X751500D01*
X760387Y384095D02*
X757425D01*
X755944Y382614D01*
Y376689D01*
X757425Y375208D01*
X760387D01*
X761869Y376689D01*
Y382614D01*
X760387Y384095D01*
X764831Y375208D02*
Y376689D01*
X766312D01*
Y375208D01*
X764831D01*
X772237D02*
X775199D01*
X773718D01*
Y384095D01*
X772237Y382614D01*
X779643Y375208D02*
X782605D01*
X781124D01*
Y384095D01*
X779643Y382614D01*
X842518Y384095D02*
X845480D01*
X843999D01*
Y375208D01*
X842518D01*
X845480D01*
X854368Y384095D02*
X851405D01*
X849924Y382614D01*
Y376689D01*
X851405Y375208D01*
X854368D01*
X855849Y376689D01*
Y382614D01*
X854368Y384095D01*
X858811Y375208D02*
Y376689D01*
X860292D01*
Y375208D01*
X858811D01*
X866217Y382614D02*
X867698Y384095D01*
X870660D01*
X872142Y382614D01*
Y381133D01*
X870660Y379651D01*
X869179D01*
X870660D01*
X872142Y378170D01*
Y376689D01*
X870660Y375208D01*
X867698D01*
X866217Y376689D01*
X875104Y382614D02*
X876585Y384095D01*
X879548D01*
X881029Y382614D01*
Y381133D01*
X879548Y379651D01*
X881029Y378170D01*
Y376689D01*
X879548Y375208D01*
X876585D01*
X875104Y376689D01*
Y378170D01*
X876585Y379651D01*
X875104Y381133D01*
Y382614D01*
X876585Y379651D02*
X879548D01*
X842518Y360176D02*
Y354252D01*
X845480Y351289D01*
X848443Y354252D01*
Y360176D01*
X855849D02*
X852886D01*
X851405Y358695D01*
Y352770D01*
X852886Y351289D01*
X855849D01*
X857330Y352770D01*
Y358695D01*
X855849Y360176D01*
X860292Y349808D02*
X866217D01*
X875104Y360176D02*
X869179D01*
Y355733D01*
X872142D01*
X869179D01*
Y351289D01*
X878066Y360176D02*
Y351289D01*
X882510D01*
X883991Y352770D01*
Y354252D01*
X882510Y355733D01*
X878066D01*
X882510D01*
X883991Y357214D01*
Y358695D01*
X882510Y360176D01*
X878066D01*
X842518Y334726D02*
X845480D01*
X843999D01*
Y325839D01*
X842518D01*
X845480D01*
X849924Y334726D02*
X852886D01*
X851405D01*
Y325839D01*
X849924D01*
X852886D01*
X857330D02*
Y334726D01*
X863255Y325839D01*
Y334726D01*
X866217Y324358D02*
X872142D01*
X881029Y334726D02*
X875104D01*
Y330283D01*
X878066D01*
X875104D01*
Y325839D01*
X883991Y334726D02*
Y325839D01*
X888435D01*
X889916Y327320D01*
Y328802D01*
X888435Y330283D01*
X883991D01*
X888435D01*
X889916Y331764D01*
Y333245D01*
X888435Y334726D01*
X883991D01*
X842518Y309326D02*
Y303402D01*
X845480Y300439D01*
X848443Y303402D01*
Y309326D01*
X851405D02*
X854368D01*
X852886D01*
Y300439D01*
X851405D01*
X854368D01*
X858811D02*
Y309326D01*
X864736Y300439D01*
Y309326D01*
X867698Y298958D02*
X873623D01*
X882510Y309326D02*
X876585D01*
Y304883D01*
X879548D01*
X876585D01*
Y300439D01*
X885472Y309326D02*
Y300439D01*
X889916D01*
X891397Y301920D01*
Y303402D01*
X889916Y304883D01*
X885472D01*
X889916D01*
X891397Y306364D01*
Y307845D01*
X889916Y309326D01*
X885472D01*
X867523Y255825D02*
X861598D01*
Y246938D01*
X867523D01*
X861598Y251381D02*
X864560D01*
X870485Y246938D02*
Y255825D01*
X874929D01*
X876410Y254344D01*
Y251381D01*
X874929Y249900D01*
X870485D01*
X879372Y255825D02*
Y246938D01*
X882335Y249900D01*
X885297Y246938D01*
Y255825D01*
X888259Y246938D02*
Y255825D01*
X891222Y252863D01*
X894184Y255825D01*
Y246938D01*
X897147Y255825D02*
X903071D01*
Y254344D01*
X897147Y248419D01*
Y246938D01*
X906034D02*
Y252863D01*
X908996Y255825D01*
X911958Y252863D01*
Y246938D01*
Y251381D01*
X906034D01*
X867523Y230425D02*
X861598D01*
Y221538D01*
X867523D01*
X861598Y225982D02*
X864560D01*
X870485Y221538D02*
Y230425D01*
X874929D01*
X876410Y228944D01*
Y225982D01*
X874929Y224500D01*
X870485D01*
X879372Y230425D02*
Y221538D01*
X882335Y224500D01*
X885297Y221538D01*
Y230425D01*
X888259Y221538D02*
Y230425D01*
X891222Y227463D01*
X894184Y230425D01*
Y221538D01*
X897147Y230425D02*
X903071D01*
Y228944D01*
X897147Y223019D01*
Y221538D01*
X906034Y230425D02*
Y221538D01*
X910477D01*
X911958Y223019D01*
Y224500D01*
X910477Y225982D01*
X906034D01*
X910477D01*
X911958Y227463D01*
Y228944D01*
X910477Y230425D01*
X906034D01*
X867523Y205025D02*
X861598D01*
Y196138D01*
X867523D01*
X861598Y200581D02*
X864560D01*
X870485Y196138D02*
Y205025D01*
X874929D01*
X876410Y203544D01*
Y200581D01*
X874929Y199100D01*
X870485D01*
X879372Y205025D02*
Y196138D01*
X882335Y199100D01*
X885297Y196138D01*
Y205025D01*
X888259Y196138D02*
Y205025D01*
X891222Y202063D01*
X894184Y205025D01*
Y196138D01*
X897147D02*
X900109D01*
X898628D01*
Y205025D01*
X897147Y203544D01*
X904552Y205025D02*
Y196138D01*
X908996D01*
X910477Y197619D01*
Y199100D01*
X908996Y200581D01*
X904552D01*
X908996D01*
X910477Y202063D01*
Y203544D01*
X908996Y205025D01*
X904552D01*
X867523Y179625D02*
X861598D01*
Y170738D01*
X867523D01*
X861598Y175182D02*
X864560D01*
X870485Y170738D02*
Y179625D01*
X874929D01*
X876410Y178144D01*
Y175182D01*
X874929Y173700D01*
X870485D01*
X879372Y179625D02*
Y170738D01*
X882335Y173700D01*
X885297Y170738D01*
Y179625D01*
X888259Y170738D02*
Y179625D01*
X891222Y176663D01*
X894184Y179625D01*
Y170738D01*
X897147D02*
X900109D01*
X898628D01*
Y179625D01*
X897147Y178144D01*
X904552Y170738D02*
Y176663D01*
X907515Y179625D01*
X910477Y176663D01*
Y170738D01*
Y175182D01*
X904552D01*
X867523Y154225D02*
X861598D01*
Y145338D01*
X867523D01*
X861598Y149782D02*
X864560D01*
X870485Y145338D02*
Y154225D01*
X874929D01*
X876410Y152744D01*
Y149782D01*
X874929Y148300D01*
X870485D01*
X879372Y154225D02*
Y145338D01*
X882335Y148300D01*
X885297Y145338D01*
Y154225D01*
X888259Y145338D02*
Y154225D01*
X891222Y151263D01*
X894184Y154225D01*
Y145338D01*
X897147Y152744D02*
X898628Y154225D01*
X901590D01*
X903071Y152744D01*
Y151263D01*
X901590Y149782D01*
X900109D01*
X901590D01*
X903071Y148300D01*
Y146819D01*
X901590Y145338D01*
X898628D01*
X897147Y146819D01*
X906034Y145338D02*
Y151263D01*
X908996Y154225D01*
X911958Y151263D01*
Y145338D01*
Y149782D01*
X906034D01*
X777368Y112268D02*
Y118193D01*
X774406Y115230D02*
X780331D01*
X774406Y121155D02*
X772925Y122636D01*
Y125599D01*
X774406Y127080D01*
X775887D01*
X777368Y125599D01*
Y124117D01*
Y125599D01*
X778850Y127080D01*
X780331D01*
X781812Y125599D01*
Y122636D01*
X780331Y121155D01*
X781812Y130042D02*
X780331D01*
Y131523D01*
X781812D01*
Y130042D01*
X774406Y137448D02*
X772925Y138929D01*
Y141892D01*
X774406Y143373D01*
X775887D01*
X777368Y141892D01*
Y140411D01*
Y141892D01*
X778850Y143373D01*
X780331D01*
X781812Y141892D01*
Y138929D01*
X780331Y137448D01*
X772925Y146335D02*
X778850D01*
X781812Y149298D01*
X778850Y152260D01*
X772925D01*
X771655Y65278D02*
X777580D01*
X780542Y68240D01*
X777580Y71203D01*
X771655D01*
X780542Y74165D02*
Y77127D01*
Y75646D01*
X774617D01*
Y74165D01*
X780542Y81571D02*
X774617D01*
Y86015D01*
X776098Y87496D01*
X780542D01*
X870063Y76544D02*
X868581Y78025D01*
X865619D01*
X864138Y76544D01*
Y70619D01*
X865619Y69138D01*
X868581D01*
X870063Y70619D01*
Y73582D01*
X867100D01*
X873025Y69138D02*
Y78025D01*
X878950Y69138D01*
Y78025D01*
X881912D02*
Y69138D01*
X886356D01*
X887837Y70619D01*
Y76544D01*
X886356Y78025D01*
X881912D01*
X867523Y128825D02*
X861598D01*
Y119938D01*
X867523D01*
X861598Y124382D02*
X864560D01*
X870485Y119938D02*
Y128825D01*
X874929D01*
X876410Y127344D01*
Y124382D01*
X874929Y122900D01*
X870485D01*
X879372Y128825D02*
Y119938D01*
X882335Y122900D01*
X885297Y119938D01*
Y128825D01*
X888259Y119938D02*
Y128825D01*
X891222Y125863D01*
X894184Y128825D01*
Y119938D01*
X897147Y127344D02*
X898628Y128825D01*
X901590D01*
X903071Y127344D01*
Y125863D01*
X901590Y124382D01*
X900109D01*
X901590D01*
X903071Y122900D01*
Y121419D01*
X901590Y119938D01*
X898628D01*
X897147Y121419D01*
X906034Y128825D02*
Y119938D01*
X910477D01*
X911958Y121419D01*
Y122900D01*
X910477Y124382D01*
X906034D01*
X910477D01*
X911958Y125863D01*
Y127344D01*
X910477Y128825D01*
X906034D01*
X273686Y293584D02*
X275168D01*
X278130Y296546D01*
X275168Y299509D01*
X273686D01*
X278130Y296546D02*
X282574D01*
Y308396D02*
Y302471D01*
X276649Y308396D01*
X275168D01*
X273686Y306915D01*
Y303952D01*
X275168Y302471D01*
X-41274Y104568D02*
X-33868D01*
X-32386Y106049D01*
Y109012D01*
X-33868Y110493D01*
X-41274D01*
X-39792Y119380D02*
X-41274Y117899D01*
Y114936D01*
X-39792Y113455D01*
X-38311D01*
X-36830Y114936D01*
Y117899D01*
X-35349Y119380D01*
X-33868D01*
X-32386Y117899D01*
Y114936D01*
X-33868Y113455D01*
X-41274Y122342D02*
X-32386D01*
Y126786D01*
X-33868Y128267D01*
X-35349D01*
X-36830Y126786D01*
Y122342D01*
Y126786D01*
X-38311Y128267D01*
X-39792D01*
X-41274Y126786D01*
Y122342D01*
X-32386Y131229D02*
Y134192D01*
Y132711D01*
X-41274D01*
X-39792Y131229D01*
X5123Y360806D02*
X2160D01*
X3642D01*
Y353400D01*
X2160Y351918D01*
X679D01*
X-802Y353400D01*
X8085Y359324D02*
X9566Y360806D01*
X12529D01*
X14010Y359324D01*
Y357843D01*
X12529Y356362D01*
X11048D01*
X12529D01*
X14010Y354881D01*
Y353400D01*
X12529Y351918D01*
X9566D01*
X8085Y353400D01*
X147534Y170814D02*
Y163408D01*
X149015Y161926D01*
X151978D01*
X153459Y163408D01*
Y170814D01*
X160865Y161926D02*
Y170814D01*
X156421Y166370D01*
X162346D01*
X478156Y82764D02*
X485562D01*
X487044Y84245D01*
Y87208D01*
X485562Y88689D01*
X478156D01*
X479638Y91651D02*
X478156Y93132D01*
Y96095D01*
X479638Y97576D01*
X481119D01*
X482600Y96095D01*
Y94614D01*
Y96095D01*
X484081Y97576D01*
X485562D01*
X487044Y96095D01*
Y93132D01*
X485562Y91651D01*
X650454Y258444D02*
Y251038D01*
X651935Y249556D01*
X654898D01*
X656379Y251038D01*
Y258444D01*
X665266Y249556D02*
X659341D01*
X665266Y255481D01*
Y256962D01*
X663785Y258444D01*
X660822D01*
X659341Y256962D01*
X56514Y203619D02*
Y197695D01*
Y200657D01*
X47626D01*
X56514Y194732D02*
X50589D01*
X47626Y191770D01*
X50589Y188808D01*
X56514D01*
X47626Y179921D02*
Y185845D01*
X53551Y179921D01*
X55032D01*
X56514Y181402D01*
Y184364D01*
X55032Y185845D01*
X630982Y42544D02*
X636906D01*
X633944D01*
Y33656D01*
X639869Y42544D02*
Y36619D01*
X642831Y33656D01*
X645794Y36619D01*
Y42544D01*
X648756Y33656D02*
X651718D01*
X650237D01*
Y42544D01*
X648756Y41062D01*
X370736Y51222D02*
X369255Y52704D01*
X366292D01*
X364811Y51222D01*
Y49741D01*
X366292Y48260D01*
X369255D01*
X370736Y46779D01*
Y45298D01*
X369255Y43816D01*
X366292D01*
X364811Y45298D01*
X373698Y43816D02*
X376661D01*
X375179D01*
Y52704D01*
X373698Y51222D01*
X387029Y43816D02*
X381104D01*
X387029Y49741D01*
Y51222D01*
X385548Y52704D01*
X382585D01*
X381104Y51222D01*
X438257Y49952D02*
X436776Y51434D01*
X433814D01*
X432332Y49952D01*
Y48471D01*
X433814Y46990D01*
X436776D01*
X438257Y45509D01*
Y44028D01*
X436776Y42546D01*
X433814D01*
X432332Y44028D01*
X441219Y42546D02*
X444182D01*
X442701D01*
Y51434D01*
X441219Y49952D01*
X448625Y42546D02*
X451588D01*
X450107D01*
Y51434D01*
X448625Y49952D01*
X103929Y-31328D02*
X102448Y-29846D01*
X99485D01*
X98004Y-31328D01*
Y-32809D01*
X99485Y-34290D01*
X102448D01*
X103929Y-35771D01*
Y-37252D01*
X102448Y-38734D01*
X99485D01*
X98004Y-37252D01*
X112816Y-29846D02*
X106891D01*
Y-34290D01*
X109854Y-32809D01*
X111335D01*
X112816Y-34290D01*
Y-37252D01*
X111335Y-38734D01*
X108372D01*
X106891Y-37252D01*
X732579Y58842D02*
X731098Y60324D01*
X728135D01*
X726654Y58842D01*
Y57361D01*
X728135Y55880D01*
X731098D01*
X732579Y54399D01*
Y52918D01*
X731098Y51436D01*
X728135D01*
X726654Y52918D01*
X739985Y51436D02*
Y60324D01*
X735541Y55880D01*
X741466D01*
X129329Y401742D02*
X127848Y403224D01*
X124885D01*
X123404Y401742D01*
Y400261D01*
X124885Y398780D01*
X127848D01*
X129329Y397299D01*
Y395818D01*
X127848Y394336D01*
X124885D01*
X123404Y395818D01*
X132291Y401742D02*
X133772Y403224D01*
X136735D01*
X138216Y401742D01*
Y400261D01*
X136735Y398780D01*
X135254D01*
X136735D01*
X138216Y397299D01*
Y395818D01*
X136735Y394336D01*
X133772D01*
X132291Y395818D01*
X197909Y362372D02*
X196428Y363854D01*
X193465D01*
X191984Y362372D01*
Y360891D01*
X193465Y359410D01*
X196428D01*
X197909Y357929D01*
Y356448D01*
X196428Y354966D01*
X193465D01*
X191984Y356448D01*
X206796Y354966D02*
X200871D01*
X206796Y360891D01*
Y362372D01*
X205315Y363854D01*
X202352D01*
X200871Y362372D01*
X696594Y97582D02*
X687706D01*
Y102025D01*
X689188Y103506D01*
X692150D01*
X693631Y102025D01*
Y97582D01*
Y100544D02*
X696594Y103506D01*
X695112Y106469D02*
X696594Y107950D01*
Y110912D01*
X695112Y112394D01*
X689188D01*
X687706Y110912D01*
Y107950D01*
X689188Y106469D01*
X690669D01*
X692150Y107950D01*
Y112394D01*
X696594Y115356D02*
Y118318D01*
Y116837D01*
X687706D01*
X689188Y115356D01*
X89534Y54191D02*
X80646D01*
Y58634D01*
X82128Y60115D01*
X85090D01*
X86571Y58634D01*
Y54191D01*
Y57153D02*
X89534Y60115D01*
X88052Y63078D02*
X89534Y64559D01*
Y67521D01*
X88052Y69002D01*
X82128D01*
X80646Y67521D01*
Y64559D01*
X82128Y63078D01*
X83609D01*
X85090Y64559D01*
Y69002D01*
X82128Y71965D02*
X80646Y73446D01*
Y76408D01*
X82128Y77889D01*
X88052D01*
X89534Y76408D01*
Y73446D01*
X88052Y71965D01*
X82128D01*
X666330Y192406D02*
Y201294D01*
X670774D01*
X672255Y199812D01*
Y196850D01*
X670774Y195369D01*
X666330D01*
X669293D02*
X672255Y192406D01*
X675218Y199812D02*
X676699Y201294D01*
X679661D01*
X681142Y199812D01*
Y198331D01*
X679661Y196850D01*
X681142Y195369D01*
Y193888D01*
X679661Y192406D01*
X676699D01*
X675218Y193888D01*
Y195369D01*
X676699Y196850D01*
X675218Y198331D01*
Y199812D01*
X676699Y196850D02*
X679661D01*
X684105Y193888D02*
X685586Y192406D01*
X688548D01*
X690030Y193888D01*
Y199812D01*
X688548Y201294D01*
X685586D01*
X684105Y199812D01*
Y198331D01*
X685586Y196850D01*
X690030D01*
X61594Y102451D02*
X52706D01*
Y106894D01*
X54188Y108375D01*
X57150D01*
X58631Y106894D01*
Y102451D01*
Y105413D02*
X61594Y108375D01*
X54188Y111338D02*
X52706Y112819D01*
Y115781D01*
X54188Y117262D01*
X55669D01*
X57150Y115781D01*
X58631Y117262D01*
X60112D01*
X61594Y115781D01*
Y112819D01*
X60112Y111338D01*
X58631D01*
X57150Y112819D01*
X55669Y111338D01*
X54188D01*
X57150Y112819D02*
Y115781D01*
X54188Y120225D02*
X52706Y121706D01*
Y124668D01*
X54188Y126150D01*
X55669D01*
X57150Y124668D01*
X58631Y126150D01*
X60112D01*
X61594Y124668D01*
Y121706D01*
X60112Y120225D01*
X58631D01*
X57150Y121706D01*
X55669Y120225D01*
X54188D01*
X57150Y121706D02*
Y124668D01*
X65620Y126366D02*
Y135254D01*
X70064D01*
X71545Y133772D01*
Y130810D01*
X70064Y129329D01*
X65620D01*
X68583D02*
X71545Y126366D01*
X74508Y133772D02*
X75989Y135254D01*
X78951D01*
X80432Y133772D01*
Y132291D01*
X78951Y130810D01*
X80432Y129329D01*
Y127848D01*
X78951Y126366D01*
X75989D01*
X74508Y127848D01*
Y129329D01*
X75989Y130810D01*
X74508Y132291D01*
Y133772D01*
X75989Y130810D02*
X78951D01*
X83395Y135254D02*
X89319D01*
Y133772D01*
X83395Y127848D01*
Y126366D01*
X427354Y196430D02*
X418466D01*
Y200874D01*
X419948Y202355D01*
X422910D01*
X424391Y200874D01*
Y196430D01*
Y199393D02*
X427354Y202355D01*
X419948Y205318D02*
X418466Y206799D01*
Y209761D01*
X419948Y211242D01*
X421429D01*
X422910Y209761D01*
X424391Y211242D01*
X425872D01*
X427354Y209761D01*
Y206799D01*
X425872Y205318D01*
X424391D01*
X422910Y206799D01*
X421429Y205318D01*
X419948D01*
X422910Y206799D02*
Y209761D01*
X418466Y220130D02*
X419948Y217167D01*
X422910Y214205D01*
X425872D01*
X427354Y215686D01*
Y218648D01*
X425872Y220130D01*
X424391D01*
X422910Y218648D01*
Y214205D01*
X457834Y150710D02*
X448946D01*
Y155154D01*
X450428Y156635D01*
X453390D01*
X454871Y155154D01*
Y150710D01*
Y153673D02*
X457834Y156635D01*
X450428Y159598D02*
X448946Y161079D01*
Y164041D01*
X450428Y165522D01*
X451909D01*
X453390Y164041D01*
X454871Y165522D01*
X456352D01*
X457834Y164041D01*
Y161079D01*
X456352Y159598D01*
X454871D01*
X453390Y161079D01*
X451909Y159598D01*
X450428D01*
X453390Y161079D02*
Y164041D01*
X448946Y174410D02*
Y168485D01*
X453390D01*
X451909Y171447D01*
Y172928D01*
X453390Y174410D01*
X456352D01*
X457834Y172928D01*
Y169966D01*
X456352Y168485D01*
X415924Y196430D02*
X407036D01*
Y200874D01*
X408518Y202355D01*
X411480D01*
X412961Y200874D01*
Y196430D01*
Y199393D02*
X415924Y202355D01*
X408518Y205318D02*
X407036Y206799D01*
Y209761D01*
X408518Y211242D01*
X409999D01*
X411480Y209761D01*
X412961Y211242D01*
X414442D01*
X415924Y209761D01*
Y206799D01*
X414442Y205318D01*
X412961D01*
X411480Y206799D01*
X409999Y205318D01*
X408518D01*
X411480Y206799D02*
Y209761D01*
X415924Y218648D02*
X407036D01*
X411480Y214205D01*
Y220130D01*
X412331Y184786D02*
Y193674D01*
X416774D01*
X418255Y192192D01*
Y189230D01*
X416774Y187749D01*
X412331D01*
X415293D02*
X418255Y184786D01*
X421218Y192192D02*
X422699Y193674D01*
X425661D01*
X427142Y192192D01*
Y190711D01*
X425661Y189230D01*
X427142Y187749D01*
Y186268D01*
X425661Y184786D01*
X422699D01*
X421218Y186268D01*
Y187749D01*
X422699Y189230D01*
X421218Y190711D01*
Y192192D01*
X422699Y189230D02*
X425661D01*
X430105Y192192D02*
X431586Y193674D01*
X434548D01*
X436030Y192192D01*
Y190711D01*
X434548Y189230D01*
X433067D01*
X434548D01*
X436030Y187749D01*
Y186268D01*
X434548Y184786D01*
X431586D01*
X430105Y186268D01*
X330834Y-19469D02*
X321946D01*
Y-15026D01*
X323428Y-13545D01*
X326390D01*
X327871Y-15026D01*
Y-19469D01*
Y-16507D02*
X330834Y-13545D01*
X323428Y-10582D02*
X321946Y-9101D01*
Y-6139D01*
X323428Y-4658D01*
X324909D01*
X326390Y-6139D01*
X327871Y-4658D01*
X329352D01*
X330834Y-6139D01*
Y-9101D01*
X329352Y-10582D01*
X327871D01*
X326390Y-9101D01*
X324909Y-10582D01*
X323428D01*
X326390Y-9101D02*
Y-6139D01*
X330834Y4229D02*
Y-1695D01*
X324909Y4229D01*
X323428D01*
X321946Y2748D01*
Y-214D01*
X323428Y-1695D01*
X309244Y-19469D02*
X300356D01*
Y-15026D01*
X301838Y-13545D01*
X304800D01*
X306281Y-15026D01*
Y-19469D01*
Y-16507D02*
X309244Y-13545D01*
X301838Y-10582D02*
X300356Y-9101D01*
Y-6139D01*
X301838Y-4658D01*
X303319D01*
X304800Y-6139D01*
X306281Y-4658D01*
X307762D01*
X309244Y-6139D01*
Y-9101D01*
X307762Y-10582D01*
X306281D01*
X304800Y-9101D01*
X303319Y-10582D01*
X301838D01*
X304800Y-9101D02*
Y-6139D01*
X309244Y-1695D02*
Y1267D01*
Y-214D01*
X300356D01*
X301838Y-1695D01*
X287654Y-19469D02*
X278766D01*
Y-15026D01*
X280248Y-13545D01*
X283210D01*
X284691Y-15026D01*
Y-19469D01*
Y-16507D02*
X287654Y-13545D01*
X280248Y-10582D02*
X278766Y-9101D01*
Y-6139D01*
X280248Y-4658D01*
X281729D01*
X283210Y-6139D01*
X284691Y-4658D01*
X286172D01*
X287654Y-6139D01*
Y-9101D01*
X286172Y-10582D01*
X284691D01*
X283210Y-9101D01*
X281729Y-10582D01*
X280248D01*
X283210Y-9101D02*
Y-6139D01*
X280248Y-1695D02*
X278766Y-214D01*
Y2748D01*
X280248Y4229D01*
X286172D01*
X287654Y2748D01*
Y-214D01*
X286172Y-1695D01*
X280248D01*
X266064Y-19469D02*
X257176D01*
Y-15026D01*
X258658Y-13545D01*
X261620D01*
X263101Y-15026D01*
Y-19469D01*
Y-16507D02*
X266064Y-13545D01*
X257176Y-10582D02*
Y-4658D01*
X258658D01*
X264582Y-10582D01*
X266064D01*
X264582Y-1695D02*
X266064Y-214D01*
Y2748D01*
X264582Y4229D01*
X258658D01*
X257176Y2748D01*
Y-214D01*
X258658Y-1695D01*
X260139D01*
X261620Y-214D01*
Y4229D01*
X244474Y-19469D02*
X235586D01*
Y-15026D01*
X237068Y-13545D01*
X240030D01*
X241511Y-15026D01*
Y-19469D01*
Y-16507D02*
X244474Y-13545D01*
X235586Y-10582D02*
Y-4658D01*
X237068D01*
X242992Y-10582D01*
X244474D01*
X237068Y-1695D02*
X235586Y-214D01*
Y2748D01*
X237068Y4229D01*
X238549D01*
X240030Y2748D01*
X241511Y4229D01*
X242992D01*
X244474Y2748D01*
Y-214D01*
X242992Y-1695D01*
X241511D01*
X240030Y-214D01*
X238549Y-1695D01*
X237068D01*
X240030Y-214D02*
Y2748D01*
X224154Y-19469D02*
X215266D01*
Y-15026D01*
X216748Y-13545D01*
X219710D01*
X221191Y-15026D01*
Y-19469D01*
Y-16507D02*
X224154Y-13545D01*
X215266Y-10582D02*
Y-4658D01*
X216748D01*
X222672Y-10582D01*
X224154D01*
X215266Y-1695D02*
Y4229D01*
X216748D01*
X222672Y-1695D01*
X224154D01*
X202564Y-19469D02*
X193676D01*
Y-15026D01*
X195158Y-13545D01*
X198120D01*
X199601Y-15026D01*
Y-19469D01*
Y-16507D02*
X202564Y-13545D01*
X193676Y-10582D02*
Y-4658D01*
X195158D01*
X201082Y-10582D01*
X202564D01*
X193676Y4229D02*
X195158Y1267D01*
X198120Y-1695D01*
X201082D01*
X202564Y-214D01*
Y2748D01*
X201082Y4229D01*
X199601D01*
X198120Y2748D01*
Y-1695D01*
X180974Y-19469D02*
X172086D01*
Y-15026D01*
X173568Y-13545D01*
X176530D01*
X178011Y-15026D01*
Y-19469D01*
Y-16507D02*
X180974Y-13545D01*
X172086Y-10582D02*
Y-4658D01*
X173568D01*
X179492Y-10582D01*
X180974D01*
X172086Y4229D02*
Y-1695D01*
X176530D01*
X175049Y1267D01*
Y2748D01*
X176530Y4229D01*
X179492D01*
X180974Y2748D01*
Y-214D01*
X179492Y-1695D01*
X626744Y111341D02*
X617856D01*
Y115784D01*
X619338Y117265D01*
X622300D01*
X623781Y115784D01*
Y111341D01*
Y114303D02*
X626744Y117265D01*
X617856Y120228D02*
Y126152D01*
X619338D01*
X625262Y120228D01*
X626744D01*
Y133558D02*
X617856D01*
X622300Y129115D01*
Y135040D01*
X126580Y234316D02*
Y243204D01*
X131024D01*
X132505Y241722D01*
Y238760D01*
X131024Y237279D01*
X126580D01*
X129543D02*
X132505Y234316D01*
X135468Y243204D02*
X141392D01*
Y241722D01*
X135468Y235798D01*
Y234316D01*
X144355Y241722D02*
X145836Y243204D01*
X148798D01*
X150280Y241722D01*
Y240241D01*
X148798Y238760D01*
X147317D01*
X148798D01*
X150280Y237279D01*
Y235798D01*
X148798Y234316D01*
X145836D01*
X144355Y235798D01*
X103721Y156846D02*
Y165734D01*
X108164D01*
X109645Y164252D01*
Y161290D01*
X108164Y159809D01*
X103721D01*
X106683D02*
X109645Y156846D01*
X112608Y165734D02*
X118532D01*
Y164252D01*
X112608Y158328D01*
Y156846D01*
X127420D02*
X121495D01*
X127420Y162771D01*
Y164252D01*
X125938Y165734D01*
X122976D01*
X121495Y164252D01*
X218232Y175896D02*
Y184784D01*
X222675D01*
X224156Y183302D01*
Y180340D01*
X222675Y178859D01*
X218232D01*
X221194D02*
X224156Y175896D01*
X227119Y184784D02*
X233044D01*
Y183302D01*
X227119Y177378D01*
Y175896D01*
X236006D02*
X238968D01*
X237487D01*
Y184784D01*
X236006Y183302D01*
X250824Y177381D02*
X241936D01*
Y181824D01*
X243418Y183305D01*
X246380D01*
X247861Y181824D01*
Y177381D01*
Y180343D02*
X250824Y183305D01*
X241936Y186268D02*
Y192192D01*
X243418D01*
X249342Y186268D01*
X250824D01*
X243418Y195155D02*
X241936Y196636D01*
Y199598D01*
X243418Y201080D01*
X249342D01*
X250824Y199598D01*
Y196636D01*
X249342Y195155D01*
X243418D01*
X635634Y329781D02*
X626746D01*
Y334224D01*
X628228Y335705D01*
X631190D01*
X632671Y334224D01*
Y329781D01*
Y332743D02*
X635634Y335705D01*
X626746Y344592D02*
X628228Y341630D01*
X631190Y338668D01*
X634152D01*
X635634Y340149D01*
Y343111D01*
X634152Y344592D01*
X632671D01*
X631190Y343111D01*
Y338668D01*
X634152Y347555D02*
X635634Y349036D01*
Y351998D01*
X634152Y353479D01*
X628228D01*
X626746Y351998D01*
Y349036D01*
X628228Y347555D01*
X629709D01*
X631190Y349036D01*
Y353479D01*
X545681Y165736D02*
Y174624D01*
X550124D01*
X551605Y173142D01*
Y170180D01*
X550124Y168699D01*
X545681D01*
X548643D02*
X551605Y165736D01*
X560492Y174624D02*
X557530Y173142D01*
X554568Y170180D01*
Y167218D01*
X556049Y165736D01*
X559011D01*
X560492Y167218D01*
Y168699D01*
X559011Y170180D01*
X554568D01*
X563455Y173142D02*
X564936Y174624D01*
X567898D01*
X569380Y173142D01*
Y171661D01*
X567898Y170180D01*
X569380Y168699D01*
Y167218D01*
X567898Y165736D01*
X564936D01*
X563455Y167218D01*
Y168699D01*
X564936Y170180D01*
X563455Y171661D01*
Y173142D01*
X564936Y170180D02*
X567898D01*
X526414Y164681D02*
X517526D01*
Y169124D01*
X519008Y170605D01*
X521970D01*
X523451Y169124D01*
Y164681D01*
Y167643D02*
X526414Y170605D01*
X517526Y179492D02*
X519008Y176530D01*
X521970Y173568D01*
X524932D01*
X526414Y175049D01*
Y178011D01*
X524932Y179492D01*
X523451D01*
X521970Y178011D01*
Y173568D01*
X517526Y182455D02*
Y188379D01*
X519008D01*
X524932Y182455D01*
X526414D01*
X733641Y320676D02*
Y329564D01*
X738084D01*
X739565Y328082D01*
Y325120D01*
X738084Y323639D01*
X733641D01*
X736603D02*
X739565Y320676D01*
X748452Y329564D02*
X745490Y328082D01*
X742528Y325120D01*
Y322158D01*
X744009Y320676D01*
X746971D01*
X748452Y322158D01*
Y323639D01*
X746971Y325120D01*
X742528D01*
X757339Y329564D02*
X754377Y328082D01*
X751415Y325120D01*
Y322158D01*
X752896Y320676D01*
X755858D01*
X757339Y322158D01*
Y323639D01*
X755858Y325120D01*
X751415D01*
X733641Y285116D02*
Y294004D01*
X738084D01*
X739565Y292522D01*
Y289560D01*
X738084Y288079D01*
X733641D01*
X736603D02*
X739565Y285116D01*
X748452Y294004D02*
X745490Y292522D01*
X742528Y289560D01*
Y286598D01*
X744009Y285116D01*
X746971D01*
X748452Y286598D01*
Y288079D01*
X746971Y289560D01*
X742528D01*
X757339Y294004D02*
X751415D01*
Y289560D01*
X754377Y291041D01*
X755858D01*
X757339Y289560D01*
Y286598D01*
X755858Y285116D01*
X752896D01*
X751415Y286598D01*
X653631Y285116D02*
Y294004D01*
X658074D01*
X659555Y292522D01*
Y289560D01*
X658074Y288079D01*
X653631D01*
X656593D02*
X659555Y285116D01*
X668442Y294004D02*
X665480Y292522D01*
X662518Y289560D01*
Y286598D01*
X663999Y285116D01*
X666961D01*
X668442Y286598D01*
Y288079D01*
X666961Y289560D01*
X662518D01*
X675848Y285116D02*
Y294004D01*
X671405Y289560D01*
X677329D01*
X171031Y250826D02*
Y259714D01*
X175474D01*
X176955Y258232D01*
Y255270D01*
X175474Y253789D01*
X171031D01*
X173993D02*
X176955Y250826D01*
X185842Y259714D02*
X182880Y258232D01*
X179918Y255270D01*
Y252308D01*
X181399Y250826D01*
X184361D01*
X185842Y252308D01*
Y253789D01*
X184361Y255270D01*
X179918D01*
X188805Y258232D02*
X190286Y259714D01*
X193248D01*
X194729Y258232D01*
Y256751D01*
X193248Y255270D01*
X191767D01*
X193248D01*
X194729Y253789D01*
Y252308D01*
X193248Y250826D01*
X190286D01*
X188805Y252308D01*
X688340Y165948D02*
Y171872D01*
X686859Y173354D01*
X683896D01*
X682415Y171872D01*
Y165948D01*
X683896Y164466D01*
X686859D01*
X685378Y167429D02*
X688340Y164466D01*
X686859D02*
X688340Y165948D01*
X691302Y164466D02*
X694265D01*
X692784D01*
Y173354D01*
X691302Y171872D01*
X321946Y9107D02*
X330834D01*
Y15032D01*
X321946Y23919D02*
Y17994D01*
X330834D01*
Y23919D01*
X326390Y17994D02*
Y20956D01*
X321946Y26881D02*
X330834D01*
Y31325D01*
X329352Y32806D01*
X323428D01*
X321946Y31325D01*
Y26881D01*
Y35768D02*
Y41693D01*
X323428D01*
X329352Y35768D01*
X330834D01*
X300356Y9107D02*
X309244D01*
Y15032D01*
X300356Y23919D02*
Y17994D01*
X309244D01*
Y23919D01*
X304800Y17994D02*
Y20956D01*
X300356Y26881D02*
X309244D01*
Y31325D01*
X307762Y32806D01*
X301838D01*
X300356Y31325D01*
Y26881D01*
Y41693D02*
X301838Y38731D01*
X304800Y35768D01*
X307762D01*
X309244Y37250D01*
Y40212D01*
X307762Y41693D01*
X306281D01*
X304800Y40212D01*
Y35768D01*
X278766Y9107D02*
X287654D01*
Y15032D01*
X278766Y23919D02*
Y17994D01*
X287654D01*
Y23919D01*
X283210Y17994D02*
Y20956D01*
X278766Y26881D02*
X287654D01*
Y31325D01*
X286172Y32806D01*
X280248D01*
X278766Y31325D01*
Y26881D01*
Y41693D02*
Y35768D01*
X283210D01*
X281729Y38731D01*
Y40212D01*
X283210Y41693D01*
X286172D01*
X287654Y40212D01*
Y37250D01*
X286172Y35768D01*
X257176Y9107D02*
X266064D01*
Y15032D01*
X257176Y23919D02*
Y17994D01*
X266064D01*
Y23919D01*
X261620Y17994D02*
Y20956D01*
X257176Y26881D02*
X266064D01*
Y31325D01*
X264582Y32806D01*
X258658D01*
X257176Y31325D01*
Y26881D01*
X266064Y40212D02*
X257176D01*
X261620Y35768D01*
Y41693D01*
X235586Y9107D02*
X244474D01*
Y15032D01*
X235586Y23919D02*
Y17994D01*
X244474D01*
Y23919D01*
X240030Y17994D02*
Y20956D01*
X235586Y26881D02*
X244474D01*
Y31325D01*
X242992Y32806D01*
X237068D01*
X235586Y31325D01*
Y26881D01*
X237068Y35768D02*
X235586Y37250D01*
Y40212D01*
X237068Y41693D01*
X238549D01*
X240030Y40212D01*
Y38731D01*
Y40212D01*
X241511Y41693D01*
X242992D01*
X244474Y40212D01*
Y37250D01*
X242992Y35768D01*
X213996Y9107D02*
X222884D01*
Y15032D01*
X213996Y23919D02*
Y17994D01*
X222884D01*
Y23919D01*
X218440Y17994D02*
Y20956D01*
X213996Y26881D02*
X222884D01*
Y31325D01*
X221402Y32806D01*
X215478D01*
X213996Y31325D01*
Y26881D01*
X222884Y41693D02*
Y35768D01*
X216959Y41693D01*
X215478D01*
X213996Y40212D01*
Y37250D01*
X215478Y35768D01*
X193676Y9107D02*
X202564D01*
Y15032D01*
X193676Y23919D02*
Y17994D01*
X202564D01*
Y23919D01*
X198120Y17994D02*
Y20956D01*
X193676Y26881D02*
X202564D01*
Y31325D01*
X201082Y32806D01*
X195158D01*
X193676Y31325D01*
Y26881D01*
X202564Y35768D02*
Y38731D01*
Y37250D01*
X193676D01*
X195158Y35768D01*
X172086Y9107D02*
X180974D01*
Y15032D01*
X172086Y23919D02*
Y17994D01*
X180974D01*
Y23919D01*
X176530Y17994D02*
Y20956D01*
X172086Y26881D02*
X180974D01*
Y31325D01*
X179492Y32806D01*
X173568D01*
X172086Y31325D01*
Y26881D01*
X173568Y35768D02*
X172086Y37250D01*
Y40212D01*
X173568Y41693D01*
X179492D01*
X180974Y40212D01*
Y37250D01*
X179492Y35768D01*
X173568D01*
X682204Y365124D02*
Y356236D01*
X688129D01*
X695535D02*
Y365124D01*
X691091Y360680D01*
X697016D01*
X489164Y274954D02*
Y266066D01*
X495089D01*
X498051Y273472D02*
X499532Y274954D01*
X502495D01*
X503976Y273472D01*
Y271991D01*
X502495Y270510D01*
X501014D01*
X502495D01*
X503976Y269029D01*
Y267548D01*
X502495Y266066D01*
X499532D01*
X498051Y267548D01*
X274109Y511174D02*
X271146D01*
X272628D01*
Y503768D01*
X271146Y502286D01*
X269665D01*
X268184Y503768D01*
X282996Y502286D02*
X277071D01*
X282996Y508211D01*
Y509692D01*
X281515Y511174D01*
X278552D01*
X277071Y509692D01*
X671830Y67944D02*
X665905D01*
Y63500D01*
X668868D01*
X665905D01*
Y59056D01*
X674792D02*
X677755D01*
X676274D01*
Y67944D01*
X674792Y66462D01*
X96734Y67944D02*
Y59056D01*
X101178D01*
X102659Y60538D01*
Y66462D01*
X101178Y67944D01*
X96734D01*
X110065Y59056D02*
Y67944D01*
X105621Y63500D01*
X111546D01*
X614894Y205104D02*
Y196216D01*
X619338D01*
X620819Y197698D01*
Y203622D01*
X619338Y205104D01*
X614894D01*
X623781Y203622D02*
X625262Y205104D01*
X628225D01*
X629706Y203622D01*
Y202141D01*
X628225Y200660D01*
X626744D01*
X628225D01*
X629706Y199179D01*
Y197698D01*
X628225Y196216D01*
X625262D01*
X623781Y197698D01*
X619126Y308824D02*
X628014D01*
Y313268D01*
X626532Y314749D01*
X620608D01*
X619126Y313268D01*
Y308824D01*
X628014Y323636D02*
Y317711D01*
X622089Y323636D01*
X620608D01*
X619126Y322155D01*
Y319192D01*
X620608Y317711D01*
X596055Y171872D02*
X594574Y173354D01*
X591612D01*
X590131Y171872D01*
Y165948D01*
X591612Y164466D01*
X594574D01*
X596055Y165948D01*
X604942Y173354D02*
X599018D01*
Y168910D01*
X601980Y170391D01*
X603461D01*
X604942Y168910D01*
Y165948D01*
X603461Y164466D01*
X600499D01*
X599018Y165948D01*
X607905Y171872D02*
X609386Y173354D01*
X612348D01*
X613829Y171872D01*
Y170391D01*
X612348Y168910D01*
X610867D01*
X612348D01*
X613829Y167429D01*
Y165948D01*
X612348Y164466D01*
X609386D01*
X607905Y165948D01*
X599865Y183302D02*
X598384Y184784D01*
X595422D01*
X593941Y183302D01*
Y177378D01*
X595422Y175896D01*
X598384D01*
X599865Y177378D01*
X608752Y184784D02*
X602828D01*
Y180340D01*
X605790Y181821D01*
X607271D01*
X608752Y180340D01*
Y177378D01*
X607271Y175896D01*
X604309D01*
X602828Y177378D01*
X617640Y175896D02*
X611715D01*
X617640Y181821D01*
Y183302D01*
X616158Y184784D01*
X613196D01*
X611715Y183302D01*
X200026D02*
X198545Y184784D01*
X195583D01*
X194102Y183302D01*
Y177378D01*
X195583Y175896D01*
X198545D01*
X200026Y177378D01*
X208914Y184784D02*
X202989D01*
Y180340D01*
X205951Y181821D01*
X207432D01*
X208914Y180340D01*
Y177378D01*
X207432Y175896D01*
X204470D01*
X202989Y177378D01*
X211876Y175896D02*
X214838D01*
X213357D01*
Y184784D01*
X211876Y183302D01*
X81705Y245532D02*
X80224Y247014D01*
X77262D01*
X75781Y245532D01*
Y239608D01*
X77262Y238126D01*
X80224D01*
X81705Y239608D01*
X90592Y247014D02*
X84668D01*
Y242570D01*
X87630Y244051D01*
X89111D01*
X90592Y242570D01*
Y239608D01*
X89111Y238126D01*
X86149D01*
X84668Y239608D01*
X93555Y245532D02*
X95036Y247014D01*
X97998D01*
X99480Y245532D01*
Y239608D01*
X97998Y238126D01*
X95036D01*
X93555Y239608D01*
Y245532D01*
X481755Y176952D02*
X480274Y178434D01*
X477312D01*
X475830Y176952D01*
Y171028D01*
X477312Y169546D01*
X480274D01*
X481755Y171028D01*
X489161Y169546D02*
Y178434D01*
X484718Y173990D01*
X490642D01*
X493605Y171028D02*
X495086Y169546D01*
X498048D01*
X499529Y171028D01*
Y176952D01*
X498048Y178434D01*
X495086D01*
X493605Y176952D01*
Y175471D01*
X495086Y173990D01*
X499529D01*
X477098Y122345D02*
X475616Y120864D01*
Y117902D01*
X477098Y116420D01*
X483022D01*
X484504Y117902D01*
Y120864D01*
X483022Y122345D01*
X484504Y129751D02*
X475616D01*
X480060Y125308D01*
Y131232D01*
X477098Y134195D02*
X475616Y135676D01*
Y138638D01*
X477098Y140119D01*
X478579D01*
X480060Y138638D01*
X481541Y140119D01*
X483022D01*
X484504Y138638D01*
Y135676D01*
X483022Y134195D01*
X481541D01*
X480060Y135676D01*
X478579Y134195D01*
X477098D01*
X480060Y135676D02*
Y138638D01*
X736178Y262045D02*
X734696Y260564D01*
Y257602D01*
X736178Y256120D01*
X742102D01*
X743584Y257602D01*
Y260564D01*
X742102Y262045D01*
X743584Y269451D02*
X734696D01*
X739140Y265008D01*
Y270932D01*
X734696Y273895D02*
Y279820D01*
X736178D01*
X742102Y273895D01*
X743584D01*
X635425Y234102D02*
X633944Y235584D01*
X630982D01*
X629501Y234102D01*
Y228178D01*
X630982Y226696D01*
X633944D01*
X635425Y228178D01*
X642831Y226696D02*
Y235584D01*
X638388Y231140D01*
X644312D01*
X653199Y235584D02*
X650237Y234102D01*
X647275Y231140D01*
Y228178D01*
X648756Y226696D01*
X651718D01*
X653199Y228178D01*
Y229659D01*
X651718Y231140D01*
X647275D01*
X646855Y245532D02*
X645374Y247014D01*
X642412D01*
X640930Y245532D01*
Y239608D01*
X642412Y238126D01*
X645374D01*
X646855Y239608D01*
X654261Y238126D02*
Y247014D01*
X649818Y242570D01*
X655742D01*
X664630Y247014D02*
X658705D01*
Y242570D01*
X661667Y244051D01*
X663148D01*
X664630Y242570D01*
Y239608D01*
X663148Y238126D01*
X660186D01*
X658705Y239608D01*
X726018Y218865D02*
X724536Y217384D01*
Y214422D01*
X726018Y212941D01*
X731942D01*
X733424Y214422D01*
Y217384D01*
X731942Y218865D01*
X733424Y226271D02*
X724536D01*
X728980Y221828D01*
Y227752D01*
X733424Y235158D02*
X724536D01*
X728980Y230715D01*
Y236639D01*
X212515Y225212D02*
X211034Y226694D01*
X208072D01*
X206590Y225212D01*
Y219288D01*
X208072Y217806D01*
X211034D01*
X212515Y219288D01*
X219921Y217806D02*
Y226694D01*
X215478Y222250D01*
X221402D01*
X224365Y225212D02*
X225846Y226694D01*
X228808D01*
X230289Y225212D01*
Y223731D01*
X228808Y222250D01*
X227327D01*
X228808D01*
X230289Y220769D01*
Y219288D01*
X228808Y217806D01*
X225846D01*
X224365Y219288D01*
X278555Y269662D02*
X277074Y271144D01*
X274112D01*
X272631Y269662D01*
Y263738D01*
X274112Y262256D01*
X277074D01*
X278555Y263738D01*
X285961Y262256D02*
Y271144D01*
X281518Y266700D01*
X287442D01*
X296329Y262256D02*
X290405D01*
X296329Y268181D01*
Y269662D01*
X294848Y271144D01*
X291886D01*
X290405Y269662D01*
X280036Y335702D02*
X278555Y337184D01*
X275593D01*
X274112Y335702D01*
Y329778D01*
X275593Y328296D01*
X278555D01*
X280036Y329778D01*
X287442Y328296D02*
Y337184D01*
X282999Y332740D01*
X288924D01*
X291886Y328296D02*
X294848D01*
X293367D01*
Y337184D01*
X291886Y335702D01*
X497418Y426616D02*
X495936Y425135D01*
Y422172D01*
X497418Y420691D01*
X503342D01*
X504824Y422172D01*
Y425135D01*
X503342Y426616D01*
X504824Y429578D02*
Y432541D01*
Y431059D01*
X495936D01*
X497418Y429578D01*
X495936Y442909D02*
Y436984D01*
X500380D01*
X498899Y439947D01*
Y441428D01*
X500380Y442909D01*
X503342D01*
X504824Y441428D01*
Y438465D01*
X503342Y436984D01*
X462109Y226188D02*
Y233594D01*
X460628Y235076D01*
X457665D01*
X456184Y233594D01*
Y226188D01*
X453222Y235076D02*
X450259D01*
X451740D01*
Y226188D01*
X453222Y227670D01*
X584200Y146472D02*
X582719Y147954D01*
X579756D01*
X578275Y146472D01*
Y144991D01*
X579756Y143510D01*
X582719D01*
X584200Y142029D01*
Y140548D01*
X582719Y139066D01*
X579756D01*
X578275Y140548D01*
X587162Y139066D02*
X590125D01*
X588644D01*
Y147954D01*
X587162Y146472D01*
X376771Y564516D02*
Y573404D01*
X381214D01*
X382695Y571922D01*
Y568960D01*
X381214Y567479D01*
X376771D01*
X379733D02*
X382695Y564516D01*
X391582Y573404D02*
X388620Y571922D01*
X385658Y568960D01*
Y565998D01*
X387139Y564516D01*
X390101D01*
X391582Y565998D01*
Y567479D01*
X390101Y568960D01*
X385658D01*
X400470Y564516D02*
X394545D01*
X400470Y570441D01*
Y571922D01*
X398988Y573404D01*
X396026D01*
X394545Y571922D01*
X371902Y550546D02*
Y559434D01*
X376345D01*
X377826Y557952D01*
Y554990D01*
X376345Y553509D01*
X371902D01*
X374864D02*
X377826Y550546D01*
X386714Y559434D02*
X383751Y557952D01*
X380789Y554990D01*
Y552028D01*
X382270Y550546D01*
X385232D01*
X386714Y552028D01*
Y553509D01*
X385232Y554990D01*
X380789D01*
X389676Y550546D02*
X392638D01*
X391157D01*
Y559434D01*
X389676Y557952D01*
X196214Y474561D02*
X187326D01*
Y479004D01*
X188808Y480485D01*
X191770D01*
X193251Y479004D01*
Y474561D01*
Y477523D02*
X196214Y480485D01*
X187326Y489372D02*
X188808Y486410D01*
X191770Y483448D01*
X194732D01*
X196214Y484929D01*
Y487891D01*
X194732Y489372D01*
X193251D01*
X191770Y487891D01*
Y483448D01*
X188808Y492335D02*
X187326Y493816D01*
Y496778D01*
X188808Y498260D01*
X194732D01*
X196214Y496778D01*
Y493816D01*
X194732Y492335D01*
X188808D01*
X281521Y372746D02*
Y381634D01*
X285964D01*
X287445Y380152D01*
Y377190D01*
X285964Y375709D01*
X281521D01*
X284483D02*
X287445Y372746D01*
X296332Y381634D02*
X290408D01*
Y377190D01*
X293370Y378671D01*
X294851D01*
X296332Y377190D01*
Y374228D01*
X294851Y372746D01*
X291889D01*
X290408Y374228D01*
X299295D02*
X300776Y372746D01*
X303738D01*
X305219Y374228D01*
Y380152D01*
X303738Y381634D01*
X300776D01*
X299295Y380152D01*
Y378671D01*
X300776Y377190D01*
X305219D01*
X273901Y343536D02*
Y352424D01*
X278344D01*
X279825Y350942D01*
Y347980D01*
X278344Y346499D01*
X273901D01*
X276863D02*
X279825Y343536D01*
X288712Y352424D02*
X282788D01*
Y347980D01*
X285750Y349461D01*
X287231D01*
X288712Y347980D01*
Y345018D01*
X287231Y343536D01*
X284269D01*
X282788Y345018D01*
X291675Y350942D02*
X293156Y352424D01*
X296118D01*
X297600Y350942D01*
Y349461D01*
X296118Y347980D01*
X297600Y346499D01*
Y345018D01*
X296118Y343536D01*
X293156D01*
X291675Y345018D01*
Y346499D01*
X293156Y347980D01*
X291675Y349461D01*
Y350942D01*
X293156Y347980D02*
X296118D01*
X569810Y179706D02*
Y188594D01*
X574254D01*
X575735Y187112D01*
Y184150D01*
X574254Y182669D01*
X569810D01*
X572773D02*
X575735Y179706D01*
X584622D02*
X578698D01*
X584622Y185631D01*
Y187112D01*
X583141Y188594D01*
X580179D01*
X578698Y187112D01*
X587585Y188594D02*
X593509D01*
Y187112D01*
X587585Y181188D01*
Y179706D01*
X626744Y281521D02*
X617856D01*
Y285964D01*
X619338Y287445D01*
X622300D01*
X623781Y285964D01*
Y281521D01*
Y284483D02*
X626744Y287445D01*
Y296332D02*
Y290408D01*
X620819Y296332D01*
X619338D01*
X617856Y294851D01*
Y291889D01*
X619338Y290408D01*
X617856Y305219D02*
X619338Y302257D01*
X622300Y299295D01*
X625262D01*
X626744Y300776D01*
Y303738D01*
X625262Y305219D01*
X623781D01*
X622300Y303738D01*
Y299295D01*
X564514Y323430D02*
X555626D01*
Y327874D01*
X557108Y329355D01*
X560070D01*
X561551Y327874D01*
Y323430D01*
Y326393D02*
X564514Y329355D01*
Y338242D02*
Y332318D01*
X558589Y338242D01*
X557108D01*
X555626Y336761D01*
Y333799D01*
X557108Y332318D01*
X555626Y347130D02*
Y341205D01*
X560070D01*
X558589Y344167D01*
Y345648D01*
X560070Y347130D01*
X563032D01*
X564514Y345648D01*
Y342686D01*
X563032Y341205D01*
X468210Y404496D02*
Y413384D01*
X472654D01*
X474135Y411902D01*
Y408940D01*
X472654Y407459D01*
X468210D01*
X471173D02*
X474135Y404496D01*
X483022D02*
X477098D01*
X483022Y410421D01*
Y411902D01*
X481541Y413384D01*
X478579D01*
X477098Y411902D01*
X490428Y404496D02*
Y413384D01*
X485985Y408940D01*
X491909D01*
X539330Y351156D02*
Y360044D01*
X543774D01*
X545255Y358562D01*
Y355600D01*
X543774Y354119D01*
X539330D01*
X542293D02*
X545255Y351156D01*
X554142D02*
X548218D01*
X554142Y357081D01*
Y358562D01*
X552661Y360044D01*
X549699D01*
X548218Y358562D01*
X557105D02*
X558586Y360044D01*
X561548D01*
X563030Y358562D01*
Y357081D01*
X561548Y355600D01*
X560067D01*
X561548D01*
X563030Y354119D01*
Y352638D01*
X561548Y351156D01*
X558586D01*
X557105Y352638D01*
X347561Y528956D02*
Y537844D01*
X352004D01*
X353485Y536362D01*
Y533400D01*
X352004Y531919D01*
X347561D01*
X350523D02*
X353485Y528956D01*
X362372D02*
X356448D01*
X362372Y534881D01*
Y536362D01*
X360891Y537844D01*
X357929D01*
X356448Y536362D01*
X371259Y528956D02*
X365335D01*
X371259Y534881D01*
Y536362D01*
X369778Y537844D01*
X366816D01*
X365335Y536362D01*
X401112Y528956D02*
Y537844D01*
X405555D01*
X407036Y536362D01*
Y533400D01*
X405555Y531919D01*
X401112D01*
X404074D02*
X407036Y528956D01*
X415924D02*
X409999D01*
X415924Y534881D01*
Y536362D01*
X414442Y537844D01*
X411480D01*
X409999Y536362D01*
X418886Y528956D02*
X421848D01*
X420367D01*
Y537844D01*
X418886Y536362D01*
X312001Y407036D02*
Y415924D01*
X316444D01*
X317925Y414442D01*
Y411480D01*
X316444Y409999D01*
X312001D01*
X314963D02*
X317925Y407036D01*
X326812D02*
X320888D01*
X326812Y412961D01*
Y414442D01*
X325331Y415924D01*
X322369D01*
X320888Y414442D01*
X329775D02*
X331256Y415924D01*
X334218D01*
X335700Y414442D01*
Y408518D01*
X334218Y407036D01*
X331256D01*
X329775Y408518D01*
Y414442D01*
X339411Y405766D02*
Y414654D01*
X343855D01*
X345336Y413172D01*
Y410210D01*
X343855Y408729D01*
X339411D01*
X342374D02*
X345336Y405766D01*
X348298D02*
X351261D01*
X349779D01*
Y414654D01*
X348298Y413172D01*
X355704Y407248D02*
X357185Y405766D01*
X360148D01*
X361629Y407248D01*
Y413172D01*
X360148Y414654D01*
X357185D01*
X355704Y413172D01*
Y411691D01*
X357185Y410210D01*
X361629D01*
X482921Y334646D02*
Y343534D01*
X487365D01*
X488846Y342052D01*
Y339090D01*
X487365Y337609D01*
X482921D01*
X485883D02*
X488846Y334646D01*
X491808D02*
X494771D01*
X493289D01*
Y343534D01*
X491808Y342052D01*
X499214D02*
X500695Y343534D01*
X503658D01*
X505139Y342052D01*
Y340571D01*
X503658Y339090D01*
X505139Y337609D01*
Y336128D01*
X503658Y334646D01*
X500695D01*
X499214Y336128D01*
Y337609D01*
X500695Y339090D01*
X499214Y340571D01*
Y342052D01*
X500695Y339090D02*
X503658D01*
X538801Y374016D02*
Y382904D01*
X543245D01*
X544726Y381422D01*
Y378460D01*
X543245Y376979D01*
X538801D01*
X541763D02*
X544726Y374016D01*
X547688D02*
X550651D01*
X549169D01*
Y382904D01*
X547688Y381422D01*
X555094Y382904D02*
X561019D01*
Y381422D01*
X555094Y375498D01*
Y374016D01*
X437514Y481651D02*
X428626D01*
Y486095D01*
X430108Y487576D01*
X433070D01*
X434551Y486095D01*
Y481651D01*
Y484613D02*
X437514Y487576D01*
Y490538D02*
Y493501D01*
Y492019D01*
X428626D01*
X430108Y490538D01*
X428626Y503869D02*
X430108Y500906D01*
X433070Y497944D01*
X436032D01*
X437514Y499425D01*
Y502388D01*
X436032Y503869D01*
X434551D01*
X433070Y502388D01*
Y497944D01*
X534991Y222886D02*
Y231774D01*
X539435D01*
X540916Y230292D01*
Y227330D01*
X539435Y225849D01*
X534991D01*
X537953D02*
X540916Y222886D01*
X543878D02*
X546841D01*
X545359D01*
Y231774D01*
X543878Y230292D01*
X557209Y231774D02*
X551284D01*
Y227330D01*
X554246Y228811D01*
X555728D01*
X557209Y227330D01*
Y224368D01*
X555728Y222886D01*
X552765D01*
X551284Y224368D01*
X617541Y252096D02*
Y260984D01*
X621985D01*
X623466Y259502D01*
Y256540D01*
X621985Y255059D01*
X617541D01*
X620504D02*
X623466Y252096D01*
X626428D02*
X629391D01*
X627909D01*
Y260984D01*
X626428Y259502D01*
X638278Y252096D02*
Y260984D01*
X633834Y256540D01*
X639759D01*
X536261Y404496D02*
Y413384D01*
X540705D01*
X542186Y411902D01*
Y408940D01*
X540705Y407459D01*
X536261D01*
X539224D02*
X542186Y404496D01*
X545148D02*
X548111D01*
X546629D01*
Y413384D01*
X545148Y411902D01*
X552554D02*
X554035Y413384D01*
X556998D01*
X558479Y411902D01*
Y410421D01*
X556998Y408940D01*
X555517D01*
X556998D01*
X558479Y407459D01*
Y405978D01*
X556998Y404496D01*
X554035D01*
X552554Y405978D01*
X536261Y433706D02*
Y442594D01*
X540705D01*
X542186Y441112D01*
Y438150D01*
X540705Y436669D01*
X536261D01*
X539224D02*
X542186Y433706D01*
X545148D02*
X548111D01*
X546629D01*
Y442594D01*
X545148Y441112D01*
X558479Y433706D02*
X552554D01*
X558479Y439631D01*
Y441112D01*
X556998Y442594D01*
X554035D01*
X552554Y441112D01*
X484402Y252096D02*
Y260984D01*
X488846D01*
X490327Y259502D01*
Y256540D01*
X488846Y255059D01*
X484402D01*
X487365D02*
X490327Y252096D01*
X493289D02*
X496252D01*
X494771D01*
Y260984D01*
X493289Y259502D01*
X500695Y252096D02*
X503658D01*
X502177D01*
Y260984D01*
X500695Y259502D01*
X273371Y358776D02*
Y367664D01*
X277815D01*
X279296Y366182D01*
Y363220D01*
X277815Y361739D01*
X273371D01*
X276334D02*
X279296Y358776D01*
X282258D02*
X285221D01*
X283739D01*
Y367664D01*
X282258Y366182D01*
X289664D02*
X291145Y367664D01*
X294108D01*
X295589Y366182D01*
Y360258D01*
X294108Y358776D01*
X291145D01*
X289664Y360258D01*
Y366182D01*
X411694Y414654D02*
Y405766D01*
X417619D01*
X426506D02*
X420581D01*
X426506Y411691D01*
Y413172D01*
X425025Y414654D01*
X422062D01*
X420581Y413172D01*
X193826Y624458D02*
X190864D01*
X192345D01*
Y617052D01*
X190864Y615570D01*
X189383D01*
X187901Y617052D01*
X196789Y615570D02*
X199751D01*
X198270D01*
Y624458D01*
X196789Y622976D01*
X204195D02*
X205676Y624458D01*
X208638D01*
X210119Y622976D01*
Y617052D01*
X208638Y615570D01*
X205676D01*
X204195Y617052D01*
Y622976D01*
X219007Y615570D02*
X213082D01*
X219007Y621495D01*
Y622976D01*
X217525Y624458D01*
X214563D01*
X213082Y622976D01*
X540175Y215052D02*
X538694Y216534D01*
X535732D01*
X534250Y215052D01*
Y209128D01*
X535732Y207646D01*
X538694D01*
X540175Y209128D01*
X547581Y207646D02*
Y216534D01*
X543138Y212090D01*
X549062D01*
X552025Y215052D02*
X553506Y216534D01*
X556468D01*
X557949Y215052D01*
Y209128D01*
X556468Y207646D01*
X553506D01*
X552025Y209128D01*
Y215052D01*
X606215Y334432D02*
X604734Y335914D01*
X601772D01*
X600290Y334432D01*
Y328508D01*
X601772Y327026D01*
X604734D01*
X606215Y328508D01*
X609178Y334432D02*
X610659Y335914D01*
X613621D01*
X615102Y334432D01*
Y332951D01*
X613621Y331470D01*
X612140D01*
X613621D01*
X615102Y329989D01*
Y328508D01*
X613621Y327026D01*
X610659D01*
X609178Y328508D01*
X618065D02*
X619546Y327026D01*
X622508D01*
X623989Y328508D01*
Y334432D01*
X622508Y335914D01*
X619546D01*
X618065Y334432D01*
Y332951D01*
X619546Y331470D01*
X623989D01*
X543985Y369992D02*
X542504Y371474D01*
X539542D01*
X538060Y369992D01*
Y364068D01*
X539542Y362586D01*
X542504D01*
X543985Y364068D01*
X546948Y369992D02*
X548429Y371474D01*
X551391D01*
X552872Y369992D01*
Y368511D01*
X551391Y367030D01*
X549910D01*
X551391D01*
X552872Y365549D01*
Y364068D01*
X551391Y362586D01*
X548429D01*
X546948Y364068D01*
X555835Y369992D02*
X557316Y371474D01*
X560278D01*
X561759Y369992D01*
Y368511D01*
X560278Y367030D01*
X561759Y365549D01*
Y364068D01*
X560278Y362586D01*
X557316D01*
X555835Y364068D01*
Y365549D01*
X557316Y367030D01*
X555835Y368511D01*
Y369992D01*
X557316Y367030D02*
X560278D01*
X380155Y536362D02*
X378674Y537844D01*
X375712D01*
X374230Y536362D01*
Y530438D01*
X375712Y528956D01*
X378674D01*
X380155Y530438D01*
X383118Y536362D02*
X384599Y537844D01*
X387561D01*
X389042Y536362D01*
Y534881D01*
X387561Y533400D01*
X386080D01*
X387561D01*
X389042Y531919D01*
Y530438D01*
X387561Y528956D01*
X384599D01*
X383118Y530438D01*
X392005Y537844D02*
X397929D01*
Y536362D01*
X392005Y530438D01*
Y528956D01*
X340782Y472015D02*
X342264Y473496D01*
Y476458D01*
X340782Y477939D01*
X334858D01*
X333376Y476458D01*
Y473496D01*
X334858Y472015D01*
X340782Y469052D02*
X342264Y467571D01*
Y464609D01*
X340782Y463128D01*
X339301D01*
X337820Y464609D01*
Y466090D01*
Y464609D01*
X336339Y463128D01*
X334858D01*
X333376Y464609D01*
Y467571D01*
X334858Y469052D01*
X342264Y454240D02*
X340782Y457203D01*
X337820Y460165D01*
X334858D01*
X333376Y458684D01*
Y455722D01*
X334858Y454240D01*
X336339D01*
X337820Y455722D01*
Y460165D01*
X547795Y396662D02*
X546314Y398144D01*
X543352D01*
X541870Y396662D01*
Y390738D01*
X543352Y389256D01*
X546314D01*
X547795Y390738D01*
X550758Y396662D02*
X552239Y398144D01*
X555201D01*
X556682Y396662D01*
Y395181D01*
X555201Y393700D01*
X553720D01*
X555201D01*
X556682Y392219D01*
Y390738D01*
X555201Y389256D01*
X552239D01*
X550758Y390738D01*
X565569Y398144D02*
X559645D01*
Y393700D01*
X562607Y395181D01*
X564088D01*
X565569Y393700D01*
Y390738D01*
X564088Y389256D01*
X561126D01*
X559645Y390738D01*
X616375Y245532D02*
X614894Y247014D01*
X611932D01*
X610451Y245532D01*
Y239608D01*
X611932Y238126D01*
X614894D01*
X616375Y239608D01*
X619338Y245532D02*
X620819Y247014D01*
X623781D01*
X625262Y245532D01*
Y244051D01*
X623781Y242570D01*
X622300D01*
X623781D01*
X625262Y241089D01*
Y239608D01*
X623781Y238126D01*
X620819D01*
X619338Y239608D01*
X632668Y238126D02*
Y247014D01*
X628225Y242570D01*
X634150D01*
X547795Y427142D02*
X546314Y428624D01*
X543352D01*
X541870Y427142D01*
Y421218D01*
X543352Y419736D01*
X546314D01*
X547795Y421218D01*
X550758Y427142D02*
X552239Y428624D01*
X555201D01*
X556682Y427142D01*
Y425661D01*
X555201Y424180D01*
X553720D01*
X555201D01*
X556682Y422699D01*
Y421218D01*
X555201Y419736D01*
X552239D01*
X550758Y421218D01*
X559645Y427142D02*
X561126Y428624D01*
X564088D01*
X565569Y427142D01*
Y425661D01*
X564088Y424180D01*
X562607D01*
X564088D01*
X565569Y422699D01*
Y421218D01*
X564088Y419736D01*
X561126D01*
X559645Y421218D01*
X558378Y293795D02*
X556896Y292314D01*
Y289352D01*
X558378Y287871D01*
X564302D01*
X565784Y289352D01*
Y292314D01*
X564302Y293795D01*
X558378Y296758D02*
X556896Y298239D01*
Y301201D01*
X558378Y302682D01*
X559859D01*
X561340Y301201D01*
Y299720D01*
Y301201D01*
X562821Y302682D01*
X564302D01*
X565784Y301201D01*
Y298239D01*
X564302Y296758D01*
X565784Y311569D02*
Y305645D01*
X559859Y311569D01*
X558378D01*
X556896Y310088D01*
Y307126D01*
X558378Y305645D01*
X520278Y427356D02*
X518796Y425875D01*
Y422913D01*
X520278Y421432D01*
X526202D01*
X527684Y422913D01*
Y425875D01*
X526202Y427356D01*
X520278Y430319D02*
X518796Y431800D01*
Y434762D01*
X520278Y436244D01*
X521759D01*
X523240Y434762D01*
Y433281D01*
Y434762D01*
X524721Y436244D01*
X526202D01*
X527684Y434762D01*
Y431800D01*
X526202Y430319D01*
X527684Y439206D02*
Y442168D01*
Y440687D01*
X518796D01*
X520278Y439206D01*
X315385Y508422D02*
X313904Y509904D01*
X310942D01*
X309461Y508422D01*
Y502498D01*
X310942Y501016D01*
X313904D01*
X315385Y502498D01*
X318348Y508422D02*
X319829Y509904D01*
X322791D01*
X324272Y508422D01*
Y506941D01*
X322791Y505460D01*
X321310D01*
X322791D01*
X324272Y503979D01*
Y502498D01*
X322791Y501016D01*
X319829D01*
X318348Y502498D01*
X327235Y508422D02*
X328716Y509904D01*
X331678D01*
X333159Y508422D01*
Y502498D01*
X331678Y501016D01*
X328716D01*
X327235Y502498D01*
Y508422D01*
X297602Y437725D02*
X299084Y439206D01*
Y442168D01*
X297602Y443649D01*
X291678D01*
X290196Y442168D01*
Y439206D01*
X291678Y437725D01*
X290196Y428838D02*
Y434762D01*
X296121Y428838D01*
X297602D01*
X299084Y430319D01*
Y433281D01*
X297602Y434762D01*
X291678Y425875D02*
X290196Y424394D01*
Y421432D01*
X291678Y419950D01*
X297602D01*
X299084Y421432D01*
Y424394D01*
X297602Y425875D01*
X296121D01*
X294640Y424394D01*
Y419950D01*
X486835Y353482D02*
X485354Y354964D01*
X482392D01*
X480910Y353482D01*
Y347558D01*
X482392Y346076D01*
X485354D01*
X486835Y347558D01*
X495722Y346076D02*
X489798D01*
X495722Y352001D01*
Y353482D01*
X494241Y354964D01*
X491279D01*
X489798Y353482D01*
X498685D02*
X500166Y354964D01*
X503128D01*
X504609Y353482D01*
Y352001D01*
X503128Y350520D01*
X504609Y349039D01*
Y347558D01*
X503128Y346076D01*
X500166D01*
X498685Y347558D01*
Y349039D01*
X500166Y350520D01*
X498685Y352001D01*
Y353482D01*
X500166Y350520D02*
X503128D01*
X404285Y467782D02*
X402804Y469264D01*
X399842D01*
X398360Y467782D01*
Y461858D01*
X399842Y460376D01*
X402804D01*
X404285Y461858D01*
X413172Y460376D02*
X407248D01*
X413172Y466301D01*
Y467782D01*
X411691Y469264D01*
X408729D01*
X407248Y467782D01*
X416135Y469264D02*
X422060D01*
Y467782D01*
X416135Y461858D01*
Y460376D01*
X617645Y274742D02*
X616164Y276224D01*
X613202D01*
X611721Y274742D01*
Y268818D01*
X613202Y267336D01*
X616164D01*
X617645Y268818D01*
X626532Y267336D02*
X620608D01*
X626532Y273261D01*
Y274742D01*
X625051Y276224D01*
X622089D01*
X620608Y274742D01*
X635420Y276224D02*
X632457Y274742D01*
X629495Y271780D01*
Y268818D01*
X630976Y267336D01*
X633938D01*
X635420Y268818D01*
Y270299D01*
X633938Y271780D01*
X629495D01*
X547795Y456352D02*
X546314Y457834D01*
X543352D01*
X541870Y456352D01*
Y450428D01*
X543352Y448946D01*
X546314D01*
X547795Y450428D01*
X556682Y448946D02*
X550758D01*
X556682Y454871D01*
Y456352D01*
X555201Y457834D01*
X552239D01*
X550758Y456352D01*
X565569Y457834D02*
X559645D01*
Y453390D01*
X562607Y454871D01*
X564088D01*
X565569Y453390D01*
Y450428D01*
X564088Y448946D01*
X561126D01*
X559645Y450428D01*
X496148Y363645D02*
X494666Y362164D01*
Y359202D01*
X496148Y357720D01*
X502072D01*
X503554Y359202D01*
Y362164D01*
X502072Y363645D01*
X503554Y372532D02*
Y366608D01*
X497629Y372532D01*
X496148D01*
X494666Y371051D01*
Y368089D01*
X496148Y366608D01*
X503554Y379938D02*
X494666D01*
X499110Y375495D01*
Y381419D01*
X379308Y192195D02*
X377826Y190714D01*
Y187752D01*
X379308Y186271D01*
X385232D01*
X386714Y187752D01*
Y190714D01*
X385232Y192195D01*
X386714Y201082D02*
Y195158D01*
X380789Y201082D01*
X379308D01*
X377826Y199601D01*
Y196639D01*
X379308Y195158D01*
Y204045D02*
X377826Y205526D01*
Y208488D01*
X379308Y209970D01*
X380789D01*
X382270Y208488D01*
Y207007D01*
Y208488D01*
X383751Y209970D01*
X385232D01*
X386714Y208488D01*
Y205526D01*
X385232Y204045D01*
X279825Y253152D02*
X278344Y254634D01*
X275382D01*
X273901Y253152D01*
Y247228D01*
X275382Y245746D01*
X278344D01*
X279825Y247228D01*
X288712Y245746D02*
X282788D01*
X288712Y251671D01*
Y253152D01*
X287231Y254634D01*
X284269D01*
X282788Y253152D01*
X297600Y245746D02*
X291675D01*
X297600Y251671D01*
Y253152D01*
X296118Y254634D01*
X293156D01*
X291675Y253152D01*
X370206Y408092D02*
X368725Y409574D01*
X365763D01*
X364282Y408092D01*
Y402168D01*
X365763Y400686D01*
X368725D01*
X370206Y402168D01*
X379094Y400686D02*
X373169D01*
X379094Y406611D01*
Y408092D01*
X377612Y409574D01*
X374650D01*
X373169Y408092D01*
X382056Y400686D02*
X385018D01*
X383537D01*
Y409574D01*
X382056Y408092D01*
X486835Y312842D02*
X485354Y314324D01*
X482392D01*
X480910Y312842D01*
Y306918D01*
X482392Y305436D01*
X485354D01*
X486835Y306918D01*
X495722Y305436D02*
X489798D01*
X495722Y311361D01*
Y312842D01*
X494241Y314324D01*
X491279D01*
X489798Y312842D01*
X498685D02*
X500166Y314324D01*
X503128D01*
X504609Y312842D01*
Y306918D01*
X503128Y305436D01*
X500166D01*
X498685Y306918D01*
Y312842D01*
X488846Y300142D02*
X487365Y301624D01*
X484402D01*
X482921Y300142D01*
Y294218D01*
X484402Y292736D01*
X487365D01*
X488846Y294218D01*
X491808Y292736D02*
X494771D01*
X493289D01*
Y301624D01*
X491808Y300142D01*
X499214Y294218D02*
X500695Y292736D01*
X503658D01*
X505139Y294218D01*
Y300142D01*
X503658Y301624D01*
X500695D01*
X499214Y300142D01*
Y298661D01*
X500695Y297180D01*
X505139D01*
X549488Y267866D02*
X548006Y266385D01*
Y263422D01*
X549488Y261941D01*
X555412D01*
X556894Y263422D01*
Y266385D01*
X555412Y267866D01*
X556894Y270828D02*
Y273791D01*
Y272309D01*
X548006D01*
X549488Y270828D01*
Y278234D02*
X548006Y279715D01*
Y282678D01*
X549488Y284159D01*
X550969D01*
X552450Y282678D01*
X553931Y284159D01*
X555412D01*
X556894Y282678D01*
Y279715D01*
X555412Y278234D01*
X553931D01*
X552450Y279715D01*
X550969Y278234D01*
X549488D01*
X552450Y279715D02*
Y282678D01*
X490116Y222672D02*
X488635Y224154D01*
X485672D01*
X484191Y222672D01*
Y216748D01*
X485672Y215266D01*
X488635D01*
X490116Y216748D01*
X493078Y215266D02*
X496041D01*
X494559D01*
Y224154D01*
X493078Y222672D01*
X500484Y224154D02*
X506409D01*
Y222672D01*
X500484Y216748D01*
Y215266D01*
X448206Y471592D02*
X446725Y473074D01*
X443762D01*
X442281Y471592D01*
Y465668D01*
X443762Y464186D01*
X446725D01*
X448206Y465668D01*
X451168Y464186D02*
X454131D01*
X452649D01*
Y473074D01*
X451168Y471592D01*
X464499Y473074D02*
X461536Y471592D01*
X458574Y468630D01*
Y465668D01*
X460055Y464186D01*
X463018D01*
X464499Y465668D01*
Y467149D01*
X463018Y468630D01*
X458574D01*
X508848Y426616D02*
X507366Y425135D01*
Y422172D01*
X508848Y420691D01*
X514772D01*
X516254Y422172D01*
Y425135D01*
X514772Y426616D01*
X516254Y429578D02*
Y432541D01*
Y431059D01*
X507366D01*
X508848Y429578D01*
X516254Y441428D02*
X507366D01*
X511810Y436984D01*
Y442909D01*
X482496Y325542D02*
X481015Y327024D01*
X478052D01*
X476571Y325542D01*
Y319618D01*
X478052Y318136D01*
X481015D01*
X482496Y319618D01*
X485458Y318136D02*
X488421D01*
X486939D01*
Y327024D01*
X485458Y325542D01*
X492864D02*
X494345Y327024D01*
X497308D01*
X498789Y325542D01*
Y324061D01*
X497308Y322580D01*
X495826D01*
X497308D01*
X498789Y321099D01*
Y319618D01*
X497308Y318136D01*
X494345D01*
X492864Y319618D01*
X384706Y456352D02*
X383225Y457834D01*
X380262D01*
X378781Y456352D01*
Y450428D01*
X380262Y448946D01*
X383225D01*
X384706Y450428D01*
X387668Y448946D02*
X390631D01*
X389149D01*
Y457834D01*
X387668Y456352D01*
X400999Y448946D02*
X395074D01*
X400999Y454871D01*
Y456352D01*
X399518Y457834D01*
X396555D01*
X395074Y456352D01*
X280777Y237912D02*
X279296Y239394D01*
X276334D01*
X274852Y237912D01*
Y231988D01*
X276334Y230506D01*
X279296D01*
X280777Y231988D01*
X283739Y230506D02*
X286702D01*
X285221D01*
Y239394D01*
X283739Y237912D01*
X291145Y230506D02*
X294108D01*
X292626D01*
Y239394D01*
X291145Y237912D01*
X364068Y192936D02*
X362586Y191455D01*
Y188492D01*
X364068Y187011D01*
X369992D01*
X371474Y188492D01*
Y191455D01*
X369992Y192936D01*
X371474Y195898D02*
Y198861D01*
Y197379D01*
X362586D01*
X364068Y195898D01*
Y203304D02*
X362586Y204785D01*
Y207748D01*
X364068Y209229D01*
X369992D01*
X371474Y207748D01*
Y204785D01*
X369992Y203304D01*
X364068D01*
X347558Y183939D02*
X346076Y182458D01*
Y179495D01*
X347558Y178014D01*
X353482D01*
X354964Y179495D01*
Y182458D01*
X353482Y183939D01*
Y186901D02*
X354964Y188382D01*
Y191345D01*
X353482Y192826D01*
X347558D01*
X346076Y191345D01*
Y188382D01*
X347558Y186901D01*
X349039D01*
X350520Y188382D01*
Y192826D01*
M02*
